<?xml version="1.0" encoding="UTF-8"?>
<svg width="447.332723px" height="23px" viewBox="0 0 447.332723 23" version="1.1" xmlns="http://www.w3.org/2000/svg" xmlns:xlink="http://www.w3.org/1999/xlink">
    <title>figure pattern</title>
    <g id="Page-1" stroke="none" stroke-width="1" fill="none" fill-rule="evenodd">
        <g id="figure-pattern" fill="#FADD82">
            <path d="M7.98500065,2.21715291 C7.87490938,3.48432377 8.838208,4.64981592 10.0892452,4.76293348 C11.4015832,4.88113497 12.4937386,3.89103858 12.6213444,2.46499475 C12.7251805,1.3071285 11.7456184,0.122571595 10.5934131,0.0132669873 C9.17723907,-0.121457296 8.11010437,0.780941207 7.98374961,2.21715291 L7.98500065,2.21715291 Z M10.285658,14.8342092 C10.3694775,14.9943531 10.42077,15.0884059 10.4683094,15.1850007 C11.1013342,16.4458166 11.6880707,17.7320522 12.3773921,18.9610936 C13.0767219,20.2066577 13.8623733,21.4026535 14.6417694,22.5986492 C14.7643711,22.7867549 15.0533607,22.8617429 15.2647859,22.9888413 C15.3410992,22.7600642 15.4912237,22.5274742 15.4812154,22.301239 C15.4374291,21.2501354 15.4249187,20.1888639 15.2635349,19.1530121 C14.8406843,16.4356488 14.3465247,13.7309952 13.8798878,11.0212577 C13.8060766,10.5954782 13.7347675,10.1684276 13.6597052,9.7299382 C13.8285953,9.69689262 13.953699,9.66765999 14.0800537,9.64732425 C15.8077361,9.35881092 17.5154018,8.9838707 19.1742771,8.40811504 C19.5495882,8.2772037 19.912389,8.09926597 20.2601773,7.90480545 C20.3927873,7.83108839 20.5541711,7.63916983 20.5429117,7.51715539 C20.5316524,7.39514094 20.3364906,7.24770682 20.1926213,7.19178353 C19.8923724,7.07485302 19.5771111,6.98334219 19.2605986,6.92996087 C16.2343397,6.41775439 13.1768049,6.31226274 10.1192701,6.31352244 C7.45205882,6.31480471 4.78109446,6.40885751 2.13515085,6.80921741 C1.50963227,6.90454119 0.886615758,7.05197531 0.279862731,7.233726 C-0.0679256016,7.33794667 -0.0904442706,7.58833048 0.206051538,7.80948166 C0.456258972,7.9950453 0.731487149,8.175525 1.02297881,8.26576485 C2.15766952,8.6152854 3.29736438,8.95590906 4.44706754,9.24569337 C5.27150103,9.45286373 6.11595112,9.57487817 6.96790743,9.7375641 C6.96165225,9.823991 6.96540536,9.90025003 6.95039291,9.97142512 C6.22103824,13.5454316 5.5229595,17.125793 5.18893258,20.7671616 C5.13388694,21.365795 5.15140146,21.9720542 5.17141806,22.5732296 C5.17642221,22.7206637 5.29527074,22.9074983 5.41912342,22.9913832 C5.48167528,23.0333257 5.70185782,22.9138532 5.79318353,22.8121745 C6.06340756,22.5147643 6.35615026,22.2198961 6.54755894,21.8716465 C7.61594469,19.9283123 8.65930968,17.9697262 9.70517676,16.0136821 C9.90033856,15.6489098 10.0717306,15.2701566 10.284407,14.8380221 L10.285658,14.8342092 Z" id="Fill-43"></path>
            <path d="M28.107946,2.21715291 C27.9978547,3.48432377 28.9611534,4.64981592 30.2121905,4.76293348 C31.5245285,4.88113497 32.616684,3.89103858 32.7442898,2.46499475 C32.8481258,1.3071285 31.8685637,0.122571595 30.7163585,0.0132669873 C29.3001844,-0.121457296 28.2330497,0.780941207 28.106695,2.21715291 L28.107946,2.21715291 Z M30.4086034,14.8342092 C30.4924229,14.9943531 30.5437154,15.0884059 30.5912548,15.1850007 C31.2242796,16.4458166 31.811016,17.7320522 32.5003375,18.9610936 C33.1996673,20.2066577 33.9853186,21.4026535 34.7647148,22.5986492 C34.8873164,22.7867549 35.176306,22.8617429 35.3877313,22.9888413 C35.4640446,22.7600642 35.614169,22.5274742 35.6041607,22.301239 C35.5603744,21.2501354 35.5478641,20.1888639 35.3864803,19.1530121 C34.9636297,16.4356488 34.46947,13.7309952 34.0028332,11.0212577 C33.929022,10.5954782 33.8577128,10.1684276 33.7826506,9.7299382 C33.9515406,9.69689262 34.0766443,9.66765999 34.2029991,9.64732425 C35.9306814,9.35881092 37.6383472,8.9838707 39.2972224,8.40811504 C39.6725336,8.2772037 40.0353344,8.09926597 40.3831227,7.90480545 C40.5157326,7.83108839 40.6771164,7.63916983 40.6658571,7.51715539 C40.6545978,7.39514094 40.459436,7.24770682 40.3155667,7.19178353 C40.0153178,7.07485302 39.7000564,6.98334219 39.383544,6.92996087 C36.3572851,6.41775439 33.2997503,6.31226274 30.2422154,6.31352244 C27.5750042,6.31480471 24.9040398,6.40885751 22.2580962,6.80921741 C21.6325776,6.90454119 21.0095611,7.05197531 20.4028081,7.233726 C20.0550198,7.33794667 20.0325011,7.58833048 20.3289969,7.80948166 C20.5792043,7.9950453 20.8544325,8.175525 21.1459242,8.26576485 C22.2806149,8.6152854 23.4203097,8.95590906 24.5700129,9.24569337 C25.3944464,9.45286373 26.2388965,9.57487817 27.0908528,9.7375641 C27.0845976,9.823991 27.0883507,9.90025003 27.0733383,9.97142512 C26.3439836,13.5454316 25.6459049,17.125793 25.3118779,20.7671616 C25.2568323,21.365795 25.2743468,21.9720542 25.2943634,22.5732296 C25.2993676,22.7206637 25.4182161,22.9074983 25.5420688,22.9913832 C25.6046206,23.0333257 25.8248032,22.9138532 25.9161289,22.8121745 C26.1863529,22.5147643 26.4790956,22.2198961 26.6705043,21.8716465 C27.73889,19.9283123 28.782255,17.9697262 29.8281221,16.0136821 C30.0232839,15.6489098 30.194676,15.2701566 30.4073523,14.8380221 L30.4086034,14.8342092 Z" id="Fill-46"></path>
            <path d="M48.6513332,2.21715291 C48.5412419,3.48432377 49.5045405,4.64981592 50.7555777,4.76293348 C52.0679157,4.88113497 53.1600711,3.89103858 53.2876769,2.46499475 C53.391513,1.3071285 52.4119509,0.122571595 51.2597457,0.0132669873 C49.8435716,-0.121457296 48.7764369,0.780941207 48.6500821,2.21715291 L48.6513332,2.21715291 Z M50.9519905,14.8342092 C51.03581,14.9943531 51.0871025,15.0884059 51.1346419,15.1850007 C51.7676667,16.4458166 52.3544032,17.7320522 53.0437247,18.9610936 C53.7430544,20.2066577 54.5287058,21.4026535 55.3081019,22.5986492 C55.4307036,22.7867549 55.7196932,22.8617429 55.9311184,22.9888413 C56.0074317,22.7600642 56.1575562,22.5274742 56.1475479,22.301239 C56.1037616,21.2501354 56.0912512,20.1888639 55.9298674,19.1530121 C55.5070168,16.4356488 55.0128572,13.7309952 54.5462203,11.0212577 C54.4724091,10.5954782 54.4011,10.1684276 54.3260378,9.7299382 C54.4949278,9.69689262 54.6200315,9.66765999 54.7463862,9.64732425 C56.4740686,9.35881092 58.1817343,8.9838707 59.8406096,8.40811504 C60.2159207,8.2772037 60.5787215,8.09926597 60.9265099,7.90480545 C61.0591198,7.83108839 61.2205036,7.63916983 61.2092443,7.51715539 C61.1979849,7.39514094 61.0028231,7.24770682 60.8589538,7.19178353 C60.5587049,7.07485302 60.2434436,6.98334219 59.9269312,6.92996087 C56.9006722,6.41775439 53.8431374,6.31226274 50.7856026,6.31352244 C48.1183913,6.31480471 45.447427,6.40885751 42.8014834,6.80921741 C42.1759648,6.90454119 41.5529483,7.05197531 40.9461952,7.233726 C40.5984069,7.33794667 40.5758882,7.58833048 40.872384,7.80948166 C41.1225915,7.9950453 41.3978197,8.175525 41.6893113,8.26576485 C42.824002,8.6152854 43.9636969,8.95590906 45.1134,9.24569337 C45.9378335,9.45286373 46.7822836,9.57487817 47.6342399,9.7375641 C47.6279848,9.823991 47.6317379,9.90025003 47.6167254,9.97142512 C46.8873707,13.5454316 46.189292,17.125793 45.8552651,20.7671616 C45.8002194,21.365795 45.817734,21.9720542 45.8377506,22.5732296 C45.8427547,22.7206637 45.9616032,22.9074983 46.0854559,22.9913832 C46.1480078,23.0333257 46.3681903,22.9138532 46.459516,22.8121745 C46.7297401,22.5147643 47.0224828,22.2198961 47.2138914,21.8716465 C48.2822772,19.9283123 49.3256422,17.9697262 50.3715093,16.0136821 C50.5666711,15.6489098 50.7380632,15.2701566 50.9507395,14.8380221 L50.9519905,14.8342092 Z" id="Fill-1"></path>
            <path d="M68.7742535,2.21715291 C68.6641622,3.48432377 69.6274608,4.64981592 70.878498,4.76293348 C72.190836,4.88113497 73.2829915,3.89103858 73.4105972,2.46499475 C73.5144333,1.3071285 72.5348712,0.122571595 71.382666,0.0132669873 C69.9664919,-0.121457296 68.8993572,0.780941207 68.7730025,2.21715291 L68.7742535,2.21715291 Z M71.0749108,14.8342092 C71.1587303,14.9943531 71.2100229,15.0884059 71.2575623,15.1850007 C71.8905871,16.4458166 72.4773235,17.7320522 73.166645,18.9610936 C73.8659748,20.2066577 74.6516261,21.4026535 75.4310223,22.5986492 C75.5536239,22.7867549 75.8426135,22.8617429 76.0540388,22.9888413 C76.130352,22.7600642 76.2804765,22.5274742 76.2704682,22.301239 C76.2266819,21.2501354 76.2141715,20.1888639 76.0527877,19.1530121 C75.6299372,16.4356488 75.1357775,13.7309952 74.6691406,11.0212577 C74.5953294,10.5954782 74.5240203,10.1684276 74.4489581,9.7299382 C74.6178481,9.69689262 74.7429518,9.66765999 74.8693066,9.64732425 C76.5969889,9.35881092 78.3046546,8.9838707 79.9635299,8.40811504 C80.3388411,8.2772037 80.7016419,8.09926597 81.0494302,7.90480545 C81.1820401,7.83108839 81.3434239,7.63916983 81.3321646,7.51715539 C81.3209053,7.39514094 81.1257435,7.24770682 80.9818742,7.19178353 C80.6816253,7.07485302 80.3663639,6.98334219 80.0498515,6.92996087 C77.0235926,6.41775439 73.9660577,6.31226274 70.9085229,6.31352244 C68.2413117,6.31480471 65.5703473,6.40885751 62.9244037,6.80921741 C62.2988851,6.90454119 61.6758686,7.05197531 61.0691156,7.233726 C60.7213272,7.33794667 60.6988086,7.58833048 60.9953044,7.80948166 C61.2455118,7.9950453 61.52074,8.175525 61.8122317,8.26576485 C62.9469224,8.6152854 64.0866172,8.95590906 65.2363204,9.24569337 C66.0607539,9.45286373 66.905204,9.57487817 67.7571603,9.7375641 C67.7509051,9.823991 67.7546582,9.90025003 67.7396458,9.97142512 C67.0102911,13.5454316 66.3122123,17.125793 65.9781854,20.7671616 C65.9231398,21.365795 65.9406543,21.9720542 65.9606709,22.5732296 C65.9656751,22.7206637 66.0845236,22.9074983 66.2083763,22.9913832 C66.2709281,23.0333257 66.4911107,22.9138532 66.5824364,22.8121745 C66.8526604,22.5147643 67.1454031,22.2198961 67.3368118,21.8716465 C68.4051975,19.9283123 69.4485625,17.9697262 70.4944296,16.0136821 C70.6895914,15.6489098 70.8609835,15.2701566 71.0736598,14.8380221 L71.0749108,14.8342092 Z" id="Fill-4"></path>
            <path d="M89.3175473,2.21715291 C89.2074561,3.48432377 90.1707547,4.64981592 91.4217919,4.76293348 C92.7341299,4.88113497 93.8262853,3.89103858 93.9538911,2.46499475 C94.0577272,1.3071285 93.0781651,0.122571595 91.9259598,0.0132669873 C90.5097858,-0.121457296 89.4426511,0.780941207 89.3162963,2.21715291 L89.3175473,2.21715291 Z M91.6182047,14.8342092 C91.7020242,14.9943531 91.7533167,15.0884059 91.8008561,15.1850007 C92.4338809,16.4458166 93.0206174,17.7320522 93.7099388,18.9610936 C94.4092686,20.2066577 95.19492,21.4026535 95.9743161,22.5986492 C96.0969178,22.7867549 96.3859073,22.8617429 96.5973326,22.9888413 C96.6736459,22.7600642 96.8237704,22.5274742 96.8137621,22.301239 C96.7699758,21.2501354 96.7574654,20.1888639 96.5960816,19.1530121 C96.173231,16.4356488 95.6790713,13.7309952 95.2124345,11.0212577 C95.1386233,10.5954782 95.0673142,10.1684276 94.9922519,9.7299382 C95.161142,9.69689262 95.2862457,9.66765999 95.4126004,9.64732425 C97.1402828,9.35881092 98.8479485,8.9838707 100.506824,8.40811504 C100.882135,8.2772037 101.244936,8.09926597 101.592724,7.90480545 C101.725334,7.83108839 101.886718,7.63916983 101.875458,7.51715539 C101.864199,7.39514094 101.669037,7.24770682 101.525168,7.19178353 C101.224919,7.07485302 100.909658,6.98334219 100.593145,6.92996087 C97.5668864,6.41775439 94.5093516,6.31226274 91.4518168,6.31352244 C88.7846055,6.31480471 86.1136412,6.40885751 83.4676975,6.80921741 C82.842179,6.90454119 82.2191625,7.05197531 81.6124094,7.233726 C81.2646211,7.33794667 81.2421024,7.58833048 81.5385982,7.80948166 C81.7888057,7.9950453 82.0640338,8.175525 82.3555255,8.26576485 C83.4902162,8.6152854 84.6299111,8.95590906 85.7796142,9.24569337 C86.6040477,9.45286373 87.4484978,9.57487817 88.3004541,9.7375641 C88.2941989,9.823991 88.2979521,9.90025003 88.2829396,9.97142512 C87.5535849,13.5454316 86.8555062,17.125793 86.5214793,20.7671616 C86.4664336,21.365795 86.4839482,21.9720542 86.5039648,22.5732296 C86.5089689,22.7206637 86.6278174,22.9074983 86.7516701,22.9913832 C86.814222,23.0333257 87.0344045,22.9138532 87.1257302,22.8121745 C87.3959543,22.5147643 87.688697,22.2198961 87.8801056,21.8716465 C88.9484914,19.9283123 89.9918564,17.9697262 91.0377235,16.0136821 C91.2328853,15.6489098 91.4042773,15.2701566 91.6169537,14.8380221 L91.6182047,14.8342092 Z" id="Fill-7"></path>
            <path d="M109.440468,2.21715291 C109.330376,3.48432377 110.293675,4.64981592 111.544712,4.76293348 C112.85705,4.88113497 113.949206,3.89103858 114.076811,2.46499475 C114.180648,1.3071285 113.201085,0.122571595 112.04888,0.0132669873 C110.632706,-0.121457296 109.565571,0.780941207 109.439217,2.21715291 L109.440468,2.21715291 Z M111.741125,14.8342092 C111.824945,14.9943531 111.876237,15.0884059 111.923776,15.1850007 C112.556801,16.4458166 113.143538,17.7320522 113.832859,18.9610936 C114.532189,20.2066577 115.31784,21.4026535 116.097236,22.5986492 C116.219838,22.7867549 116.508828,22.8617429 116.720253,22.9888413 C116.796566,22.7600642 116.946691,22.5274742 116.936682,22.301239 C116.892896,21.2501354 116.880386,20.1888639 116.719002,19.1530121 C116.296151,16.4356488 115.801992,13.7309952 115.335355,11.0212577 C115.261544,10.5954782 115.190235,10.1684276 115.115172,9.7299382 C115.284062,9.69689262 115.409166,9.66765999 115.535521,9.64732425 C117.263203,9.35881092 118.970869,8.9838707 120.629744,8.40811504 C121.005055,8.2772037 121.367856,8.09926597 121.715644,7.90480545 C121.848254,7.83108839 122.009638,7.63916983 121.998379,7.51715539 C121.987119,7.39514094 121.791958,7.24770682 121.648088,7.19178353 C121.347839,7.07485302 121.032578,6.98334219 120.716066,6.92996087 C117.689807,6.41775439 114.632272,6.31226274 111.574737,6.31352244 C108.907526,6.31480471 106.236562,6.40885751 103.590618,6.80921741 C102.965099,6.90454119 102.342083,7.05197531 101.73533,7.233726 C101.387541,7.33794667 101.365023,7.58833048 101.661519,7.80948166 C101.911726,7.9950453 102.186954,8.175525 102.478446,8.26576485 C103.613137,8.6152854 104.752831,8.95590906 105.902535,9.24569337 C106.726968,9.45286373 107.571418,9.57487817 108.423374,9.7375641 C108.417119,9.823991 108.420872,9.90025003 108.40586,9.97142512 C107.676505,13.5454316 106.978427,17.125793 106.6444,20.7671616 C106.589354,21.365795 106.606869,21.9720542 106.626885,22.5732296 C106.631889,22.7206637 106.750738,22.9074983 106.87459,22.9913832 C106.937142,23.0333257 107.157325,22.9138532 107.248651,22.8121745 C107.518875,22.5147643 107.811617,22.2198961 108.003026,21.8716465 C109.071412,19.9283123 110.114777,17.9697262 111.160644,16.0136821 C111.355806,15.6489098 111.527198,15.2701566 111.739874,14.8380221 L111.741125,14.8342092 Z" id="Fill-10"></path>
            <path d="M129.985,2.21715291 C129.874909,3.48432377 130.838207,4.64981592 132.089245,4.76293348 C133.401583,4.88113497 134.493738,3.89103858 134.621344,2.46499475 C134.72518,1.3071285 133.745618,0.122571595 132.593413,0.0132669873 C131.177238,-0.121457296 130.110104,0.780941207 129.983749,2.21715291 L129.985,2.21715291 Z M132.285657,14.8342092 C132.369477,14.9943531 132.420769,15.0884059 132.468309,15.1850007 C133.101334,16.4458166 133.68807,17.7320522 134.377392,18.9610936 C135.076721,20.2066577 135.862373,21.4026535 136.641769,22.5986492 C136.76437,22.7867549 137.05336,22.8617429 137.264785,22.9888413 C137.341099,22.7600642 137.491223,22.5274742 137.481215,22.301239 C137.437428,21.2501354 137.424918,20.1888639 137.263534,19.1530121 C136.840684,16.4356488 136.346524,13.7309952 135.879887,11.0212577 C135.806076,10.5954782 135.734767,10.1684276 135.659705,9.7299382 C135.828595,9.69689262 135.953698,9.66765999 136.080053,9.64732425 C137.807735,9.35881092 139.515401,8.9838707 141.174277,8.40811504 C141.549588,8.2772037 141.912388,8.09926597 142.260177,7.90480545 C142.392787,7.83108839 142.55417,7.63916983 142.542911,7.51715539 C142.531652,7.39514094 142.33649,7.24770682 142.192621,7.19178353 C141.892372,7.07485302 141.57711,6.98334219 141.260598,6.92996087 C138.234339,6.41775439 135.176804,6.31226274 132.119269,6.31352244 C129.452058,6.31480471 126.781094,6.40885751 124.13515,6.80921741 C123.509632,6.90454119 122.886615,7.05197531 122.279862,7.233726 C121.932074,7.33794667 121.909555,7.58833048 122.206051,7.80948166 C122.456258,7.9950453 122.731487,8.175525 123.022978,8.26576485 C124.157669,8.6152854 125.297364,8.95590906 126.447067,9.24569337 C127.2715,9.45286373 128.115951,9.57487817 128.967907,9.7375641 C128.961652,9.823991 128.965405,9.90025003 128.950392,9.97142512 C128.221038,13.5454316 127.522959,17.125793 127.188932,20.7671616 C127.133886,21.365795 127.151401,21.9720542 127.171417,22.5732296 C127.176422,22.7206637 127.29527,22.9074983 127.419123,22.9913832 C127.481675,23.0333257 127.701857,22.9138532 127.793183,22.8121745 C128.063407,22.5147643 128.35615,22.2198961 128.547558,21.8716465 C129.615944,19.9283123 130.659309,17.9697262 131.705176,16.0136821 C131.900338,15.6489098 132.07173,15.2701566 132.284406,14.8380221 L132.285657,14.8342092 Z" id="Fill-13"></path>
            <path d="M150.107933,2.21715291 C149.997842,3.48432377 150.96114,4.64981592 152.212177,4.76293348 C153.524515,4.88113497 154.616671,3.89103858 154.744277,2.46499475 C154.848113,1.3071285 153.868551,0.122571595 152.716345,0.0132669873 C151.300171,-0.121457296 150.233037,0.780941207 150.106682,2.21715291 L150.107933,2.21715291 Z M152.40859,14.8342092 C152.49241,14.9943531 152.543702,15.0884059 152.591242,15.1850007 C153.224267,16.4458166 153.811003,17.7320522 154.500324,18.9610936 C155.199654,20.2066577 155.985306,21.4026535 156.764702,22.5986492 C156.887303,22.7867549 157.176293,22.8617429 157.387718,22.9888413 C157.464031,22.7600642 157.614156,22.5274742 157.604148,22.301239 C157.560361,21.2501354 157.547851,20.1888639 157.386467,19.1530121 C156.963617,16.4356488 156.469457,13.7309952 156.00282,11.0212577 C155.929009,10.5954782 155.8577,10.1684276 155.782638,9.7299382 C155.951528,9.69689262 156.076631,9.66765999 156.202986,9.64732425 C157.930668,9.35881092 159.638334,8.9838707 161.297209,8.40811504 C161.672521,8.2772037 162.035321,8.09926597 162.38311,7.90480545 C162.51572,7.83108839 162.677103,7.63916983 162.665844,7.51715539 C162.654585,7.39514094 162.459423,7.24770682 162.315554,7.19178353 C162.015305,7.07485302 161.700043,6.98334219 161.383531,6.92996087 C158.357272,6.41775439 155.299737,6.31226274 152.242202,6.31352244 C149.574991,6.31480471 146.904027,6.40885751 144.258083,6.80921741 C143.632565,6.90454119 143.009548,7.05197531 142.402795,7.233726 C142.055007,7.33794667 142.032488,7.58833048 142.328984,7.80948166 C142.579191,7.9950453 142.854419,8.175525 143.145911,8.26576485 C144.280602,8.6152854 145.420297,8.95590906 146.57,9.24569337 C147.394433,9.45286373 148.238883,9.57487817 149.09084,9.7375641 C149.084585,9.823991 149.088338,9.90025003 149.073325,9.97142512 C148.343971,13.5454316 147.645892,17.125793 147.311865,20.7671616 C147.256819,21.365795 147.274334,21.9720542 147.29435,22.5732296 C147.299354,22.7206637 147.418203,22.9074983 147.542056,22.9913832 C147.604608,23.0333257 147.82479,22.9138532 147.916116,22.8121745 C148.18634,22.5147643 148.479083,22.2198961 148.670491,21.8716465 C149.738877,19.9283123 150.782242,17.9697262 151.828109,16.0136821 C152.023271,15.6489098 152.194663,15.2701566 152.407339,14.8380221 L152.40859,14.8342092 Z" id="Fill-16"></path>
            <path d="M170.651227,2.21715291 C170.541136,3.48432377 171.504434,4.64981592 172.755471,4.76293348 C174.067809,4.88113497 175.159965,3.89103858 175.287571,2.46499475 C175.391407,1.3071285 174.411845,0.122571595 173.259639,0.0132669873 C171.843465,-0.121457296 170.77633,0.780941207 170.649976,2.21715291 L170.651227,2.21715291 Z M172.951884,14.8342092 C173.035704,14.9943531 173.086996,15.0884059 173.134536,15.1850007 C173.76756,16.4458166 174.354297,17.7320522 175.043618,18.9610936 C175.742948,20.2066577 176.528599,21.4026535 177.307996,22.5986492 C177.430597,22.7867549 177.719587,22.8617429 177.931012,22.9888413 C178.007325,22.7600642 178.15745,22.5274742 178.147441,22.301239 C178.103655,21.2501354 178.091145,20.1888639 177.929761,19.1530121 C177.50691,16.4356488 177.012751,13.7309952 176.546114,11.0212577 C176.472303,10.5954782 176.400994,10.1684276 176.325931,9.7299382 C176.494821,9.69689262 176.619925,9.66765999 176.74628,9.64732425 C178.473962,9.35881092 180.181628,8.9838707 181.840503,8.40811504 C182.215814,8.2772037 182.578615,8.09926597 182.926403,7.90480545 C183.059013,7.83108839 183.220397,7.63916983 183.209138,7.51715539 C183.197879,7.39514094 183.002717,7.24770682 182.858847,7.19178353 C182.558599,7.07485302 182.243337,6.98334219 181.926825,6.92996087 C178.900566,6.41775439 175.843031,6.31226274 172.785496,6.31352244 C170.118285,6.31480471 167.447321,6.40885751 164.801377,6.80921741 C164.175858,6.90454119 163.552842,7.05197531 162.946089,7.233726 C162.598301,7.33794667 162.575782,7.58833048 162.872278,7.80948166 C163.122485,7.9950453 163.397713,8.175525 163.689205,8.26576485 C164.823896,8.6152854 165.963591,8.95590906 167.113294,9.24569337 C167.937727,9.45286373 168.782177,9.57487817 169.634134,9.7375641 C169.627878,9.823991 169.631631,9.90025003 169.616619,9.97142512 C168.887264,13.5454316 168.189186,17.125793 167.855159,20.7671616 C167.800113,21.365795 167.817628,21.9720542 167.837644,22.5732296 C167.842648,22.7206637 167.961497,22.9074983 168.08535,22.9913832 C168.147901,23.0333257 168.368084,22.9138532 168.45941,22.8121745 C168.729634,22.5147643 169.022376,22.2198961 169.213785,21.8716465 C170.282171,19.9283123 171.325536,17.9697262 172.371403,16.0136821 C172.566565,15.6489098 172.737957,15.2701566 172.950633,14.8380221 L172.951884,14.8342092 Z" id="Fill-19"></path>
            <path d="M190.77416,2.21715291 C190.664068,3.48432377 191.627367,4.64981592 192.878404,4.76293348 C194.190742,4.88113497 195.282898,3.89103858 195.410503,2.46499475 C195.514339,1.3071285 194.534777,0.122571595 193.382572,0.0132669873 C191.966398,-0.121457296 190.899263,0.780941207 190.772909,2.21715291 L190.77416,2.21715291 Z M193.074817,14.8342092 C193.158636,14.9943531 193.209929,15.0884059 193.257468,15.1850007 C193.890493,16.4458166 194.47723,17.7320522 195.166551,18.9610936 C195.865881,20.2066577 196.651532,21.4026535 197.430928,22.5986492 C197.55353,22.7867549 197.84252,22.8617429 198.053945,22.9888413 C198.130258,22.7600642 198.280383,22.5274742 198.270374,22.301239 C198.226588,21.2501354 198.214078,20.1888639 198.052694,19.1530121 C197.629843,16.4356488 197.135684,13.7309952 196.669047,11.0212577 C196.595236,10.5954782 196.523926,10.1684276 196.448864,9.7299382 C196.617754,9.69689262 196.742858,9.66765999 196.869213,9.64732425 C198.596895,9.35881092 200.304561,8.9838707 201.963436,8.40811504 C202.338747,8.2772037 202.701548,8.09926597 203.049336,7.90480545 C203.181946,7.83108839 203.34333,7.63916983 203.332071,7.51715539 C203.320811,7.39514094 203.12565,7.24770682 202.98178,7.19178353 C202.681531,7.07485302 202.36627,6.98334219 202.049758,6.92996087 C199.023499,6.41775439 195.965964,6.31226274 192.908429,6.31352244 C190.241218,6.31480471 187.570253,6.40885751 184.92431,6.80921741 C184.298791,6.90454119 183.675775,7.05197531 183.069022,7.233726 C182.721233,7.33794667 182.698715,7.58833048 182.995211,7.80948166 C183.245418,7.9950453 183.520646,8.175525 183.812138,8.26576485 C184.946828,8.6152854 186.086523,8.95590906 187.236227,9.24569337 C188.06066,9.45286373 188.90511,9.57487817 189.757066,9.7375641 C189.750811,9.823991 189.754564,9.90025003 189.739552,9.97142512 C189.010197,13.5454316 188.312118,17.125793 187.978092,20.7671616 C187.923046,21.365795 187.94056,21.9720542 187.960577,22.5732296 C187.965581,22.7206637 188.08443,22.9074983 188.208282,22.9913832 C188.270834,23.0333257 188.491017,22.9138532 188.582343,22.8121745 C188.852567,22.5147643 189.145309,22.2198961 189.336718,21.8716465 C190.405104,19.9283123 191.448469,17.9697262 192.494336,16.0136821 C192.689498,15.6489098 192.86089,15.2701566 193.073566,14.8380221 L193.074817,14.8342092 Z" id="Fill-22"></path>
            <path d="M211.317428,2.21715291 C211.207337,3.48432377 212.170636,4.64981592 213.421673,4.76293348 C214.734011,4.88113497 215.826166,3.89103858 215.953772,2.46499475 C216.057608,1.3071285 215.078046,0.122571595 213.925841,0.0132669873 C212.509667,-0.121457296 211.442532,0.780941207 211.316177,2.21715291 L211.317428,2.21715291 Z M213.618086,14.8342092 C213.701905,14.9943531 213.753198,15.0884059 213.800737,15.1850007 C214.433762,16.4458166 215.020498,17.7320522 215.70982,18.9610936 C216.40915,20.2066577 217.194801,21.4026535 217.974197,22.5986492 C218.096799,22.7867549 218.385788,22.8617429 218.597214,22.9888413 C218.673527,22.7600642 218.823651,22.5274742 218.813643,22.301239 C218.769857,21.2501354 218.757346,20.1888639 218.595963,19.1530121 C218.173112,16.4356488 217.678952,13.7309952 217.212316,11.0212577 C217.138504,10.5954782 217.067195,10.1684276 216.992133,9.7299382 C217.161023,9.69689262 217.286127,9.66765999 217.412482,9.64732425 C219.140164,9.35881092 220.84783,8.9838707 222.506705,8.40811504 C222.882016,8.2772037 223.244817,8.09926597 223.592605,7.90480545 C223.725215,7.83108839 223.886599,7.63916983 223.87534,7.51715539 C223.86408,7.39514094 223.668918,7.24770682 223.525049,7.19178353 C223.2248,7.07485302 222.909539,6.98334219 222.593026,6.92996087 C219.566768,6.41775439 216.509233,6.31226274 213.451698,6.31352244 C210.784487,6.31480471 208.113522,6.40885751 205.467579,6.80921741 C204.84206,6.90454119 204.219044,7.05197531 203.612291,7.233726 C203.264502,7.33794667 203.241984,7.58833048 203.538479,7.80948166 C203.788687,7.9950453 204.063915,8.175525 204.355407,8.26576485 C205.490097,8.6152854 206.629792,8.95590906 207.779495,9.24569337 C208.603929,9.45286373 209.448379,9.57487817 210.300335,9.7375641 C210.29408,9.823991 210.297833,9.90025003 210.282821,9.97142512 C209.553466,13.5454316 208.855387,17.125793 208.52136,20.7671616 C208.466315,21.365795 208.483829,21.9720542 208.503846,22.5732296 C208.50885,22.7206637 208.627699,22.9074983 208.751551,22.9913832 C208.814103,23.0333257 209.034286,22.9138532 209.125611,22.8121745 C209.395835,22.5147643 209.688578,22.2198961 209.879987,21.8716465 C210.948372,19.9283123 211.991737,17.9697262 213.037605,16.0136821 C213.232766,15.6489098 213.404158,15.2701566 213.616835,14.8380221 L213.618086,14.8342092 Z" id="Fill-25"></path>
            <path d="M231.440374,2.21715291 C231.330283,3.48432377 232.293581,4.64981592 233.544618,4.76293348 C234.856956,4.88113497 235.949112,3.89103858 236.076718,2.46499475 C236.180554,1.3071285 235.200992,0.122571595 234.048786,0.0132669873 C232.632612,-0.121457296 231.565478,0.780941207 231.439123,2.21715291 L231.440374,2.21715291 Z M233.741031,14.8342092 C233.824851,14.9943531 233.876143,15.0884059 233.923683,15.1850007 C234.556707,16.4458166 235.143444,17.7320522 235.832765,18.9610936 C236.532095,20.2066577 237.317746,21.4026535 238.097143,22.5986492 C238.219744,22.7867549 238.508734,22.8617429 238.720159,22.9888413 C238.796472,22.7600642 238.946597,22.5274742 238.936589,22.301239 C238.892802,21.2501354 238.880292,20.1888639 238.718908,19.1530121 C238.296058,16.4356488 237.801898,13.7309952 237.335261,11.0212577 C237.26145,10.5954782 237.190141,10.1684276 237.115078,9.7299382 C237.283968,9.69689262 237.409072,9.66765999 237.535427,9.64732425 C239.263109,9.35881092 240.970775,8.9838707 242.62965,8.40811504 C243.004961,8.2772037 243.367762,8.09926597 243.715551,7.90480545 C243.84816,7.83108839 244.009544,7.63916983 243.998285,7.51715539 C243.987026,7.39514094 243.791864,7.24770682 243.647995,7.19178353 C243.347746,7.07485302 243.032484,6.98334219 242.715972,6.92996087 C239.689713,6.41775439 236.632178,6.31226274 233.574643,6.31352244 C230.907432,6.31480471 228.236468,6.40885751 225.590524,6.80921741 C224.965005,6.90454119 224.341989,7.05197531 223.735236,7.233726 C223.387448,7.33794667 223.364929,7.58833048 223.661425,7.80948166 C223.911632,7.9950453 224.18686,8.175525 224.478352,8.26576485 C225.613043,8.6152854 226.752738,8.95590906 227.902441,9.24569337 C228.726874,9.45286373 229.571324,9.57487817 230.423281,9.7375641 C230.417025,9.823991 230.420779,9.90025003 230.405766,9.97142512 C229.676411,13.5454316 228.978333,17.125793 228.644306,20.7671616 C228.58926,21.365795 228.606775,21.9720542 228.626791,22.5732296 C228.631795,22.7206637 228.750644,22.9074983 228.874497,22.9913832 C228.937048,23.0333257 229.157231,22.9138532 229.248557,22.8121745 C229.518781,22.5147643 229.811523,22.2198961 230.002932,21.8716465 C231.071318,19.9283123 232.114683,17.9697262 233.16055,16.0136821 C233.355712,15.6489098 233.527104,15.2701566 233.73978,14.8380221 L233.741031,14.8342092 Z" id="Fill-28"></path>
            <path d="M251.984906,2.21715291 C251.874815,3.48432377 252.838114,4.64981592 254.089151,4.76293348 C255.401489,4.88113497 256.493644,3.89103858 256.62125,2.46499475 C256.725086,1.3071285 255.745524,0.122571595 254.593319,0.0132669873 C253.177145,-0.121457296 252.11001,0.780941207 251.983655,2.21715291 L251.984906,2.21715291 Z M254.285564,14.8342092 C254.369383,14.9943531 254.420676,15.0884059 254.468215,15.1850007 C255.10124,16.4458166 255.687976,17.7320522 256.377298,18.9610936 C257.076627,20.2066577 257.862279,21.4026535 258.641675,22.5986492 C258.764277,22.7867549 259.053266,22.8617429 259.264691,22.9888413 C259.341005,22.7600642 259.491129,22.5274742 259.481121,22.301239 C259.437335,21.2501354 259.424824,20.1888639 259.26344,19.1530121 C258.84059,16.4356488 258.34643,13.7309952 257.879793,11.0212577 C257.805982,10.5954782 257.734673,10.1684276 257.659611,9.7299382 C257.828501,9.69689262 257.953605,9.66765999 258.079959,9.64732425 C259.807642,9.35881092 261.515307,8.9838707 263.174183,8.40811504 C263.549494,8.2772037 263.912295,8.09926597 264.260083,7.90480545 C264.392693,7.83108839 264.554077,7.63916983 264.542817,7.51715539 C264.531558,7.39514094 264.336396,7.24770682 264.192527,7.19178353 C263.892278,7.07485302 263.577017,6.98334219 263.260504,6.92996087 C260.234245,6.41775439 257.17671,6.31226274 254.119176,6.31352244 C251.451964,6.31480471 248.781,6.40885751 246.135056,6.80921741 C245.509538,6.90454119 244.886521,7.05197531 244.279768,7.233726 C243.93198,7.33794667 243.909461,7.58833048 244.205957,7.80948166 C244.456165,7.9950453 244.731393,8.175525 245.022884,8.26576485 C246.157575,8.6152854 247.29727,8.95590906 248.446973,9.24569337 C249.271407,9.45286373 250.115857,9.57487817 250.967813,9.7375641 C250.961558,9.823991 250.965311,9.90025003 250.950298,9.97142512 C250.220944,13.5454316 249.522865,17.125793 249.188838,20.7671616 C249.133792,21.365795 249.151307,21.9720542 249.171324,22.5732296 C249.176328,22.7206637 249.295176,22.9074983 249.419029,22.9913832 C249.481581,23.0333257 249.701763,22.9138532 249.793089,22.8121745 C250.063313,22.5147643 250.356056,22.2198961 250.547464,21.8716465 C251.61585,19.9283123 252.659215,17.9697262 253.705082,16.0136821 C253.900244,15.6489098 254.071636,15.2701566 254.284313,14.8380221 L254.285564,14.8342092 Z" id="Fill-31"></path>
            <path d="M272.107839,2.21715291 C271.997748,3.48432377 272.961046,4.64981592 274.212084,4.76293348 C275.524422,4.88113497 276.616577,3.89103858 276.744183,2.46499475 C276.848019,1.3071285 275.868457,0.122571595 274.716252,0.0132669873 C273.300077,-0.121457296 272.232943,0.780941207 272.106588,2.21715291 L272.107839,2.21715291 Z M274.408496,14.8342092 C274.492316,14.9943531 274.543608,15.0884059 274.591148,15.1850007 C275.224173,16.4458166 275.810909,17.7320522 276.500231,18.9610936 C277.19956,20.2066577 277.985212,21.4026535 278.764608,22.5986492 C278.887209,22.7867549 279.176199,22.8617429 279.387624,22.9888413 C279.463938,22.7600642 279.614062,22.5274742 279.604054,22.301239 C279.560267,21.2501354 279.547757,20.1888639 279.386373,19.1530121 C278.963523,16.4356488 278.469363,13.7309952 278.002726,11.0212577 C277.928915,10.5954782 277.857606,10.1684276 277.782544,9.7299382 C277.951434,9.69689262 278.076537,9.66765999 278.202892,9.64732425 C279.930574,9.35881092 281.63824,8.9838707 283.297115,8.40811504 C283.672427,8.2772037 284.035227,8.09926597 284.383016,7.90480545 C284.515626,7.83108839 284.677009,7.63916983 284.66575,7.51715539 C284.654491,7.39514094 284.459329,7.24770682 284.31546,7.19178353 C284.015211,7.07485302 283.699949,6.98334219 283.383437,6.92996087 C280.357178,6.41775439 277.299643,6.31226274 274.242108,6.31352244 C271.574897,6.31480471 268.903933,6.40885751 266.257989,6.80921741 C265.632471,6.90454119 265.009454,7.05197531 264.402701,7.233726 C264.054913,7.33794667 264.032394,7.58833048 264.32889,7.80948166 C264.579097,7.9950453 264.854326,8.175525 265.145817,8.26576485 C266.280508,8.6152854 267.420203,8.95590906 268.569906,9.24569337 C269.394339,9.45286373 270.23879,9.57487817 271.090746,9.7375641 C271.084491,9.823991 271.088244,9.90025003 271.073231,9.97142512 C270.343877,13.5454316 269.645798,17.125793 269.311771,20.7671616 C269.256725,21.365795 269.27424,21.9720542 269.294256,22.5732296 C269.299261,22.7206637 269.418109,22.9074983 269.541962,22.9913832 C269.604514,23.0333257 269.824696,22.9138532 269.916022,22.8121745 C270.186246,22.5147643 270.478989,22.2198961 270.670397,21.8716465 C271.738783,19.9283123 272.782148,17.9697262 273.828015,16.0136821 C274.023177,15.6489098 274.194569,15.2701566 274.407245,14.8380221 L274.408496,14.8342092 Z" id="Fill-34"></path>
            <path d="M292.651108,2.21715291 C292.541017,3.48432377 293.504315,4.64981592 294.755352,4.76293348 C296.06769,4.88113497 297.159846,3.89103858 297.287452,2.46499475 C297.391288,1.3071285 296.411726,0.122571595 295.25952,0.0132669873 C293.843346,-0.121457296 292.776212,0.780941207 292.649857,2.21715291 L292.651108,2.21715291 Z M294.951765,14.8342092 C295.035585,14.9943531 295.086877,15.0884059 295.134417,15.1850007 C295.767441,16.4458166 296.354178,17.7320522 297.043499,18.9610936 C297.742829,20.2066577 298.52848,21.4026535 299.307877,22.5986492 C299.430478,22.7867549 299.719468,22.8617429 299.930893,22.9888413 C300.007206,22.7600642 300.157331,22.5274742 300.147323,22.301239 C300.103536,21.2501354 300.091026,20.1888639 299.929642,19.1530121 C299.506792,16.4356488 299.012632,13.7309952 298.545995,11.0212577 C298.472184,10.5954782 298.400875,10.1684276 298.325812,9.7299382 C298.494702,9.69689262 298.619806,9.66765999 298.746161,9.64732425 C300.473843,9.35881092 302.181509,8.9838707 303.840384,8.40811504 C304.215695,8.2772037 304.578496,8.09926597 304.926285,7.90480545 C305.058895,7.83108839 305.220278,7.63916983 305.209019,7.51715539 C305.19776,7.39514094 305.002598,7.24770682 304.858729,7.19178353 C304.55848,7.07485302 304.243218,6.98334219 303.926706,6.92996087 C300.900447,6.41775439 297.842912,6.31226274 294.785377,6.31352244 C292.118166,6.31480471 289.447202,6.40885751 286.801258,6.80921741 C286.175739,6.90454119 285.552723,7.05197531 284.94597,7.233726 C284.598182,7.33794667 284.575663,7.58833048 284.872159,7.80948166 C285.122366,7.9950453 285.397594,8.175525 285.689086,8.26576485 C286.823777,8.6152854 287.963472,8.95590906 289.113175,9.24569337 C289.937608,9.45286373 290.782058,9.57487817 291.634015,9.7375641 C291.627759,9.823991 291.631513,9.90025003 291.6165,9.97142512 C290.887145,13.5454316 290.189067,17.125793 289.85504,20.7671616 C289.799994,21.365795 289.817509,21.9720542 289.837525,22.5732296 C289.842529,22.7206637 289.961378,22.9074983 290.085231,22.9913832 C290.147783,23.0333257 290.367965,22.9138532 290.459291,22.8121745 C290.729515,22.5147643 291.022257,22.2198961 291.213666,21.8716465 C292.282052,19.9283123 293.325417,17.9697262 294.371284,16.0136821 C294.566446,15.6489098 294.737838,15.2701566 294.950514,14.8380221 L294.951765,14.8342092 Z" id="Fill-37"></path>
            <path d="M312.774053,2.21715291 C312.663962,3.48432377 313.627261,4.64981592 314.878298,4.76293348 C316.190636,4.88113497 317.282791,3.89103858 317.410397,2.46499475 C317.514233,1.3071285 316.534671,0.122571595 315.382466,0.0132669873 C313.966292,-0.121457296 312.899157,0.780941207 312.772802,2.21715291 L312.774053,2.21715291 Z M315.074711,14.8342092 C315.15853,14.9943531 315.209823,15.0884059 315.257362,15.1850007 C315.890387,16.4458166 316.477123,17.7320522 317.166445,18.9610936 C317.865775,20.2066577 318.651426,21.4026535 319.430822,22.5986492 C319.553424,22.7867549 319.842413,22.8617429 320.053839,22.9888413 C320.130152,22.7600642 320.280276,22.5274742 320.270268,22.301239 C320.226482,21.2501354 320.213971,20.1888639 320.052587,19.1530121 C319.629737,16.4356488 319.135577,13.7309952 318.66894,11.0212577 C318.595129,10.5954782 318.52382,10.1684276 318.448758,9.7299382 C318.617648,9.69689262 318.742752,9.66765999 318.869106,9.64732425 C320.596789,9.35881092 322.304454,8.9838707 323.96333,8.40811504 C324.338641,8.2772037 324.701442,8.09926597 325.04923,7.90480545 C325.18184,7.83108839 325.343224,7.63916983 325.331964,7.51715539 C325.320705,7.39514094 325.125543,7.24770682 324.981674,7.19178353 C324.681425,7.07485302 324.366164,6.98334219 324.049651,6.92996087 C321.023392,6.41775439 317.965857,6.31226274 314.908323,6.31352244 C312.241111,6.31480471 309.570147,6.40885751 306.924203,6.80921741 C306.298685,6.90454119 305.675668,7.05197531 305.068915,7.233726 C304.721127,7.33794667 304.698608,7.58833048 304.995104,7.80948166 C305.245312,7.9950453 305.52054,8.175525 305.812031,8.26576485 C306.946722,8.6152854 308.086417,8.95590906 309.23612,9.24569337 C310.060554,9.45286373 310.905004,9.57487817 311.75696,9.7375641 C311.750705,9.823991 311.754458,9.90025003 311.739446,9.97142512 C311.010091,13.5454316 310.312012,17.125793 309.977985,20.7671616 C309.92294,21.365795 309.940454,21.9720542 309.960471,22.5732296 C309.965475,22.7206637 310.084323,22.9074983 310.208176,22.9913832 C310.270728,23.0333257 310.49091,22.9138532 310.582236,22.8121745 C310.85246,22.5147643 311.145203,22.2198961 311.336612,21.8716465 C312.404997,19.9283123 313.448362,17.9697262 314.494229,16.0136821 C314.689391,15.6489098 314.860783,15.2701566 315.07346,14.8380221 L315.074711,14.8342092 Z" id="Fill-40"></path>
            <path d="M333.318586,2.21715291 C333.208494,3.48432377 334.171793,4.64981592 335.42283,4.76293348 C336.735168,4.88113497 337.827324,3.89103858 337.954929,2.46499475 C338.058765,1.3071285 337.079203,0.122571595 335.926998,0.0132669873 C334.510824,-0.121457296 333.443689,0.780941207 333.317335,2.21715291 L333.318586,2.21715291 Z M335.619243,14.8342092 C335.703062,14.9943531 335.754355,15.0884059 335.801894,15.1850007 C336.434919,16.4458166 337.021656,17.7320522 337.710977,18.9610936 C338.410307,20.2066577 339.195958,21.4026535 339.975354,22.5986492 C340.097956,22.7867549 340.386946,22.8617429 340.598371,22.9888413 C340.674684,22.7600642 340.824809,22.5274742 340.8148,22.301239 C340.771014,21.2501354 340.758504,20.1888639 340.59712,19.1530121 C340.174269,16.4356488 339.68011,13.7309952 339.213473,11.0212577 C339.139662,10.5954782 339.068352,10.1684276 338.99329,9.7299382 C339.16218,9.69689262 339.287284,9.66765999 339.413639,9.64732425 C341.141321,9.35881092 342.848987,8.9838707 344.507862,8.40811504 C344.883173,8.2772037 345.245974,8.09926597 345.593762,7.90480545 C345.726372,7.83108839 345.887756,7.63916983 345.876497,7.51715539 C345.865237,7.39514094 345.670076,7.24770682 345.526206,7.19178353 C345.225957,7.07485302 344.910696,6.98334219 344.594184,6.92996087 C341.567925,6.41775439 338.51039,6.31226274 335.452855,6.31352244 C332.785644,6.31480471 330.114679,6.40885751 327.468736,6.80921741 C326.843217,6.90454119 326.220201,7.05197531 325.613448,7.233726 C325.265659,7.33794667 325.243141,7.58833048 325.539637,7.80948166 C325.789844,7.9950453 326.065072,8.175525 326.356564,8.26576485 C327.491254,8.6152854 328.630949,8.95590906 329.780653,9.24569337 C330.605086,9.45286373 331.449536,9.57487817 332.301492,9.7375641 C332.295237,9.823991 332.29899,9.90025003 332.283978,9.97142512 C331.554623,13.5454316 330.856544,17.125793 330.522518,20.7671616 C330.467472,21.365795 330.484986,21.9720542 330.505003,22.5732296 C330.510007,22.7206637 330.628856,22.9074983 330.752708,22.9913832 C330.81526,23.0333257 331.035443,22.9138532 331.126769,22.8121745 C331.396993,22.5147643 331.689735,22.2198961 331.881144,21.8716465 C332.94953,19.9283123 333.992895,17.9697262 335.038762,16.0136821 C335.233924,15.6489098 335.405316,15.2701566 335.617992,14.8380221 L335.619243,14.8342092 Z" id="Fill-43"></path>
            <path d="M353.441531,2.21715291 C353.33144,3.48432377 354.294738,4.64981592 355.545776,4.76293348 C356.858113,4.88113497 357.950269,3.89103858 358.077875,2.46499475 C358.181711,1.3071285 357.202149,0.122571595 356.049943,0.0132669873 C354.633769,-0.121457296 353.566635,0.780941207 353.44028,2.21715291 L353.441531,2.21715291 Z M355.742188,14.8342092 C355.826008,14.9943531 355.8773,15.0884059 355.92484,15.1850007 C356.557865,16.4458166 357.144601,17.7320522 357.833922,18.9610936 C358.533252,20.2066577 359.318904,21.4026535 360.0983,22.5986492 C360.220901,22.7867549 360.509891,22.8617429 360.721316,22.9888413 C360.79763,22.7600642 360.947754,22.5274742 360.937746,22.301239 C360.893959,21.2501354 360.881449,20.1888639 360.720065,19.1530121 C360.297215,16.4356488 359.803055,13.7309952 359.336418,11.0212577 C359.262607,10.5954782 359.191298,10.1684276 359.116236,9.7299382 C359.285126,9.69689262 359.410229,9.66765999 359.536584,9.64732425 C361.264266,9.35881092 362.971932,8.9838707 364.630807,8.40811504 C365.006119,8.2772037 365.368919,8.09926597 365.716708,7.90480545 C365.849318,7.83108839 366.010701,7.63916983 365.999442,7.51715539 C365.988183,7.39514094 365.793021,7.24770682 365.649152,7.19178353 C365.348903,7.07485302 365.033641,6.98334219 364.717129,6.92996087 C361.69087,6.41775439 358.633335,6.31226274 355.5758,6.31352244 C352.908589,6.31480471 350.237625,6.40885751 347.591681,6.80921741 C346.966163,6.90454119 346.343146,7.05197531 345.736393,7.233726 C345.388605,7.33794667 345.366086,7.58833048 345.662582,7.80948166 C345.912789,7.9950453 346.188017,8.175525 346.479509,8.26576485 C347.6142,8.6152854 348.753895,8.95590906 349.903598,9.24569337 C350.728031,9.45286373 351.572481,9.57487817 352.424438,9.7375641 C352.418183,9.823991 352.421936,9.90025003 352.406923,9.97142512 C351.677569,13.5454316 350.97949,17.125793 350.645463,20.7671616 C350.590417,21.365795 350.607932,21.9720542 350.627948,22.5732296 C350.632953,22.7206637 350.751801,22.9074983 350.875654,22.9913832 C350.938206,23.0333257 351.158388,22.9138532 351.249714,22.8121745 C351.519938,22.5147643 351.812681,22.2198961 352.004089,21.8716465 C353.072475,19.9283123 354.11584,17.9697262 355.161707,16.0136821 C355.356869,15.6489098 355.528261,15.2701566 355.740937,14.8380221 L355.742188,14.8342092 Z" id="Fill-46"></path>
            <path d="M373.985001,2.21715291 C373.874909,3.48432377 374.838208,4.64981592 376.089245,4.76293348 C377.401583,4.88113497 378.493739,3.89103858 378.621344,2.46499475 C378.72518,1.3071285 377.745618,0.122571595 376.593413,0.0132669873 C375.177239,-0.121457296 374.110104,0.780941207 373.98375,2.21715291 L373.985001,2.21715291 Z M376.285658,14.8342092 C376.369477,14.9943531 376.42077,15.0884059 376.468309,15.1850007 C377.101334,16.4458166 377.688071,17.7320522 378.377392,18.9610936 C379.076722,20.2066577 379.862373,21.4026535 380.641769,22.5986492 C380.764371,22.7867549 381.053361,22.8617429 381.264786,22.9888413 C381.341099,22.7600642 381.491224,22.5274742 381.481215,22.301239 C381.437429,21.2501354 381.424919,20.1888639 381.263535,19.1530121 C380.840684,16.4356488 380.346525,13.7309952 379.879888,11.0212577 C379.806077,10.5954782 379.734767,10.1684276 379.659705,9.7299382 C379.828595,9.69689262 379.953699,9.66765999 380.080054,9.64732425 C381.807736,9.35881092 383.515402,8.9838707 385.174277,8.40811504 C385.549588,8.2772037 385.912389,8.09926597 386.260177,7.90480545 C386.392787,7.83108839 386.554171,7.63916983 386.542912,7.51715539 C386.531652,7.39514094 386.336491,7.24770682 386.192621,7.19178353 C385.892372,7.07485302 385.577111,6.98334219 385.260599,6.92996087 C382.23434,6.41775439 379.176805,6.31226274 376.11927,6.31352244 C373.452059,6.31480471 370.781094,6.40885751 368.135151,6.80921741 C367.509632,6.90454119 366.886616,7.05197531 366.279863,7.233726 C365.932074,7.33794667 365.909556,7.58833048 366.206052,7.80948166 C366.456259,7.9950453 366.731487,8.175525 367.022979,8.26576485 C368.15767,8.6152854 369.297364,8.95590906 370.447068,9.24569337 C371.271501,9.45286373 372.115951,9.57487817 372.967907,9.7375641 C372.961652,9.823991 372.965405,9.90025003 372.950393,9.97142512 C372.221038,13.5454316 371.52296,17.125793 371.188933,20.7671616 C371.133887,21.365795 371.151401,21.9720542 371.171418,22.5732296 C371.176422,22.7206637 371.295271,22.9074983 371.419123,22.9913832 C371.481675,23.0333257 371.701858,22.9138532 371.793184,22.8121745 C372.063408,22.5147643 372.35615,22.2198961 372.547559,21.8716465 C373.615945,19.9283123 374.65931,17.9697262 375.705177,16.0136821 C375.900339,15.6489098 376.071731,15.2701566 376.284407,14.8380221 L376.285658,14.8342092 Z" id="Fill-43"></path>
            <path d="M394.107946,2.21715291 C393.997855,3.48432377 394.961153,4.64981592 396.212191,4.76293348 C397.524529,4.88113497 398.616684,3.89103858 398.74429,2.46499475 C398.848126,1.3071285 397.868564,0.122571595 396.716359,0.0132669873 C395.300184,-0.121457296 394.23305,0.780941207 394.106695,2.21715291 L394.107946,2.21715291 Z M396.408603,14.8342092 C396.492423,14.9943531 396.543715,15.0884059 396.591255,15.1850007 C397.22428,16.4458166 397.811016,17.7320522 398.500338,18.9610936 C399.199667,20.2066577 399.985319,21.4026535 400.764715,22.5986492 C400.887316,22.7867549 401.176306,22.8617429 401.387731,22.9888413 C401.464045,22.7600642 401.614169,22.5274742 401.604161,22.301239 C401.560374,21.2501354 401.547864,20.1888639 401.38648,19.1530121 C400.96363,16.4356488 400.46947,13.7309952 400.002833,11.0212577 C399.929022,10.5954782 399.857713,10.1684276 399.782651,9.7299382 C399.951541,9.69689262 400.076644,9.66765999 400.202999,9.64732425 C401.930681,9.35881092 403.638347,8.9838707 405.297222,8.40811504 C405.672534,8.2772037 406.035334,8.09926597 406.383123,7.90480545 C406.515733,7.83108839 406.677116,7.63916983 406.665857,7.51715539 C406.654598,7.39514094 406.459436,7.24770682 406.315567,7.19178353 C406.015318,7.07485302 405.700056,6.98334219 405.383544,6.92996087 C402.357285,6.41775439 399.29975,6.31226274 396.242215,6.31352244 C393.575004,6.31480471 390.90404,6.40885751 388.258096,6.80921741 C387.632578,6.90454119 387.009561,7.05197531 386.402808,7.233726 C386.05502,7.33794667 386.032501,7.58833048 386.328997,7.80948166 C386.579204,7.9950453 386.854433,8.175525 387.145924,8.26576485 C388.280615,8.6152854 389.42031,8.95590906 390.570013,9.24569337 C391.394446,9.45286373 392.238896,9.57487817 393.090853,9.7375641 C393.084598,9.823991 393.088351,9.90025003 393.073338,9.97142512 C392.343984,13.5454316 391.645905,17.125793 391.311878,20.7671616 C391.256832,21.365795 391.274347,21.9720542 391.294363,22.5732296 C391.299368,22.7206637 391.418216,22.9074983 391.542069,22.9913832 C391.604621,23.0333257 391.824803,22.9138532 391.916129,22.8121745 C392.186353,22.5147643 392.479096,22.2198961 392.670504,21.8716465 C393.73889,19.9283123 394.782255,17.9697262 395.828122,16.0136821 C396.023284,15.6489098 396.194676,15.2701566 396.407352,14.8380221 L396.408603,14.8342092 Z" id="Fill-46"></path>
            <path d="M414.651333,2.21715291 C414.541242,3.48432377 415.504541,4.64981592 416.755578,4.76293348 C418.067916,4.88113497 419.160071,3.89103858 419.287677,2.46499475 C419.391513,1.3071285 418.411951,0.122571595 417.259746,0.0132669873 C415.843572,-0.121457296 414.776437,0.780941207 414.650082,2.21715291 L414.651333,2.21715291 Z M416.951991,14.8342092 C417.03581,14.9943531 417.087103,15.0884059 417.134642,15.1850007 C417.767667,16.4458166 418.354403,17.7320522 419.043725,18.9610936 C419.743054,20.2066577 420.528706,21.4026535 421.308102,22.5986492 C421.430704,22.7867549 421.719693,22.8617429 421.931118,22.9888413 C422.007432,22.7600642 422.157556,22.5274742 422.147548,22.301239 C422.103762,21.2501354 422.091251,20.1888639 421.929867,19.1530121 C421.507017,16.4356488 421.012857,13.7309952 420.54622,11.0212577 C420.472409,10.5954782 420.4011,10.1684276 420.326038,9.7299382 C420.494928,9.69689262 420.620031,9.66765999 420.746386,9.64732425 C422.474069,9.35881092 424.181734,8.9838707 425.84061,8.40811504 C426.215921,8.2772037 426.578722,8.09926597 426.92651,7.90480545 C427.05912,7.83108839 427.220504,7.63916983 427.209244,7.51715539 C427.197985,7.39514094 427.002823,7.24770682 426.858954,7.19178353 C426.558705,7.07485302 426.243444,6.98334219 425.926931,6.92996087 C422.900672,6.41775439 419.843137,6.31226274 416.785603,6.31352244 C414.118391,6.31480471 411.447427,6.40885751 408.801483,6.80921741 C408.175965,6.90454119 407.552948,7.05197531 406.946195,7.233726 C406.598407,7.33794667 406.575888,7.58833048 406.872384,7.80948166 C407.122591,7.9950453 407.39782,8.175525 407.689311,8.26576485 C408.824002,8.6152854 409.963697,8.95590906 411.1134,9.24569337 C411.937834,9.45286373 412.782284,9.57487817 413.63424,9.7375641 C413.627985,9.823991 413.631738,9.90025003 413.616725,9.97142512 C412.887371,13.5454316 412.189292,17.125793 411.855265,20.7671616 C411.800219,21.365795 411.817734,21.9720542 411.837751,22.5732296 C411.842755,22.7206637 411.961603,22.9074983 412.085456,22.9913832 C412.148008,23.0333257 412.36819,22.9138532 412.459516,22.8121745 C412.72974,22.5147643 413.022483,22.2198961 413.213891,21.8716465 C414.282277,19.9283123 415.325642,17.9697262 416.371509,16.0136821 C416.566671,15.6489098 416.738063,15.2701566 416.950739,14.8380221 L416.951991,14.8342092 Z" id="Fill-1"></path>
            <path d="M434.774253,2.21715291 C434.664162,3.48432377 435.627461,4.64981592 436.878498,4.76293348 C438.190836,4.88113497 439.282991,3.89103858 439.410597,2.46499475 C439.514433,1.3071285 438.534871,0.122571595 437.382666,0.0132669873 C435.966492,-0.121457296 434.899357,0.780941207 434.773002,2.21715291 L434.774253,2.21715291 Z M437.074911,14.8342092 C437.15873,14.9943531 437.210023,15.0884059 437.257562,15.1850007 C437.890587,16.4458166 438.477324,17.7320522 439.166645,18.9610936 C439.865975,20.2066577 440.651626,21.4026535 441.431022,22.5986492 C441.553624,22.7867549 441.842613,22.8617429 442.054039,22.9888413 C442.130352,22.7600642 442.280477,22.5274742 442.270468,22.301239 C442.226682,21.2501354 442.214172,20.1888639 442.052788,19.1530121 C441.629937,16.4356488 441.135777,13.7309952 440.669141,11.0212577 C440.595329,10.5954782 440.52402,10.1684276 440.448958,9.7299382 C440.617848,9.69689262 440.742952,9.66765999 440.869307,9.64732425 C442.596989,9.35881092 444.304655,8.9838707 445.96353,8.40811504 C446.338841,8.2772037 446.701642,8.09926597 447.04943,7.90480545 C447.18204,7.83108839 447.343424,7.63916983 447.332165,7.51715539 C447.320905,7.39514094 447.125743,7.24770682 446.981874,7.19178353 C446.681625,7.07485302 446.366364,6.98334219 446.049851,6.92996087 C443.023593,6.41775439 439.966058,6.31226274 436.908523,6.31352244 C434.241312,6.31480471 431.570347,6.40885751 428.924404,6.80921741 C428.298885,6.90454119 427.675869,7.05197531 427.069116,7.233726 C426.721327,7.33794667 426.698809,7.58833048 426.995304,7.80948166 C427.245512,7.9950453 427.52074,8.175525 427.812232,8.26576485 C428.946922,8.6152854 430.086617,8.95590906 431.23632,9.24569337 C432.060754,9.45286373 432.905204,9.57487817 433.75716,9.7375641 C433.750905,9.823991 433.754658,9.90025003 433.739646,9.97142512 C433.010291,13.5454316 432.312212,17.125793 431.978185,20.7671616 C431.92314,21.365795 431.940654,21.9720542 431.960671,22.5732296 C431.965675,22.7206637 432.084524,22.9074983 432.208376,22.9913832 C432.270928,23.0333257 432.491111,22.9138532 432.582436,22.8121745 C432.85266,22.5147643 433.145403,22.2198961 433.336812,21.8716465 C434.405198,19.9283123 435.448563,17.9697262 436.49443,16.0136821 C436.689591,15.6489098 436.860983,15.2701566 437.07366,14.8380221 L437.074911,14.8342092 Z" id="Fill-4"></path>
        </g>
    </g>
</svg>