<?xml version="1.0" encoding="UTF-8"?>
<svg width="1920px" height="532.5px" viewBox="0 0 1920 532.5" version="1.1" xmlns="http://www.w3.org/2000/svg" xmlns:xlink="http://www.w3.org/1999/xlink">
    <title>Group</title>
    <defs>
        <rect id="path-1" x="0" y="0" width="394" height="235"></rect>
        <rect id="path-3" x="0" y="0" width="254" height="276"></rect>
    </defs>
    <g id="Page-1" stroke="none" stroke-width="1" fill="none" fill-rule="evenodd">
        <g id="Artboard" transform="translate(0, -146.5)">
            <g id="Group" transform="translate(0, 146.5)">
                <g id="Group-6" transform="translate(0, 10.5)">
                    <rect id="Rectangle-Copy-9" fill="#7DD8F1" x="440" y="16" width="254" height="162"></rect>
                    <rect id="Rectangle-Copy-10" fill="#7DD8F1" x="1504" y="259" width="416" height="242"></rect>
                    <g id="Group-14-Copy" transform="translate(1504, 0)">
                        <mask id="mask-2" fill="white">
                            <use xlink:href="#path-1"></use>
                        </mask>
                        <use id="Mask" fill="#DAA6BA" xlink:href="#path-1"></use>
                        <g mask="url(#mask-2)" opacity="0.25">
                            <g transform="translate(-466.3195, -11)">
                                <text id="-copy-3" font-family="FontAwesome6Pro-Regular, Font Awesome 6 Pro" font-size="40" font-weight="normal">
                                    <tspan x="0" y="75" fill="#FFFFFF"></tspan>
                                </text>
                                <text id="-copy-3" font-family="FontAwesome6Pro-Regular, Font Awesome 6 Pro" font-size="40" font-weight="normal">
                                    <tspan x="180.918688" y="75" fill="#FFFFFF"></tspan>
                                </text>
                                <text id="-copy-3" font-family="FontAwesome6Pro-Regular, Font Awesome 6 Pro" font-size="40" font-weight="normal">
                                    <tspan x="95.4593438" y="35" fill="#FFFFFF"></tspan>
                                </text>
                                <text id="-copy-2" font-family="FontAwesome6Pro-Regular, Font Awesome 6 Pro" font-size="40" font-weight="normal">
                                    <tspan x="95.4593438" y="211" fill="#FFFFFF"></tspan>
                                </text>
                                <text id="-copy-3" font-family="FontAwesome6Pro-Regular, Font Awesome 6 Pro" font-size="40" font-weight="normal">
                                    <tspan x="276.509986" y="35" fill="#FFFFFF"></tspan>
                                </text>
                                <text id="-copy-2" font-family="FontAwesome6Pro-Regular, Font Awesome 6 Pro" font-size="40" font-weight="normal">
                                    <tspan x="274.009986" y="211" fill="#FFFFFF"></tspan>
                                </text>
                                <text id="-copy-3" font-family="FontAwesome6Pro-Regular, Font Awesome 6 Pro" font-size="40" font-weight="normal">
                                    <tspan x="5" y="163" fill="#FFFFFF"></tspan>
                                </text>
                                <text id="-copy" font-family="FontAwesome6Pro-Regular, Font Awesome 6 Pro" font-size="40" font-weight="normal">
                                    <tspan x="2.5" y="251" fill="#FFFFFF"></tspan>
                                </text>
                                <text id="-copy-3" font-family="FontAwesome6Pro-Regular, Font Awesome 6 Pro" font-size="40" font-weight="normal">
                                    <tspan x="190.918688" y="163" fill="#FFFFFF"></tspan>
                                </text>
                                <text id="-copy" font-family="FontAwesome6Pro-Regular, Font Awesome 6 Pro" font-size="40" font-weight="normal">
                                    <tspan x="185.918688" y="251" fill="#FFFFFF"></tspan>
                                </text>
                                <text id="-copy-3" font-family="FontAwesome6Pro-Regular, Font Awesome 6 Pro" font-size="40" font-weight="normal">
                                    <tspan x="92.9593438" y="123" fill="#FFFFFF"></tspan>
                                </text>
                                <text id="-copy-3" font-family="FontAwesome6Pro-Regular, Font Awesome 6 Pro" font-size="40" font-weight="normal">
                                    <tspan x="274.009986" y="123" fill="#FFFFFF"></tspan>
                                </text>
                                <text id="-copy-3" font-family="FontAwesome6Pro-Regular, Font Awesome 6 Pro" font-size="40" font-weight="normal">
                                    <tspan x="357.365193" y="75" fill="#FFFFFF"></tspan>
                                </text>
                                <g id="-copy-3" stroke-width="1" fill-rule="evenodd" transform="translate(528.5478, 40)">
                                    <path d="M40.0859356,8.75 L33.1664038,8.75366449 C31.1953092,8.89233589 29.3812466,9.66694593 27.8765607,10.8396006 C27.850771,10.5480385 27.8027081,10.2547574 27.7193737,9.96304035 C27.3766398,8.76069546 26.5842175,7.76147604 25.4881239,7.15210199 C25.0785923,6.92366362 24.6373415,6.75858498 24.1818738,6.66171074 C24.9282026,5.04765034 24.7205448,3.07421207 23.4901547,1.63671017 C22.742188,0.685391426 21.6093755,0.108983517 20.3515625,0.0138831139 C20.234375,0.00457763672 20.1171875,0 19.992187,0 C18.8750005,0 17.7968752,0.401639938 16.945312,1.13125086 L15.3750002,2.47656345 C14.9017966,1.59453154 14.1507816,0.867187977 13.2093751,0.431249142 C12.5898445,0.146093369 11.9335938,0.00203132629 11.257031,0.00203132629 C9.42812443,0.00203132629 7.75078058,1.07625008 6.9835937,2.73874998 L1.2328124,15.6059372 C0.416094065,17.4453127 0,19.3984377 0,21.40625 C0,26.8343759 4.41640615,31.179688 9.84375,31.179688 L16.7632818,31.1760235 C18.7343752,31.0373521 20.548439,30.262742 22.0531249,29.090085 C22.0787573,29.3816471 22.1269774,29.6747732 22.2103119,29.9666476 C22.5530457,31.1689925 23.345468,32.1682096 24.4415617,32.777586 C24.8514056,33.0055547 25.2931237,33.1701636 25.7485938,33.2669616 C25.0017977,34.8810244 25.2092195,36.8552423 26.4398432,38.2927418 C27.2554684,39.2450857 28.3937502,39.8216486 29.6445298,39.9161792 C29.757812,39.929688 29.8828125,40 30.007813,40 C31.1242199,40 32.2054696,39.5988274 33.0531263,38.8703132 L34.6234393,37.5242186 C35.096643,38.4062505 35.8476591,39.133594 36.7890644,39.5695305 C37.4092197,39.8548436 38.0656266,39.9990606 38.7429714,39.9990606 C40.5710983,39.9990606 42.2476578,38.9248419 43.0148458,37.262342 L48.765626,24.3951559 C49.5859385,22.5546885 50,20.6015635 50,18.59375 C50,13.1640625 45.5859375,8.75 40.0859356,8.75 Z M24.6484375,12.0078135 C24.445312,12.3749995 24.1093755,12.640624 23.7109375,12.750001 L16.335938,14.859376 L18.239063,15.5014837 C20.1468754,16.1447644 21.6226578,17.5952339 22.2890639,19.4788277 C22.427032,19.8742962 22.4050021,20.2967954 22.2255874,20.6725788 C22.046876,21.0468745 21.726563,21.335938 21.335938,21.476562 C20.5234385,21.7578125 19.6328127,21.328125 19.3437505,20.5234385 C18.8671875,19.1796875 17.5937498,18.28125 16.171875,18.28125 C14.3203127,18.28125 12.8125,19.7890627 12.8125,21.570313 C12.8125,23.4218764 14.3203127,24.859376 16.171875,24.859376 C17.2953129,24.859376 18.3398438,24.301486 18.9648438,23.3656263 C19.4482815,22.6514864 20.4187489,22.4601579 21.1328125,22.9346895 C21.414063,23.3046865 21.648438,23.664062 21.796875,24.070313 C21.875,24.4843745 21.726563,24.8984385 21.5625,25.242188 C20.4671884,26.8781257 18.6117184,27.9812503 16.7210937,28.1203127 L9.84453082,28.121531 C6.13984346,28.121531 3.12421799,25.1074696 3.12421799,21.473093 C3.12421799,19.9035621 3.44890594,18.3801246 4.08984423,16.9465303 L9.82812524,4.10278082 C10.1796877,3.33863974 11.1500001,2.98559427 11.9046879,3.33371878 C12.2806251,3.50707769 12.5700009,3.81832838 12.7140629,4.21028137 C12.8592968,4.6033287 12.8434384,5.02668619 12.6688993,5.40559292 L9.94531274,11.25 L18.992188,3.4984374 C19.289062,3.24140549 19.695313,3.11328173 20.1015615,3.1289053 C20.537343,3.16186666 20.9171867,3.35476637 21.1882806,3.67210865 C21.4592957,3.9882803 21.5910935,4.39234257 21.558125,4.80882883 C21.5234375,5.22500038 21.335938,5.60390711 21.015625,5.87421894 L13.3203125,12.4687505 L22.8515625,9.74999905 C23.2580471,9.63648319 23.6765623,9.68530416 24.0382814,9.88429785 C24.4062495,10.085938 24.671874,10.4218745 24.781251,10.8203125 C24.8984385,11.2187505 24.851563,11.640625 24.6484375,12.0078135 Z M45.9062481,23.117187 L40.1679659,35.9609365 C39.9921846,36.3466406 39.6784353,36.636014 39.2828107,36.781249 C39.1093755,36.8437505 38.9296865,36.875 38.75,36.875 C38.5241413,36.875 38.3007812,36.8249536 38.0920315,36.7260933 C37.7185154,36.5539837 37.4292183,36.242733 37.2850013,35.8510923 C37.1397662,35.458045 37.1556258,35.0346851 37.3301649,34.6557808 L40.0575066,28.7464046 L31.0106325,36.4979672 C30.7029772,36.7628884 30.3001642,36.8983579 29.8871946,36.869061 C29.4587564,36.8360996 29.0793824,36.6432023 28.8082886,36.3258576 C28.5372734,36.009686 28.4054756,35.6056237 28.4384441,35.1891398 C28.4701777,34.7728896 28.6618042,34.3946075 28.9779758,34.1235137 L36.67485,27.5258589 L27.213912,30.2500772 C26.8208647,30.3672647 26.3959432,30.3208733 26.0264111,30.1146078 C25.660162,29.9095297 25.3965664,29.5762491 25.2829742,29.1755462 C25.1682091,28.7764049 25.2158332,28.3552337 25.4184437,27.9888272 C25.6210995,27.6238275 25.9531307,27.3589826 26.3536,27.2454667 L33.7317252,25.1376534 L31.828599,24.4955444 C29.9207854,23.8522625 28.4450054,22.4017954 27.7785993,20.5182004 C27.6406312,20.1227307 27.6626611,19.7002316 27.8420758,19.3244505 C28.0215287,18.9472628 28.3364511,18.6640596 28.7295747,18.5236692 C29.5631695,18.2404661 30.4350424,18.6652315 30.7256675,19.4721067 C31.2005115,20.8150744 32.4741054,21.7158556 33.8944173,21.7158556 C35.7459807,21.7158556 37.2537923,20.2080441 37.2537923,18.4267926 C37.2537923,16.6455412 35.7459807,15.1377296 33.8944173,15.1377296 C32.7709794,15.1377296 31.7264485,15.6956208 31.1014485,16.6314793 C30.6168389,17.3480415 29.6467614,17.5408542 28.9311361,17.0611668 C28.5856676,16.8292141 28.3500433,16.4752293 28.269496,16.065073 C28.1876993,15.6549168 28.2707143,15.2385104 28.503871,14.891634 C29.5991826,13.2556963 31.4546514,12.1525717 33.3452773,12.0135117 L40.221839,12.012291 C43.9265251,12.012291 46.942153,15.0263548 46.942153,18.6607289 C46.875,20.164063 46.546874,21.6875005 45.9062481,23.117187 Z" id="Shape" fill="#FFFFFF" fill-rule="nonzero"></path>
                                </g>
                                <g id="-copy-3" stroke-width="1" fill-rule="evenodd" transform="translate(440.5884, 2.5)">
                                    <path d="M40,0 L5,0 C2.23828077,0 0,2.23828077 0,5 L0,30 C0,32.7617192 2.23828077,35 5,35 L40,35 C42.7617168,35 45,32.7617192 45,30 L45,5 C45,2.23828077 42.7578115,0 40,0 Z M41.2499988,30 C41.2499988,30.689218 40.6892204,31.25 40,31.25 L5,31.25 C4.31078076,31.25 3.74999881,30.689218 3.74999881,30 L3.74999881,5 C3.74999881,4.31078196 4.31078076,3.75 5,3.75 L40,3.75 C40.6892204,3.75 41.2499988,4.31078196 41.2499988,5 L41.2499988,30 Z M18.4765625,14.851563 C19.2089844,15.5839849 20.3953123,15.5839849 21.1281252,14.851563 C21.8605471,14.1191411 21.8605471,12.9328132 21.1281252,12.2000003 C18.203125,9.2750001 13.4476566,9.2750001 10.5265629,12.2000003 C9.1015625,13.6093748 8.3203125,15.4999995 8.3203125,17.5 C8.3203125,19.5000005 9.03125048,21.3867188 10.5171883,22.8031254 C11.9796884,24.2656255 13.8984382,24.9968743 15.8195317,24.9968743 C17.7406251,24.9968743 19.660157,24.2657018 21.121875,22.8031254 C21.8542969,22.0707035 21.8542969,20.8843756 21.121875,20.1515627 C20.3894532,19.4191408 19.2031252,19.4191408 18.4703124,20.1515627 C17.0101559,21.6140628 14.6273434,21.6140628 13.167969,20.1515627 C12.4609387,19.445312 12.0703137,18.499999 12.0703137,17.5 C12.0703137,16.500001 12.4609387,15.5562496 13.168751,14.8484373 C14.6328139,13.3828127 17.0156264,13.3828127 18.4765637,14.851563 L18.4765625,14.851563 Z M33.4765637,14.851563 C34.2089856,15.5839849 35.3953135,15.5839849 36.1281264,14.851563 C36.8605483,14.1191411 36.8605483,12.9328132 36.1281264,12.2000003 C33.2031262,9.2750001 28.4476578,9.2750001 25.5265629,12.2000003 C24.1015637,13.6093748 23.3203137,15.4999995 23.3203137,17.5 C23.3203137,19.5000005 24.0312517,21.3867188 25.5171883,22.8031254 C26.9796884,24.2656255 28.8984382,24.9968743 30.8195317,24.9968743 C32.7406251,24.9968743 34.660157,24.2657018 36.121875,22.8031254 C36.8542969,22.0707035 36.8542969,20.8843756 36.121875,20.1515627 C35.3894532,19.4191408 34.2031252,19.4191408 33.4703124,20.1515627 C32.0101559,21.6140628 29.6273434,21.6140628 28.167969,20.1515627 C27.4609387,19.445312 27.0703137,18.499999 27.0703137,17.5 C27.0703137,16.500001 27.4609387,15.5562496 28.168751,14.8484373 C29.6328127,13.3828127 32.0156252,13.3828127 33.4765637,14.851563 Z" id="Shape" fill="#FFFFFF" fill-rule="nonzero"></path>
                                </g>
                                <g id="-copy-2" stroke-width="1" fill-rule="evenodd" transform="translate(448.0884, 176)">
                                    <path d="M22.6328146,0 C24.1250002,0 25.2031267,1.42656326 24.7968757,2.86015511 L20.6093752,17.5 L27.2734392,17.5 C28.7812507,17.5 30,18.7187505 30,20.226562 C30,21.031251 29.6484387,21.789062 29.0390646,22.3125005 L8.82031322,39.468751 C8.41406226,39.8125005 7.89843678,40 7.36484289,40 C5.87343693,40 4.79687452,38.5703135 5.20624995,37.1406245 L9.39062476,22.5 L2.63593793,22.5 C1.17968798,22.5 0,21.320312 0,19.8671877 C0,19.0937495 0.337109566,18.359375 0.922656059,17.8593755 L21.179688,0.538516045 C21.5859365,0.191016197 22.101562,0 22.6328135,0 L22.6328135,0 L22.6328146,0 Z M19.8125005,6.63984299 L5.65312505,18.75 L11.875,18.75 C12.4609375,18.75 13.0156255,19.0234375 13.3749998,19.4921875 C13.7265623,19.9687505 13.835938,20.5781245 13.679688,21.1406255 L10.1796877,33.3984375 L24.4921875,21.25 L18.125,21.25 C17.5390625,21.25 16.9843745,20.9765625 16.6250002,20.5078125 C16.2734377,20.0312495 16.164062,19.4218755 16.320312,18.8593745 L19.8125005,6.63984299 Z" id="Shape" fill="#FFFFFF" fill-rule="nonzero"></path>
                                </g>
                                <text id="-copy-3" font-family="FontAwesome6Pro-Regular, Font Awesome 6 Pro" font-size="40" font-weight="normal">
                                    <tspan x="621.507133" y="35" fill="#FFFFFF"></tspan>
                                </text>
                                <g id="-copy-2" stroke-width="1" fill-rule="evenodd" transform="translate(624.0071, 176)">
                                    <path d="M2.5,29.375 C2.5,29.3359375 2.5,29.289062 2.50078201,29.2499995 C0.956250429,27.671876 0,25.5156255 0,23.054688 C0,20.953126 0.790624619,18.9687502 2.09687471,17.4453127 C1.95234299,16.8593752 1.87499881,16.25 1.87499881,15.554688 C1.87499881,13.0781245 3.14531088,10.8281255 5.08827925,9.46875095 C5.43671727,7.21406221 6.78984284,5.29218674 8.67968678,4.17265654 C9.7265625,1.71875 12.1640623,0 15,0 C16.9687498,0 18.679688,0.828905106 20,2.15625048 C21.25,0.828905106 23.031249,0 25,0 C27.8359365,0 30.2734375,1.71875 31.320312,4.17265654 C33.210938,5.29218674 34.5624995,7.21406221 34.914062,9.46875095 C36.8515635,10.8281255 38.125,13.0781245 38.125,15.554688 C38.125,16.25 38.046875,16.8593752 37.906251,17.4453127 C39.210937,18.9687502 40,20.953126 40,23.054688 C40,25.5156255 39.046874,27.671876 37.429688,29.2499995 C37.429688,29.2734385 37.429688,29.289062 37.429688,29.312501 C37.5,29.3359375 37.5,29.3515635 37.5,29.375 C37.5,33.0703115 34.835937,36.1328125 31.320312,36.7578125 C30.0390625,38.7109375 27.828126,40 25.3125,40 C23.203125,40 21.312499,39.0937495 20,37.585938 C18.6874998,39.0937495 16.726563,40 14.6875,40 C12.1718752,40 9.9609375,38.7109375 8.67968678,36.7578125 C5.16718626,36.1328125 2.5,33.0703115 2.5,29.375 L2.5,29.375 Z M18.1249988,22.429688 L14.9999988,22.429688 C14.3124986,22.429688 13.7499988,23.062501 13.7499988,23.679688 L13.7499988,24.6328115 C14.8515618,25.1171875 15.6249988,26.2187505 15.6249988,27.5 C15.6249988,29.226563 14.2265618,30.625 12.4999988,30.625 C10.7734358,30.625 9.37499881,29.226563 9.37499881,27.5 C9.37499881,26.2187505 10.1484358,25.1171875 11.2499988,24.6328115 L11.2499988,23.679688 C11.2499988,21.679688 12.9296863,19.929688 14.9999988,19.929688 L18.1249988,19.929688 L18.1249988,12.429688 L16.6171861,12.429688 C16.1328113,13.601563 15.0312483,14.304688 13.7499988,14.304688 C12.0234358,14.304688 10.6249988,12.976563 10.6249988,11.179688 C10.6249988,9.52343702 12.0234358,8.05468798 13.7499988,8.05468798 C15.0312483,8.05468798 16.1328113,8.89843702 16.6171861,9.92968798 L18.1249988,9.92968798 L18.1249988,6.80468798 C18.1249988,5.14921904 16.7265618,3.67968798 14.9999988,3.67968798 C13.2734358,3.67968798 11.8749988,5.14921904 11.8749988,6.80468798 L11.8749988,6.92656279 C10.2578115,7.19765663 8.99999857,8.49999905 8.78124833,10.1328135 C8.75781059,10.296874 8.74999762,10.460937 8.74999762,10.554688 C8.74999762,11.0703135 8.75781059,11.500001 8.96874905,11.8984365 C8.35937381,11.960938 7.7945292,12.171874 7.30702877,12.492187 C6.4054656,13.0937505 5.77733994,14.070313 5.64921498,15.1953125 C5.63280821,15.3359377 5.62499523,15.4843748 5.62499523,15.554688 C5.62499523,16.7578125 6.13046408,17.7812505 6.92890167,18.4687495 C5.71718216,18.9374995 4.73593235,19.8749995 4.19843197,21.0546875 C3.91015053,21.6875005 3.67968202,22.3828125 3.67968202,23.125 C3.67968202,24.992187 4.77499485,26.624999 6.29296422,27.484374 C6.41249537,27.5468755 6.5351522,27.6093745 6.66015267,27.671876 C6.6132772,27.7578115 6.57030821,27.8515625 6.5304637,27.9453135 C6.34999514,28.3906245 6.24999523,28.8671875 6.24999523,29.375 C6.24999523,31.078124 7.3898387,32.5234365 8.95312071,32.976563 C9.28124666,33.0703115 9.63280916,33.125 9.99999642,33.125 C10.4374969,33.125 10.8593714,33.046875 11.2499964,32.9140615 C11.2734342,33.656249 11.5312469,34.3437505 11.9531214,34.8984385 C12.5859344,35.718751 13.5703087,36.25 14.6874964,36.25 C16.4140594,36.25 17.9531217,34.8749995 18.1093717,33.125 L18.1249988,33.125 L18.1249988,22.429688 L18.1249988,22.429688 Z M24.9999964,3.67968798 C23.2734334,3.67968798 21.8749964,5.14921904 21.8749964,6.80468798 L21.8749964,9.92968798 L24.9999964,9.92968798 C27.0703089,9.92968798 28.7499964,11.679688 28.7499964,13.679688 L28.7499964,14.6328115 C29.8515594,15.1171875 30.6249964,16.2187505 30.6249964,17.429688 C30.6249964,19.226563 29.2265594,20.554688 27.4999964,20.554688 C25.7734334,20.554688 24.3749964,19.226563 24.3749964,17.429688 C24.3749964,16.2187505 25.1484334,15.1171875 26.2499964,14.6328115 L26.2499964,13.679688 C26.2499964,13.062501 25.6874955,12.429688 24.9999964,12.429688 L21.8749964,12.429688 L21.8749964,24.929688 L25.882808,24.929688 C26.3671839,23.898437 27.4687469,23.054688 28.7499964,23.054688 C30.4765594,23.054688 31.8749964,24.523437 31.8749964,26.25 C31.8749964,27.976563 30.4765594,29.375 28.7499964,29.375 C27.4687469,29.375 26.3671839,28.601563 25.882808,27.5 L21.8749964,27.5 L21.8749964,33.125 L21.8906224,33.125 C22.0468724,34.8749995 23.5156214,36.25 25.3124964,36.25 C26.429683,36.25 27.4140584,35.718751 27.9765594,34.8984385 C28.4687459,34.3437505 28.7265599,33.656249 28.6796844,32.9140615 C29.0703094,33.046875 29.5624959,33.125 29.9999964,33.125 C30.3671849,33.125 30.7187474,33.0703115 31.0468709,32.976563 C32.6093709,32.5234365 33.7499964,31.078124 33.7499964,29.375 C33.7499964,28.8671875 33.6484349,28.3906245 33.4687459,27.9453135 C33.4296834,27.8515625 33.3906209,27.7578115 33.3437455,27.671876 C33.4687459,27.6093745 33.5859334,27.5468755 33.7031209,27.484374 C35.2265584,26.624999 36.2499964,24.992187 36.2499964,23.125 C36.2499964,22.3828125 36.0859334,21.6875005 35.804683,21.0546875 C35.2656209,19.8749995 34.2812455,18.9374995 33.070308,18.4687495 C33.8671839,17.7812505 34.3749964,16.7578125 34.3749964,15.554688 C34.3749964,15.4843748 34.3671834,15.3359377 34.3515599,15.1953125 C34.2265594,14.070313 33.5937464,13.0937505 32.6953089,12.492187 C32.2031224,12.171874 31.5703094,11.960938 31.0312474,11.8984365 C31.1718714,11.500001 31.2499964,11.0703135 31.2499964,10.554688 C31.2499964,10.460937 31.2421834,10.296874 31.2187469,10.1328135 C30.9999955,8.49999905 29.7421849,7.19765663 28.0546844,6.92656279 L28.1249964,6.875 C28.1249964,5.14921904 26.7265594,3.75 24.9999964,3.75 L24.9999964,3.67968798 Z M13.7499964,12.429688 C14.4374967,12.429688 14.9999964,11.937499 14.9999964,11.179688 C14.9999964,10.562501 14.4374967,9.92968798 13.7499964,9.92968798 C13.0624962,9.92968798 12.4999964,10.562501 12.4999964,11.179688 C12.4999964,11.937499 13.0624962,12.429688 13.7499964,12.429688 Z M12.4999964,28.75 C13.1874967,28.75 13.7499964,28.187499 13.7499964,27.5 C13.7499964,26.812501 13.1874967,26.25 12.4999964,26.25 C11.8124962,26.25 11.2499964,26.812501 11.2499964,27.5 C11.2499964,28.187499 11.8124962,28.75 12.4999964,28.75 Z M28.7499964,17.429688 C28.7499964,16.8124998 28.1874955,16.179688 27.4999964,16.179688 C26.8124974,16.179688 26.2499964,16.8124998 26.2499964,17.429688 C26.2499964,18.1875002 26.8124974,18.679688 27.4999964,18.679688 C28.1874955,18.679688 28.7499964,18.1875002 28.7499964,17.429688 Z M28.7499964,27.5 C29.4374955,27.5 29.9999964,26.937499 29.9999964,26.25 C29.9999964,25.562501 29.4374955,24.929688 28.7499964,24.929688 C28.0624974,24.929688 27.4999964,25.562501 27.4999964,26.25 C27.4999964,26.937499 28.0624974,27.5 28.7499964,27.5 Z" id="Shape" fill="#FFFFFF" fill-rule="nonzero"></path>
                                </g>
                                <g id="-copy-3" stroke-width="1" fill-rule="evenodd" transform="translate(443.0209, 87.9983)">
                                    <path d="M20.075388,19.2204386 C19.0402317,19.2204386 18.2707,20.0602823 18.2707,21.0251266 C18.3585906,26.6696578 17.636013,32.1110636 16.1027312,37.5485641 C15.8253872,38.3845001 16.2082005,40.0016886 17.8410125,40.0016886 C18.661325,40.0016886 19.4128871,39.4645792 19.6472621,38.6345011 C20.7019496,34.8946577 21.9988251,28.8376266 21.9519496,21.0954386 C21.950388,20.0641876 21.1144495,19.2204386 20.075388,19.2204386 Z M20.0050747,12.8375757 C15.153513,12.8220016 11.8800747,16.5095013 11.950388,20.7360631 C12.0089817,24.4759065 11.6574192,28.2259065 10.9058571,31.8688756 C10.6910133,32.8141886 11.3452315,33.8704377 12.3605442,34.0852815 C13.3058572,34.2903596 14.3621063,33.6458284 14.5769501,32.6305944 C15.3871059,28.7149697 15.7581997,24.6930939 15.6996059,20.7477814 C15.6691372,18.6423141 17.184763,16.5720016 19.9503875,16.5876263 C22.4011683,16.6266888 24.4222617,18.5696572 24.4519496,20.9235626 C24.5203018,24.6032506 24.2371058,28.4430939 23.6222625,32.1345001 C23.4562469,33.0798131 24.1495275,34.116531 25.1746058,34.2923123 C26.7269492,34.5462185 27.2644496,33.1110626 27.3230433,32.7399689 C27.9674959,28.9040309 28.269918,24.8415309 28.2019496,20.9352809 C28.1300759,16.4938766 24.4582009,12.9001266 20.0050747,12.8375757 Z M11.3644505,11.2907511 C10.5519497,10.6345016 9.38007474,10.7516891 8.71601224,11.5563756 C6.72773123,14.0173131 5.64413667,17.1345013 5.69257498,20.3063756 C5.74139595,23.2454377 5.5070281,26.1946565 4.98952746,29.0641886 C4.80398059,30.0095016 5.47773123,31.0563761 6.49343491,31.241532 C8.06531072,31.5149695 8.61218572,30.0798136 8.61062288,29.7282511 C9.16718602,26.6134077 9.43093657,23.429814 9.37226415,20.2438766 C9.41132665,17.9157513 10.1613271,15.7282513 11.5597653,13.9313751 C12.2863269,13.1188756 12.1691394,11.9470006 11.3644528,11.2907511 L11.3644505,11.2907511 Z M19.8410153,6.41887724 C18.7082028,6.38996898 17.4972653,6.52668773 16.3332021,6.80950224 C15.3277338,6.97356283 14.7027338,7.98918783 14.9371088,9.0649706 C15.1812494,10.070439 16.1167967,10.6860644 17.1324217,10.4516894 C18.0675769,10.2595001 18.9503896,10.1579386 19.8644519,10.1657516 C25.7527328,10.2536422 30.6144524,14.9704391 30.7160139,20.681377 C30.7550764,23.6399704 30.608592,26.548565 30.2766395,29.5563775 C30.159452,30.5813771 30.9015608,31.4391905 31.9266391,31.62669 C33.2352328,31.712628 33.9188266,30.6993467 33.9969516,29.9766904 C34.3582797,26.8712217 34.514451,23.7462217 34.4656229,20.6251293 C34.3332028,12.9157501 27.8097653,6.53606474 19.8410153,6.41887724 Z M39.6066403,15.9079391 C39.382031,14.9626261 38.3949208,14.2477828 37.3699212,14.4720012 C36.4246082,14.6966106 35.7199216,15.7024699 35.94414,16.7079383 C36.3152337,18.3876258 36.3249993,19.6376258 36.3152337,21.5220004 C36.3054752,22.5571567 37.1355462,23.406375 38.1707025,23.4165317 C39.1957021,23.4165317 40.0550771,22.5868446 40.0652337,21.5516883 C40.075388,19.8298138 40.0910139,18.1110638 39.6066403,15.9079391 Z M36.4035153,8.82200061 C32.5949216,3.40246975 26.3722658,0.0954395451 19.7394526,0.00168859141 C14.2910147,-0.0666707836 9.25507784,1.94231331 5.50507784,5.70168792 C1.88242197,9.32434618 -0.068359375,14.1391879 0.009765625,19.2641884 L0,20.9438759 C0.0390541553,21.9860631 0.849609375,22.8454381 1.88476563,22.8766876 C1.90429688,22.8845006 1.92382812,22.8845006 1.94335938,22.8845006 C2.88867235,22.8845006 3.78867269,22.0743447 3.74804735,21.0587197 L3.75781298,19.2134076 C3.76914144,15.1110631 5.3214848,11.2516886 8.22382927,8.35325061 C11.2605488,5.32590686 15.3621113,3.6954385 19.7628927,3.75403225 C25.1824236,3.76184522 30.2863288,6.53684436 33.4035182,10.9704405 C33.9991426,11.8196589 35.1613307,12.025128 36.0105491,11.4294249 C36.7941427,10.8298141 37.0675802,9.67356264 36.4035177,8.82200061 L36.4035153,8.82200061 Z" id="Shape" fill="#FFFFFF" fill-rule="nonzero"></path>
                                </g>
                                <g id="-copy-3" stroke-width="1" fill-rule="evenodd" transform="translate(624.0071, 88)">
                                    <path d="M20,13.75 C21.725781,13.75 23.125,12.350781 23.125,10.625 C23.125,8.89921904 21.726563,7.5 20,7.5 C18.273437,7.5 16.875,8.89843702 16.875,10.625 C16.875,12.351563 18.273437,13.75 20,13.75 Z M28.2343745,13.820312 L23.6054683,15.1437497 C21.248436,15.8174217 18.75,15.8174217 16.3937497,15.1437497 L11.7656255,13.820312 C10.773437,13.531251 9.73437428,14.1171885 9.44531202,15.1093745 C9.15624976,16.1015618 9.73703146,17.1429682 10.7328129,17.4265623 L15.3617191,18.7523437 C15.6562495,18.835938 15.9531248,18.8750005 16.25,18.9374995 L16.25,22.5539064 L13.85625,29.3773437 C13.5132027,30.3539062 14.0271878,31.4234376 15.0039065,31.7671871 C15.2109373,31.8437505 15.4218745,31.875 15.625,31.875 C16.3989067,31.875 17.1242189,31.3915634 17.39375,30.6203127 L19.4132817,25.1007819 C19.6134377,24.5537496 20.3867197,24.5537496 20.5875015,25.1007819 L22.6070333,30.6203127 C22.874999,31.390624 23.601563,31.875 24.375,31.875 C24.5813274,31.875 24.7900009,31.8408203 24.9963284,31.7700005 C25.9728909,31.4257812 26.4869523,30.3567195 26.1439848,29.380157 L23.75,22.5546885 L23.75,18.9374995 C24.046874,18.8750005 24.3437505,18.835938 24.6328115,18.75 L29.2617178,17.4265623 C30.2578115,17.1433592 30.8335924,16.1054683 30.5492187,15.1093745 C30.2656245,14.1171885 29.226563,13.531251 28.2343745,13.820312 Z M20,0 C8.95312548,0 0,8.95312548 0,20 C0,31.0468745 8.95312548,40 20,40 C31.0468745,40 40,31.0468745 40,20 C40,8.95312548 31.0468745,0 20,0 Z M20,36.25 C11.0390627,36.25 3.75,28.9601564 3.75,20 C3.75,11.0398436 11.0390627,3.75 20,3.75 C28.9609385,3.75 36.25,11.0398436 36.25,20 C36.25,28.9601564 28.9609385,36.25 20,36.25 Z" id="Shape" fill="#FFFFFF" fill-rule="nonzero"></path>
                                </g>
                                <text id="-copy-3" font-family="FontAwesome6Pro-Regular, Font Awesome 6 Pro" font-size="40" font-weight="normal">
                                    <tspan x="357.365193" y="163" fill="#FFFFFF"></tspan>
                                </text>
                                <text id="-copy" font-family="FontAwesome6Pro-Regular, Font Awesome 6 Pro" font-size="40" font-weight="normal">
                                    <tspan x="354.865193" y="251" fill="#FFFFFF"></tspan>
                                </text>
                                <g id="-copy-3" stroke-width="1" fill-rule="evenodd" transform="translate(528.5478, 130.5)">
                                    <path d="M10,5 C10,7.75781155 7.76171923,10 5,10 C2.23828077,10 0,7.75781155 0,5 C0,2.23828077 2.23828077,0 5,0 C7.76171923,0 10,2.23828077 10,5 Z M12.5000012,17.5 C12.5000012,14.7421873 14.7421885,12.5 17.5000012,12.5 C20.2578127,12.5 22.5000012,14.7421873 22.5000012,17.5 C22.5000012,20.2578115 20.2578127,22.5 17.5000012,22.5 C14.7421885,22.5 12.5000012,20.2578115 12.5000012,17.5 Z M17.5000012,19.375 C18.5390639,19.375 19.3750012,18.5390615 19.3750012,17.5 C19.3750012,16.4609373 18.5390639,15.625 17.5000012,15.625 C16.4609385,15.625 15.6250012,16.4609373 15.6250012,17.5 C15.6250012,18.5390615 16.4609385,19.375 17.5000012,19.375 Z M10,30 C10,32.7578115 7.76171923,35 5,35 C2.23828077,35 0,32.7578115 0,30 C0,27.2421885 2.23828077,25 5,25 C7.76171923,25 10,27.2421885 10,30 Z M5.00000119,28.125 C3.96484494,28.125 3.12500119,28.9609385 3.12500119,30 C3.12500119,31.0390615 3.96484494,31.875 5.00000119,31.875 C6.03515744,31.875 6.87500119,31.0390615 6.87500119,30 C6.87500119,28.9609385 6.03515744,28.125 5.00000119,28.125 Z M22.5000012,30 C22.5000012,32.7578115 20.2578127,35 17.5000012,35 C14.7421885,35 12.5000012,32.7578115 12.5000012,30 C12.5000012,27.2421885 14.7421885,25 17.5000012,25 C20.2578127,25 22.5000012,27.2421885 22.5000012,30 Z M17.5000012,28.125 C16.4609385,28.125 15.6250012,28.9609385 15.6250012,30 C15.6250012,31.0390615 16.4609385,31.875 17.5000012,31.875 C18.5390639,31.875 19.3750012,31.0390615 19.3750012,30 C19.3750012,28.9609385 18.5390639,28.125 17.5000012,28.125 Z M1.1920929e-06,17.5 C1.1920929e-06,14.7421873 2.23828197,12.5 5.00000119,12.5 C7.76172042,12.5 10.0000012,14.7421873 10.0000012,17.5 C10.0000012,20.2578115 7.76172042,22.5 5.00000119,22.5 C2.23828197,22.5 1.1920929e-06,20.2578115 1.1920929e-06,17.5 Z M12.5000012,5 C12.5000012,2.23828077 14.7421885,0 17.5000012,0 C20.2578127,0 22.5000012,2.23828077 22.5000012,5 C22.5000012,7.75781155 20.2578127,10 17.5000012,10 C14.7421885,10 12.5000012,7.75781155 12.5000012,5 Z M37.5000012,5 C37.5000012,7.75781155 35.2578127,10 32.5000012,10 C29.7421896,10 27.5000012,7.75781155 27.5000012,5 C27.5000012,2.23828077 29.7421896,0 32.5000012,0 C35.2578127,0 37.5000012,2.23828077 37.5000012,5 Z M50.0000012,5 C50.0000012,7.75781155 47.7578127,10 45.0000012,10 C42.2421896,10 40.0000012,7.75781155 40.0000012,5 C40.0000012,2.23828077 42.2421896,0 45.0000012,0 C47.7578127,0 50.0000012,2.23828077 50.0000012,5 Z M45.0000012,3.125 C43.9609396,3.125 43.1250012,3.96484375 43.1250012,5 C43.1250012,6.03906155 43.9609396,6.875 45.0000012,6.875 C46.0390627,6.875 46.8750012,6.03906155 46.8750012,5 C46.8750012,3.96484375 46.0390627,3.125 45.0000012,3.125 Z M40.0000012,17.5 C40.0000012,14.7421873 42.2421896,12.5 45.0000012,12.5 C47.7578127,12.5 50.0000012,14.7421873 50.0000012,17.5 C50.0000012,20.2578115 47.7578127,22.5 45.0000012,22.5 C42.2421896,22.5 40.0000012,20.2578115 40.0000012,17.5 Z M45.0000012,19.375 C46.0390627,19.375 46.8750012,18.5390615 46.8750012,17.5 C46.8750012,16.4609373 46.0390627,15.625 45.0000012,15.625 C43.9609396,15.625 43.1250012,16.4609373 43.1250012,17.5 C43.1250012,18.5390615 43.9609396,19.375 45.0000012,19.375 Z M50.0000012,30 C50.0000012,32.7578115 47.7578127,35 45.0000012,35 C42.2421896,35 40.0000012,32.7578115 40.0000012,30 C40.0000012,27.2421885 42.2421896,25 45.0000012,25 C47.7578127,25 50.0000012,27.2421885 50.0000012,30 Z M45.0000012,28.125 C43.9609396,28.125 43.1250012,28.9609385 43.1250012,30 C43.1250012,31.0390615 43.9609396,31.875 45.0000012,31.875 C46.0390627,31.875 46.8750012,31.0390615 46.8750012,30 C46.8750012,28.9609385 46.0390627,28.125 45.0000012,28.125 Z M27.5000012,17.5 C27.5000012,14.7421873 29.7421896,12.5 32.5000012,12.5 C35.2578127,12.5 37.5000012,14.7421873 37.5000012,17.5 C37.5000012,20.2578115 35.2578127,22.5 32.5000012,22.5 C29.7421896,22.5 27.5000012,20.2578115 27.5000012,17.5 Z M32.5000012,19.375 C33.5390627,19.375 34.3750012,18.5390615 34.3750012,17.5 C34.3750012,16.4609373 33.5390627,15.625 32.5000012,15.625 C31.4609396,15.625 30.6250012,16.4609373 30.6250012,17.5 C30.6250012,18.5390615 31.4609396,19.375 32.5000012,19.375 Z M37.5000012,30 C37.5000012,32.7578115 35.2578127,35 32.5000012,35 C29.7421896,35 27.5000012,32.7578115 27.5000012,30 C27.5000012,27.2421885 29.7421896,25 32.5000012,25 C35.2578127,25 37.5000012,27.2421885 37.5000012,30 Z M32.5000012,28.125 C31.4609396,28.125 30.6250012,28.9609385 30.6250012,30 C30.6250012,31.0390615 31.4609396,31.875 32.5000012,31.875 C33.5390627,31.875 34.3750012,31.0390615 34.3750012,30 C34.3750012,28.9609385 33.5390627,28.125 32.5000012,28.125 Z" id="Shape" fill="#FFFFFF" fill-rule="nonzero"></path>
                                </g>
                                <g id="-copy" stroke-width="1" fill-rule="evenodd" transform="translate(531.0478, 218.5)">
                                    <path d="M12.5000095,17.5 C12.5000095,11.9765615 16.9765723,7.5 22.5000095,7.5 C28.023448,7.5 32.5000095,11.9765615 32.5000095,17.5 C32.5000095,23.0234385 28.023448,27.5 22.5000095,27.5 C16.9765723,27.5 12.5000095,23.0234385 12.5000095,17.5 Z M22.5000095,23.75 C25.9531355,23.75 28.7500095,20.953126 28.7500095,17.5 C28.7500095,14.0468752 25.9531355,11.25 22.5000095,11.25 C22.4453211,11.25 22.398448,11.25 22.2734475,11.25 C22.4453211,11.648438 22.5000095,12.0703125 22.5000095,12.5 C22.5000095,15.2578127 20.2578211,17.5 17.5000095,17.5 C17.070322,17.5 16.6484475,17.4453127 16.2500095,17.273438 C16.2500095,17.3984373 16.2500095,17.4453127 16.2500095,17.429688 C16.2500095,20.953126 19.0468848,23.75 22.5000095,23.75 Z M7.45469689,6.29687548 C11.132822,2.87812471 16.1875093,0 22.5,0 C28.8125086,0 33.867197,2.87812471 37.546885,6.29687548 C41.2031364,9.6875 43.648448,13.679688 44.804697,16.5390623 C45.0625086,17.1562505 45.0625086,17.8437495 44.804697,18.4609365 C43.648448,21.25 41.2031364,25.242188 37.546885,28.7031245 C33.867197,32.125001 28.8125086,35 22.5,35 C16.1875093,35 11.132822,32.125001 7.45469689,28.7031245 C3.79844666,25.242188 1.35469675,21.25 0.192275047,18.4609365 C-0.0640916824,17.8437495 -0.0640916824,17.1562505 0.192275047,16.5390623 C1.35469675,13.679688 3.79844666,9.6875 7.45469689,6.29687548 Z M22.5000095,3.75 C17.4062598,3.75 13.2187593,6.06250048 10.0078225,9.03906345 C7.00000882,11.8359375 4.92344618,15.085938 3.86250854,17.5 C4.92344618,19.84375 7.00000882,23.1640625 10.0078225,25.9609365 C13.2187593,28.9374995 17.4062598,31.25 22.5000095,31.25 C27.5937605,31.25 31.7812586,28.9374995 34.9921966,25.9609365 C38.0000091,23.1640625 40.0078201,19.84375 41.1406326,17.5 C40.0078201,15.085938 38.0000091,11.8359375 34.9921966,9.03906345 C31.7812586,6.06250048 27.5937605,3.75 22.5000095,3.75 Z" id="Shape" fill="#FFFFFF" fill-rule="nonzero"></path>
                                </g>
                            </g>
                        </g>
                    </g>
                    <g id="Group-14" transform="translate(440, 202)">
                        <mask id="mask-4" fill="white">
                            <use xlink:href="#path-3"></use>
                        </mask>
                        <use id="Mask" fill="#F3AD90" xlink:href="#path-3"></use>
                        <g mask="url(#mask-4)" opacity="0.25">
                            <g transform="translate(-223, 10)">
                                <text id="-copy-3" font-family="FontAwesome6Pro-Regular, Font Awesome 6 Pro" font-size="40" font-weight="normal">
                                    <tspan x="0" y="75" fill="#FFFFFF"></tspan>
                                </text>
                                <g id="-copy-3" stroke-width="1" fill-rule="evenodd" transform="translate(191, 39.9999)">
                                    <path d="M37.5234365,25.0235027 L29.8515606,21.7360014 C28.1796861,21.0110801 26.2078094,21.4932674 25.0703096,22.9039711 L22.9265594,25.5211586 C19.4296873,23.5078782 16.5,20.5781907 14.4843745,17.0781916 L17.1054685,14.9313158 C18.507812,13.7891287 18.992188,11.8281907 18.210938,10.1641291 L14.9765623,2.46334731 C14.1875005,0.650846354 12.2187495,-0.337901719 10.304687,0.105223052 L3.1726563,1.75084769 C1.30468726,2.17662751 0,3.81491124 0,5.73366105 C0,24.6328777 15.3671873,40.0000662 34.2656255,40.0000662 C36.1843753,40.0000662 37.8226566,38.6961597 38.2500005,36.83366 L39.8953128,29.6977228 C40.3437519,27.7735037 39.3437505,25.8047527 37.5234365,25.0235027 Z M36.242187,28.8516277 L34.5945311,35.9930342 C34.5546865,36.1485046 34.4296885,36.2500662 34.2656255,36.2500662 C17.4374998,36.2500662 3.67968678,22.5625652 3.67968678,5.73366105 C3.67968678,5.57006537 3.78101468,5.44194161 3.94093633,5.40530144 L11.1484361,3.75865876 C11.1728501,3.75255763 11.1984825,3.75011384 11.2228966,3.75011384 C11.3583648,3.75011384 11.4853179,3.83191048 11.5390682,3.95394026 L14.8312557,11.6359728 C14.8906243,11.7735046 14.8515618,11.9375652 14.7343743,12.0313162 L10.9234369,15.1539725 C10.2499986,15.7031912 10.0390613,16.6485041 10.4218733,17.4297541 C13.0007792,22.6820987 17.3171866,27.0000666 22.5703108,29.5781916 C23.3514035,29.9614733 24.2960918,29.7563952 24.8476541,29.0825671 L27.9742157,25.2638167 C28.0608571,25.1539725 28.2231224,25.1124114 28.3585918,25.1759261 L36.0351551,28.464207 C36.1874998,28.5313171 36.2734354,28.6953777 36.2421858,28.8516277 L36.242187,28.8516277 Z M30.9374988,5.00006615 L33.9921868,5.00006615 C34.5097649,5.00006615 34.8593748,4.58014428 34.8593748,4.06256615 L34.8593748,0.937566153 C34.8593748,0.419988028 34.4395316,6.61533163e-05 33.9921868,6.61533163e-05 L30.9374988,6.61533163e-05 C30.420078,6.61533163e-05 30.0703108,0.419988028 30.0703108,0.937566153 L30.0703108,4.06256615 C29.9999988,4.58053528 30.4218733,5.00006615 30.9374988,5.00006615 Z M23.4374988,5.00006615 L26.4921868,5.00006615 C27.0096076,5.00006615 27.3593748,4.58014428 27.3593748,4.06256615 L27.3593748,0.937566153 C27.3593748,0.419988028 26.9393742,6.61533163e-05 26.4921868,6.61533163e-05 L23.4374988,6.61533163e-05 C22.9199207,6.61533163e-05 22.5703108,0.419988028 22.5703108,0.937566153 L22.5703108,4.06256615 C22.4999988,4.58053528 22.9218733,5.00006615 23.4374988,5.00006615 Z M23.4374988,12.5000662 L26.4921868,12.5000662 C27.0096076,12.5000662 27.3593748,12.0801443 27.3593748,11.5625662 L27.3593748,8.43756615 C27.3593748,7.91998803 26.9394529,7.50006615 26.4921868,7.50006615 L23.4374988,7.50006615 C22.9199207,7.50006615 22.5703108,7.91998803 22.5703108,8.43756615 L22.5703108,11.5625662 C22.5078118,12.0781916 22.9218733,12.5000662 23.4374988,12.5000662 Z M41.5624988,6.61533163e-05 L38.5078108,6.61533163e-05 C37.9902327,6.61533163e-05 37.6406229,0.419988028 37.6406229,0.937566153 L37.6406229,4.06256615 C37.6406229,4.58014428 38.0604661,5.00006615 38.5078108,5.00006615 L41.5624988,5.00006615 C42.0799196,5.00006615 42.4296844,4.58014428 42.4296844,4.06256615 L42.4296844,0.937566153 C42.4999988,0.419988028 42.0781219,6.61533163e-05 41.5624988,6.61533163e-05 Z M49.0624988,6.61533163e-05 L45.9374988,6.61533163e-05 C45.4199207,6.61533163e-05 45.0703132,0.419988028 45.0703132,0.937566153 L45.0703132,4.06256615 C45.0703132,4.58014428 45.4901588,5.00006615 45.9374988,5.00006615 L48.9921844,5.00006615 C49.5781219,5.00006615 49.9999988,4.58053528 49.9999988,4.06256615 L49.9999988,0.937566153 C49.9999988,0.419988028 49.5781219,6.61533163e-05 49.0624988,6.61533163e-05 Z M41.5624988,7.50006615 L31.0078108,7.50006615 C30.4903901,7.50006615 30.1406229,7.91998803 30.1406229,8.43756615 L30.1406229,11.5625662 C30.1406229,12.0801443 30.5605447,12.5000662 31.0078108,12.5000662 L41.5624988,12.5000662 C42.0800769,12.5000662 42.4296844,12.0801443 42.4296844,11.5625662 L42.4296844,8.43756615 C42.4999988,7.92194068 42.0781219,7.50006615 41.5624988,7.50006615 Z M49.0624988,7.50006615 L46.0078132,7.50006615 C45.4902351,7.50006615 45.1406276,7.91998803 45.1406276,8.43756615 L45.1406276,11.5625662 C45.1406276,12.0801443 45.5603921,12.5000662 46.0078132,12.5000662 L49.0624988,12.5000662 C49.5781219,12.5000662 49.9999988,12.0781916 49.9999988,11.5625662 L49.9999988,8.43756615 C49.9999988,7.92194068 49.5781219,7.50006615 49.0624988,7.50006615 Z" id="Shape" fill="#FFFFFF" fill-rule="nonzero"></path>
                                </g>
                                <text id="-copy-3" font-family="FontAwesome6Pro-Regular, Font Awesome 6 Pro" font-size="40" font-weight="normal">
                                    <tspan x="100.5" y="35" fill="#FFFFFF"></tspan>
                                </text>
                                <text id="-copy-2" font-family="FontAwesome6Pro-Regular, Font Awesome 6 Pro" font-size="40" font-weight="normal">
                                    <tspan x="100.5" y="211" fill="#FFFFFF"></tspan>
                                </text>
                                <g id="-copy-3" stroke-width="1" fill-rule="evenodd" transform="translate(291.501, 0)">
                                    <path d="M11.1787109,7.42968798 C13.3193354,7.49921799 14.9990229,5.8203125 14.9990229,3.75 C14.9990229,1.67890549 13.3193354,0 11.2490229,0 C9.17871041,0 7.49902291,1.67890549 7.49902291,3.75 C7.49902291,5.8203125 9.17871041,7.49921799 11.1787109,7.42968798 Z M7.20136685,29.0859365 L5.05605383,37.6640606 C4.80456872,38.6687469 5.41495962,39.686718 6.42089767,39.9382782 C6.57167835,39.984374 6.72558469,40 6.87714739,40 C7.71699114,40 8.48105354,39.4311714 8.69355364,38.5804677 L10.8091788,30.1195288 L7.46386571,27.2515607 C7.42714686,27.8671885 7.35214634,28.4843755 7.20136447,29.0859365 L7.20136685,29.0859365 Z M24.647458,21.960938 L18.0193333,12.7812505 C16.7255835,11.0625005 14.647458,9.92968798 12.4443333,9.92968798 L10.592771,9.92968798 C7.98808379,9.92968798 5.60761494,11.4007807 4.44277091,13.7304688 L0.200583168,22.2148442 C-0.266214183,23.210938 0.109801718,24.3359375 1.03730125,24.8046875 C1.30605144,24.937501 1.59198923,24.929688 1.87245769,24.929688 C2.56089492,24.929688 3.2224576,24.5500779 3.55214519,23.8929701 L7.49980135,15.9945321 L7.49980135,22.7640629 C7.49980135,23.4939075 7.81870765,24.1875005 8.37245745,24.6624994 L16.0490207,31.242969 C16.1759738,31.3516402 16.2491767,31.477344 16.2491767,31.5871882 L16.2491767,38.125 C16.2491767,39.1601562 17.0890204,40 18.1241767,40 C19.1593329,40 19.9991779,39.1601562 19.9991779,38.125 L19.9991779,31.6601562 C19.9991779,30.4539061 19.4498805,29.290626 18.4905843,28.4687495 L14.9991779,25.476563 L14.9991779,15.078125 L21.603084,24.21875 C22.2133188,25.0546885 23.3804278,25.2539062 24.2226152,24.6410942 C25.0615196,24.0390635 25.2490215,22.8671885 24.647458,21.960938 Z M34.7802715,37.976563 L25.764647,24.7109365 C25.5574588,25.0429678 25.2912883,25.3453898 24.9552731,25.5882812 C24.5748834,25.865078 24.1380863,26.0126567 23.6849598,26.096251 L32.7162103,39.385314 C32.9579286,39.7405481 33.3511333,39.9328136 33.7490229,39.9328136 C33.9931635,39.9328136 34.2370705,39.8626256 34.4519143,39.7161722 C35.0224571,39.390626 35.1708965,38.6171865 34.7802715,37.976563 Z" id="Shape" fill="#FFFFFF" fill-rule="nonzero"></path>
                                </g>
                                <g id="-copy-2" stroke-width="1" fill-rule="evenodd" transform="translate(289, 176)">
                                    <path d="M20,0 C8.95312548,0 0,8.95312548 0,20 C0,31.0468745 8.95312548,40 20,40 C31.0468745,40 40,31.0468745 40,20 C40,8.95312548 31.0468745,0 20,0 Z M20,36.25 C11.0390627,36.25 3.75,28.9601564 3.75,20 C3.75,11.0398436 11.0390627,3.75 20,3.75 C28.9609385,3.75 36.25,11.0398436 36.25,20 C36.25,28.9601564 28.9609385,36.25 20,36.25 Z M20,26.25 C18.59375,26.25 17.5,27.34375 17.5,28.75 C17.5,30.15625 18.523438,31.25 20,31.25 C21.335938,31.25 22.5,30.15625 22.5,28.75 C22.5,27.34375 21.335938,26.25 20,26.25 Z M22.585938,10 L18.59375,10 C15.546875,10 13.125,12.421875 13.125,15.46875 C13.125,16.484375 13.984375,17.34375 15,17.34375 C16.015625,17.34375 16.875,16.484375 16.875,15.46875 C16.875,14.53125 17.585938,13.75 18.523438,13.75 L22.515626,13.75 C23.523438,13.75 24.375,14.53125 24.375,15.46875 C24.375,16.09375 24.0625,16.570313 23.515625,16.882813 L19.0625,19.609375 C18.4375,20 18.125,20.625 18.125,21.25 L18.125,22.5 C18.125,23.515625 18.984375,24.375 20,24.375 C21.015625,24.375 21.875,23.515625 21.875,22.5 L21.875,22.34375 L25.398438,20.15625 C27.039063,19.140625 28.054688,17.34375 28.054688,15.46875 C28.125,12.421875 25.703125,10 22.585938,10 Z" id="Shape" fill="#FFFFFF" fill-rule="nonzero"></path>
                                </g>
                                <text id="-copy-3" font-family="FontAwesome6Pro-Regular, Font Awesome 6 Pro" font-size="40" font-weight="normal">
                                    <tspan x="5" y="163" fill="#FFFFFF"></tspan>
                                </text>
                                <text id="-copy" font-family="FontAwesome6Pro-Regular, Font Awesome 6 Pro" font-size="40" font-weight="normal">
                                    <tspan x="2.5" y="251" fill="#FFFFFF"></tspan>
                                </text>
                                <g id="-copy-3" stroke-width="1" fill-rule="evenodd" transform="translate(201, 128)">
                                    <path d="M18.7500269,3.75 C18.7500269,5.82109451 17.0703394,7.5 15.0000269,7.5 C12.9297144,7.5 11.2500269,5.82109451 11.2500269,3.75 C11.2500269,1.67890549 12.9297144,0 15.0000269,0 C17.0703394,0 18.7500269,1.67890549 18.7500269,3.75 Z M7.50002694,16.3671875 L3.50705814,23.421874 C2.99768281,24.3281245 1.85393286,24.6406245 0.952370881,24.132812 C0.050901889,23.6249995 -0.26653576,22.4765635 0.243308067,21.578126 L4.81721473,13.4921885 C6.03674602,11.335938 8.32034063,10 10.8047159,10 L13.5390909,10 C15.5703409,10 17.4922152,10.8984375 18.7969036,12.4531245 L25.1875277,20.0468755 C25.8515902,20.8359385 25.7500286,22.015624 24.9609656,22.6874995 C24.1640897,23.351562 22.9844041,23.2500005 22.3125286,22.4531245 L17.5000281,16.7343748 L17.5000281,38.1249988 C17.5000281,39.1640604 16.6640909,40 15.6250281,40 C14.5859654,40 13.7500281,39.1640604 13.7500281,38.1249988 L13.7500281,27.5 L11.2500281,27.5 L11.2500281,38.1249988 C11.2500281,39.1640604 10.4140909,40 9.37502813,40 C8.33596539,40 7.50002813,39.1640604 7.50002813,38.1249988 L7.50002813,16.3671863 L7.50002694,16.3671875 Z M13.7500281,13.7578118 C13.6797161,13.7499988 13.6094029,13.7499988 13.5390909,13.7499988 L11.2500281,13.7499988 L11.2500281,23.7499988 L13.7500281,23.7499988 L13.7500281,13.7578118 Z M25.0000281,29.9999988 C25.0000281,31.0390604 24.1640897,31.8749988 23.1250281,31.8749988 C22.0859666,31.8749988 21.2500281,31.0390604 21.2500281,29.9999988 L21.2500281,29.3749988 C21.2500281,26.9609368 23.2109661,24.9999988 25.6250281,24.9999988 C28.0390902,24.9999988 30.0000281,26.9609368 30.0000281,29.3749988 L30.0000281,38.1249988 C30.0000281,39.1640604 29.1640897,39.9999988 28.1250281,39.9999988 C27.0859666,39.9999988 26.2500281,39.1640604 26.2500281,38.1249988 L26.2500281,29.3749988 C26.2500281,29.0312493 25.9687777,28.7499988 25.6250281,28.7499988 C25.2812786,28.7499988 25.0000281,29.0312493 25.0000281,29.3749988 L25.0000281,29.9999988 Z" id="Shape" fill="#FFFFFF" fill-rule="nonzero"></path>
                                </g>
                                <g id="-copy" stroke-width="1" fill-rule="evenodd" transform="translate(196, 226)">
                                    <path d="M17.5,2.5 C17.5,1.11718655 18.6171877,0 20,0 C21.3828135,0 22.5,1.11718655 22.5,2.5 C22.5,3.88281345 21.3828135,5 20,5 C18.6171877,5 17.5,3.88281345 17.5,2.5 Z M5,7.5 C5,6.11718774 6.11953139,5 7.5,5 C8.88281226,5 10,6.11718774 10,7.5 C10,8.88281226 8.88281226,10 7.5,10 C6.11953139,10 5,8.88281226 5,7.5 Z M35,7.5 C35,8.88281226 33.8828135,10 32.5,10 C31.1171865,10 30,8.88281226 30,7.5 C30,6.11718774 31.1171865,5 32.5,5 C33.8828135,5 35,6.11718774 35,7.5 Z M35,20 C35,18.6171865 36.1171865,17.5 37.5,17.5 C38.8828135,17.5 40,18.6171865 40,20 C40,21.3828135 38.8828135,22.5 37.5,22.5 C36.1171865,22.5 35,21.3828135 35,20 Z M5,20 C5,21.3828135 3.88046861,22.5 2.5,22.5 C1.11953139,22.5 0,21.3828135 0,20 C0,18.6171865 1.11953139,17.5 2.5,17.5 C3.88046861,17.5 5,18.6171865 5,20 Z M27.5,17.5 C28.8828135,17.5 30,18.6171865 30,20 C30,21.3828135 28.8828135,22.5 27.5,22.5 L12.5,22.5 C11.1171877,22.5 10,21.3828135 10,20 C10,18.6171865 11.1171877,17.5 12.5,17.5 L27.5,17.5 Z" id="Shape" fill="#FFFFFF" fill-rule="nonzero"></path>
                                </g>
                                <text id="-copy-3" font-family="FontAwesome6Pro-Regular, Font Awesome 6 Pro" font-size="40" font-weight="normal">
                                    <tspan x="98" y="123" fill="#FFFFFF"></tspan>
                                </text>
                                <g id="-copy-3" stroke-width="1" fill-rule="evenodd" transform="translate(288.9297, 88)">
                                    <path d="M10.625,21.25 L9.44531202,21.25 C8.40624809,21.25 7.57031083,22.093749 7.57031083,23.125 C7.57031083,24.156251 8.40624809,25 9.37499881,25 L10.5546868,25 C11.589843,25 12.3593748,24.1601562 12.3593748,23.125 C12.3593748,22.0898438 11.7265618,21.25 10.625,21.25 Z M23.125,21.25 L16.875,21.25 C15.8398438,21.25 15.070312,22.0898438 15.070312,23.125 C15.070312,24.1601562 15.9062493,25 16.875,25 L23.124218,25 C24.1593742,25 24.928906,24.1601562 24.928906,23.125 C24.928906,22.0898438 24.226563,21.25 23.125,21.25 Z M9.375,18.75 L16.8742192,18.7497032 C17.9093754,18.7497032 18.7484384,17.9098594 18.7484384,16.9450152 C18.7484384,15.980171 17.976563,15 16.8750012,15 L9.375,15 C8.40624928,15 7.57031202,15.8437502 7.57031202,16.875 C7.57031202,17.9062498 8.40624928,18.75 9.375,18.75 Z M30.625,21.25 L29.445312,21.25 C28.4101558,21.25 27.640624,22.0898438 27.640624,23.125 C27.640624,24.1601562 28.4062505,25 29.375,25 L30.554688,25 C31.5898442,25 32.359376,24.1601562 32.359376,23.125 C32.359376,22.0898438 31.726563,21.25 30.625,21.25 Z M30.625,15 L23.125782,15 C22.0906258,15 21.321094,15.8398438 21.321094,16.875 C21.321094,17.9101562 22.1562505,18.75 23.125,18.75 L30.624218,18.75 C31.6593742,18.75 32.428906,17.9101562 32.428906,16.875 C32.428906,15.8398438 31.726563,15 30.625,15 Z M35,0 L5,0 C2.24609375,0 0,2.24609375 0,4.92968798 L0,27.359376 C0,30.1132822 2.24609375,32.2890639 5,32.2890639 L12.5,32.2890639 L12.5,38.7812519 C12.5,39.5496893 13.3609378,39.9960947 13.9937496,39.5390654 L23.7515616,32.2187519 L35.0015616,32.2187519 C37.7554679,32.2187519 40.0015616,29.9726582 40.0015616,27.2890639 L40.0015616,4.92968798 C40,2.24609375 37.820313,0 35,0 Z M36.320312,27.5 C36.320312,28.1835938 35.7539058,28.75 35.070312,28.75 L22.570312,28.75 L16.320312,33.4375 L16.320312,28.75 L5.07031202,28.75 C4.38671827,28.75 3.82031202,28.1835938 3.82031202,27.5 L3.82031202,5 C3.82031202,4.31640625 4.38671827,3.75 5.07031202,3.75 L35.070312,3.75 C35.7539058,3.75 36.320312,4.31640625 36.320312,5 L36.320312,27.5 Z" id="Shape" fill="#FFFFFF" fill-rule="nonzero"></path>
                                </g>
                                <g id="-copy-3" stroke-width="1" fill-rule="evenodd" transform="translate(377, 40)">
                                    <path d="M22.7578115,30.843749 C21.8437481,30.3578901 20.709374,30.698514 20.2203107,31.6139841 C18.6953127,34.4765615 15.7343745,36.25 12.5,36.25 C7.67578125,36.25 3.75,32.3242188 3.75,27.5 C3.75,23.8195324 6.07578158,20.5101562 9.53593731,19.2656255 C10.5101562,18.9153135 11.0164058,17.8414071 10.6648433,16.8671882 C10.3145313,15.8906257 9.23906207,15.3851569 8.26640606,15.7382822 C3.32187533,17.5156248 0,22.2421885 0,27.5 C0,34.3921876 5.6078124,40 12.5,40 C17.1242189,40 21.3515615,37.4648428 23.531251,33.3835936 C24.0234375,32.4687505 23.671875,31.335938 22.7578115,30.843749 Z M15,7.5 C17.0710933,7.5 18.75,5.82109451 18.75,3.75 C18.75,1.67890549 17.0703125,0 15,0 C12.9296875,0 11.25,1.67890549 11.25,3.75 C11.25,5.82109451 12.9296875,7.5 15,7.5 Z M39.906249,33.7812495 C39.5803118,32.7999997 38.5195303,32.264843 37.5343752,32.5960922 L35.4093742,33.3040619 L31.7203116,24.8743749 C31.421876,24.1875005 30.7421875,23.75 29.929688,23.75 L19.0625,23.75 L17.9296875,17.5 L26.875,17.5 C27.9101563,17.5 28.75,16.6601562 28.75,15.625 C28.75,14.5898438 27.9101563,13.75 26.875,13.75 L17.2500002,13.75 L16.8437505,11.5390635 C16.6562498,10.5234385 15.6796873,9.83593702 14.6640623,10.0312495 C13.6484373,10.218749 12.96875,11.1953115 13.1562495,12.2109365 L15.6562495,25.9609365 C15.8203125,26.8515635 16.5937495,27.5 17.5,27.5 L28.7734365,27.5 L32.6578116,36.3750005 C32.960937,37.0781255 33.6484385,37.5 34.304688,37.5 C34.5012498,37.5 34.701407,37.4694848 34.8979688,37.4035931 L38.5776567,36.1535931 C39.703126,35.8281255 40.2265644,34.695313 39.906249,33.7812495 Z" id="Shape" fill="#FFFFFF" fill-rule="nonzero"></path>
                                </g>
                                <text id="-copy-3" font-family="FontAwesome6Pro-Regular, Font Awesome 6 Pro" font-size="40" font-weight="normal">
                                    <tspan x="558" y="75" fill="#FFFFFF"></tspan>
                                </text>
                                <g id="-copy-3" stroke-width="1" fill-rule="evenodd" transform="translate(465, 2.5)">
                                    <path d="M40,0 L5,0 C2.23828077,0 0,2.23828077 0,5 L0,30 C0,32.7617192 2.23828077,35 5,35 L40,35 C42.7617168,35 45,32.7617192 45,30 L45,5 C45,2.23828077 42.7578115,0 40,0 Z M41.2499988,30 C41.2499988,30.689218 40.6892204,31.25 40,31.25 L5,31.25 C4.31078076,31.25 3.74999881,30.689218 3.74999881,30 L3.74999881,5 C3.74999881,4.31078196 4.31078076,3.75 5,3.75 L40,3.75 C40.6892204,3.75 41.2499988,4.31078196 41.2499988,5 L41.2499988,30 Z M18.4765625,14.851563 C19.2089844,15.5839849 20.3953123,15.5839849 21.1281252,14.851563 C21.8605471,14.1191411 21.8605471,12.9328132 21.1281252,12.2000003 C18.203125,9.2750001 13.4476566,9.2750001 10.5265629,12.2000003 C9.1015625,13.6093748 8.3203125,15.4999995 8.3203125,17.5 C8.3203125,19.5000005 9.03125048,21.3867188 10.5171883,22.8031254 C11.9796884,24.2656255 13.8984382,24.9968743 15.8195317,24.9968743 C17.7406251,24.9968743 19.660157,24.2657018 21.121875,22.8031254 C21.8542969,22.0707035 21.8542969,20.8843756 21.121875,20.1515627 C20.3894532,19.4191408 19.2031252,19.4191408 18.4703124,20.1515627 C17.0101559,21.6140628 14.6273434,21.6140628 13.167969,20.1515627 C12.4609387,19.445312 12.0703137,18.499999 12.0703137,17.5 C12.0703137,16.500001 12.4609387,15.5562496 13.168751,14.8484373 C14.6328139,13.3828127 17.0156264,13.3828127 18.4765637,14.851563 L18.4765625,14.851563 Z M33.4765637,14.851563 C34.2089856,15.5839849 35.3953135,15.5839849 36.1281264,14.851563 C36.8605483,14.1191411 36.8605483,12.9328132 36.1281264,12.2000003 C33.2031262,9.2750001 28.4476578,9.2750001 25.5265629,12.2000003 C24.1015637,13.6093748 23.3203137,15.4999995 23.3203137,17.5 C23.3203137,19.5000005 24.0312517,21.3867188 25.5171883,22.8031254 C26.9796884,24.2656255 28.8984382,24.9968743 30.8195317,24.9968743 C32.7406251,24.9968743 34.660157,24.2657018 36.121875,22.8031254 C36.8542969,22.0707035 36.8542969,20.8843756 36.121875,20.1515627 C35.3894532,19.4191408 34.2031252,19.4191408 33.4703124,20.1515627 C32.0101559,21.6140628 29.6273434,21.6140628 28.167969,20.1515627 C27.4609387,19.445312 27.0703137,18.499999 27.0703137,17.5 C27.0703137,16.500001 27.4609387,15.5562496 28.168751,14.8484373 C29.6328127,13.3828127 32.0156252,13.3828127 33.4765637,14.851563 Z" id="Shape" fill="#FFFFFF" fill-rule="nonzero"></path>
                                </g>
                                <g id="-copy-2" stroke-width="1" fill-rule="evenodd" transform="translate(472.5, 176)">
                                    <path d="M22.6328146,0 C24.1250002,0 25.2031267,1.42656326 24.7968757,2.86015511 L20.6093752,17.5 L27.2734392,17.5 C28.7812507,17.5 30,18.7187505 30,20.226562 C30,21.031251 29.6484387,21.789062 29.0390646,22.3125005 L8.82031322,39.468751 C8.41406226,39.8125005 7.89843678,40 7.36484289,40 C5.87343693,40 4.79687452,38.5703135 5.20624995,37.1406245 L9.39062476,22.5 L2.63593793,22.5 C1.17968798,22.5 0,21.320312 0,19.8671877 C0,19.0937495 0.337109566,18.359375 0.922656059,17.8593755 L21.179688,0.538516045 C21.5859365,0.191016197 22.101562,0 22.6328135,0 L22.6328135,0 L22.6328146,0 Z M19.8125005,6.63984299 L5.65312505,18.75 L11.875,18.75 C12.4609375,18.75 13.0156255,19.0234375 13.3749998,19.4921875 C13.7265623,19.9687505 13.835938,20.5781245 13.679688,21.1406255 L10.1796877,33.3984375 L24.4921875,21.25 L18.125,21.25 C17.5390625,21.25 16.9843745,20.9765625 16.6250002,20.5078125 C16.2734377,20.0312495 16.164062,19.4218755 16.320312,18.8593745 L19.8125005,6.63984299 Z" id="Shape" fill="#FFFFFF" fill-rule="nonzero"></path>
                                </g>
                                <text id="-copy-3" font-family="FontAwesome6Pro-Regular, Font Awesome 6 Pro" font-size="40" font-weight="normal">
                                    <tspan x="656" y="35" fill="#FFFFFF"></tspan>
                                </text>
                                <text id="-copy-2" font-family="FontAwesome6Pro-Regular, Font Awesome 6 Pro" font-size="40" font-weight="normal">
                                    <tspan x="658.5" y="211" fill="#FFFFFF"></tspan>
                                </text>
                                <g id="-copy-3" stroke-width="1" fill-rule="evenodd" transform="translate(467.4324, 87.9983)">
                                    <path d="M20.075388,19.2204386 C19.0402317,19.2204386 18.2707,20.0602823 18.2707,21.0251266 C18.3585906,26.6696578 17.636013,32.1110636 16.1027312,37.5485641 C15.8253872,38.3845001 16.2082005,40.0016886 17.8410125,40.0016886 C18.661325,40.0016886 19.4128871,39.4645792 19.6472621,38.6345011 C20.7019496,34.8946577 21.9988251,28.8376266 21.9519496,21.0954386 C21.950388,20.0641876 21.1144495,19.2204386 20.075388,19.2204386 Z M20.0050747,12.8375757 C15.153513,12.8220016 11.8800747,16.5095013 11.950388,20.7360631 C12.0089817,24.4759065 11.6574192,28.2259065 10.9058571,31.8688756 C10.6910133,32.8141886 11.3452315,33.8704377 12.3605442,34.0852815 C13.3058572,34.2903596 14.3621063,33.6458284 14.5769501,32.6305944 C15.3871059,28.7149697 15.7581997,24.6930939 15.6996059,20.7477814 C15.6691372,18.6423141 17.184763,16.5720016 19.9503875,16.5876263 C22.4011683,16.6266888 24.4222617,18.5696572 24.4519496,20.9235626 C24.5203018,24.6032506 24.2371058,28.4430939 23.6222625,32.1345001 C23.4562469,33.0798131 24.1495275,34.116531 25.1746058,34.2923123 C26.7269492,34.5462185 27.2644496,33.1110626 27.3230433,32.7399689 C27.9674959,28.9040309 28.269918,24.8415309 28.2019496,20.9352809 C28.1300759,16.4938766 24.4582009,12.9001266 20.0050747,12.8375757 Z M11.3644505,11.2907511 C10.5519497,10.6345016 9.38007474,10.7516891 8.71601224,11.5563756 C6.72773123,14.0173131 5.64413667,17.1345013 5.69257498,20.3063756 C5.74139595,23.2454377 5.5070281,26.1946565 4.98952746,29.0641886 C4.80398059,30.0095016 5.47773123,31.0563761 6.49343491,31.241532 C8.06531072,31.5149695 8.61218572,30.0798136 8.61062288,29.7282511 C9.16718602,26.6134077 9.43093657,23.429814 9.37226415,20.2438766 C9.41132665,17.9157513 10.1613271,15.7282513 11.5597653,13.9313751 C12.2863269,13.1188756 12.1691394,11.9470006 11.3644528,11.2907511 L11.3644505,11.2907511 Z M19.8410153,6.41887724 C18.7082028,6.38996898 17.4972653,6.52668773 16.3332021,6.80950224 C15.3277338,6.97356283 14.7027338,7.98918783 14.9371088,9.0649706 C15.1812494,10.070439 16.1167967,10.6860644 17.1324217,10.4516894 C18.0675769,10.2595001 18.9503896,10.1579386 19.8644519,10.1657516 C25.7527328,10.2536422 30.6144524,14.9704391 30.7160139,20.681377 C30.7550764,23.6399704 30.608592,26.548565 30.2766395,29.5563775 C30.159452,30.5813771 30.9015608,31.4391905 31.9266391,31.62669 C33.2352328,31.712628 33.9188266,30.6993467 33.9969516,29.9766904 C34.3582797,26.8712217 34.514451,23.7462217 34.4656229,20.6251293 C34.3332028,12.9157501 27.8097653,6.53606474 19.8410153,6.41887724 Z M39.6066403,15.9079391 C39.382031,14.9626261 38.3949208,14.2477828 37.3699212,14.4720012 C36.4246082,14.6966106 35.7199216,15.7024699 35.94414,16.7079383 C36.3152337,18.3876258 36.3249993,19.6376258 36.3152337,21.5220004 C36.3054752,22.5571567 37.1355462,23.406375 38.1707025,23.4165317 C39.1957021,23.4165317 40.0550771,22.5868446 40.0652337,21.5516883 C40.075388,19.8298138 40.0910139,18.1110638 39.6066403,15.9079391 Z M36.4035153,8.82200061 C32.5949216,3.40246975 26.3722658,0.0954395451 19.7394526,0.00168859141 C14.2910147,-0.0666707836 9.25507784,1.94231331 5.50507784,5.70168792 C1.88242197,9.32434618 -0.068359375,14.1391879 0.009765625,19.2641884 L0,20.9438759 C0.0390541553,21.9860631 0.849609375,22.8454381 1.88476563,22.8766876 C1.90429688,22.8845006 1.92382812,22.8845006 1.94335938,22.8845006 C2.88867235,22.8845006 3.78867269,22.0743447 3.74804735,21.0587197 L3.75781298,19.2134076 C3.76914144,15.1110631 5.3214848,11.2516886 8.22382927,8.35325061 C11.2605488,5.32590686 15.3621113,3.6954385 19.7628927,3.75403225 C25.1824236,3.76184522 30.2863288,6.53684436 33.4035182,10.9704405 C33.9991426,11.8196589 35.1613307,12.025128 36.0105491,11.4294249 C36.7941427,10.8298141 37.0675802,9.67356264 36.4035177,8.82200061 L36.4035153,8.82200061 Z" id="Shape" fill="#FFFFFF" fill-rule="nonzero"></path>
                                </g>
                                <text id="-copy-3" font-family="FontAwesome6Pro-Regular, Font Awesome 6 Pro" font-size="40" font-weight="normal">
                                    <tspan x="658.5" y="123" fill="#FFFFFF"></tspan>
                                </text>
                                <g id="-copy-3" stroke-width="1" fill-rule="evenodd" transform="translate(377, 128)">
                                    <path d="M0,23.054688 C0,20.953126 0.790627003,18.9687502 2.0968771,17.4453127 C1.95234537,16.8593752 1.87500119,16.25 1.87500119,15.554688 C1.87500119,13.0781245 3.14531326,10.8281255 5.08828163,9.46875095 C5.43671966,7.21406221 6.78984523,5.29218674 8.67968917,4.17265654 C9.72656488,1.71875 12.1640646,0 15,0 C16.9687521,0 18.6796904,0.828905106 20,2.15625048 C21.2500024,0.828905106 23.0312514,0 25,0 C27.8359389,0 30.2734399,1.71875 31.3203144,4.17265654 C33.2109404,5.29218674 34.5625019,7.21406221 34.9140644,9.46875095 C36.8515658,10.8281255 38.1250024,13.0781245 38.1250024,15.554688 C38.1250024,16.25 38.0468774,16.8593752 37.9062533,17.4453127 C39.2109394,18.9687502 40,20.953126 40,23.054688 C40,25.5156255 39.0468764,27.671876 37.4296904,29.2499995 C37.4296904,29.289062 37.5,29.3359375 37.5,29.375 C37.5,33.0703115 34.8359394,36.1328125 31.3203144,36.7578125 C30.0390649,38.7109375 27.8281283,40 25.3125024,40 C23.2031274,40 21.3125014,39.0937495 20,37.585938 C18.6875021,39.0937495 16.7265654,40 14.6875024,40 C12.1718776,40 9.96093988,38.7109375 8.67968917,36.7578125 C5.16718864,36.1328125 2.5,33.0703115 2.5,29.375 C2.5,29.3359375 2.5,29.289062 2.50078201,29.2499995 C0.956250429,27.671876 0,25.5156255 0,23.054688 L0,23.054688 Z M18.1093752,33.125 L18.125,33.125 L18.125,6.80468798 C18.125,5.14921904 16.726563,3.67968798 15,3.67968798 C13.273437,3.67968798 11.875,5.14921904 11.875,6.80468798 L11.875,6.92656279 C10.2578127,7.19765663 8.99999976,8.49999905 8.78124952,10.1328135 C8.75781178,10.296874 8.74999881,10.460937 8.74999881,10.554688 C8.74999881,11.0703135 8.75781178,11.500001 8.96875024,11.8984365 C8.359375,11.960938 7.79453039,12.171874 7.30702996,12.492187 C6.40546679,13.0937505 5.77734113,14.070313 5.64921618,15.1953125 C5.6328094,15.3359377 5.62499642,15.4843748 5.62499642,15.554688 C5.62499642,16.7578125 6.13046527,17.7812505 6.92890286,18.4687495 C5.71718335,18.9374995 4.73593354,19.8749995 4.19843316,21.0546875 C3.91015172,21.6875005 3.67968321,22.3828125 3.67968321,23.125 C3.67968321,24.992187 4.77499604,26.624999 6.29296541,27.484374 C6.41249657,27.5468755 6.53515339,27.6093745 6.66015387,27.671876 C6.61327839,27.7578115 6.5703094,27.8515625 6.53046489,27.9453135 C6.34999633,28.3906245 6.24999642,28.8671875 6.24999642,29.375 C6.24999642,31.078124 7.38983989,32.5234365 8.9531219,32.976563 C9.28124785,33.0703115 9.63281035,33.125 9.99999762,33.125 C10.4374981,33.125 10.8593726,33.046875 11.2499976,32.9140615 C11.2734354,33.656249 11.5312481,34.3437505 11.9531226,34.8984385 C12.5859356,35.718751 13.5703099,36.25 14.6874976,36.25 C16.4140606,36.25 17.9531229,34.8749995 18.1093729,33.125 L18.1093752,33.125 Z M28.0546856,6.92656279 L28.1249976,6.80468798 C28.1249976,5.14921904 26.7265606,3.67968798 24.9999976,3.67968798 C23.2734346,3.67968798 21.8749976,5.14921904 21.8749976,6.80468798 L21.8749976,33.125 L21.8906236,33.125 C22.0468736,34.8749995 23.5156226,36.25 25.3124976,36.25 C26.4296842,36.25 27.4140596,35.718751 27.9765606,34.8984385 C28.4687471,34.3437505 28.7265611,33.656249 28.6796856,32.9140615 C29.0703106,33.046875 29.5624971,33.125 29.9999976,33.125 C30.3671861,33.125 30.7187486,33.0703115 31.0468721,32.976563 C32.6093721,32.5234365 33.7499976,31.078124 33.7499976,29.375 C33.7499976,28.8671875 33.6484361,28.3906245 33.4687471,27.9453135 C33.4296846,27.8515625 33.3906221,27.7578115 33.3437467,27.671876 C33.4687471,27.6093745 33.5859346,27.5468755 33.7031221,27.484374 C35.2265596,26.624999 36.2499976,24.992187 36.2499976,23.125 C36.2499976,22.3828125 36.0859346,21.6875005 35.8046842,21.0546875 C35.2656221,19.8749995 34.2812467,18.9374995 33.0703092,18.4687495 C33.8671851,17.7812505 34.3749976,16.7578125 34.3749976,15.554688 C34.3749976,15.4843748 34.3671846,15.3359377 34.3515611,15.1953125 C34.2265606,14.070313 33.5937476,13.0937505 32.6953101,12.492187 C32.2031236,12.171874 31.5703106,11.960938 31.0312486,11.8984365 C31.1718726,11.500001 31.2499976,11.0703135 31.2499976,10.554688 C31.2499976,10.460937 31.2421846,10.296874 31.2187481,10.1328135 C30.9999967,8.49999905 29.7421861,7.19765663 28.0546856,6.92656279 Z" id="Shape" fill="#FFFFFF" fill-rule="nonzero"></path>
                                </g>
                                <g id="-copy" stroke-width="1" fill-rule="evenodd" transform="translate(374.5, 216)">
                                    <path d="M40,0 L5,0 C2.23828077,0 0,2.23828077 0,5 L0,27.5 C0,30.2617192 2.23828077,32.5 5,32.5 L16.5859377,32.5 L15.8359373,36.25 L11.875,36.25 C10.8437502,36.25 10,37.093749 10,38.125 C10,39.156251 10.8437502,40 11.875,40 L33.125,40 C34.1601562,40 35,39.1601562 35,38.125 C35,37.0898438 34.1601562,36.25 33.125,36.25 L29.1617179,36.25 L28.4140635,32.5 L40,32.5 C42.7617168,32.5 45,30.2617192 45,27.5 L45,5 C45,2.23828077 42.7578115,0 40,0 Z M25.3359365,36.25 L19.6640623,36.25 L20.4140615,32.5 L24.5906234,32.5 L25.3359365,36.25 Z M41.2499988,27.5 C41.2499988,28.189218 40.6892204,28.75 40,28.75 L5,28.75 C4.31078076,28.75 3.74999881,28.189218 3.74999881,27.5 L3.74999881,5 C3.74999881,4.31078196 4.31078076,3.75 5,3.75 L40,3.75 C40.6892204,3.75 41.2499988,4.31078196 41.2499988,5 L41.2499988,27.5 Z" id="Shape" fill="#FFFFFF" fill-rule="nonzero"></path>
                                </g>
                                <text id="-copy-3" font-family="FontAwesome6Pro-Regular, Font Awesome 6 Pro" font-size="40" font-weight="normal">
                                    <tspan x="558" y="163" fill="#FFFFFF"></tspan>
                                </text>
                                <text id="-copy" font-family="FontAwesome6Pro-Regular, Font Awesome 6 Pro" font-size="40" font-weight="normal">
                                    <tspan x="560.5" y="251" fill="#FFFFFF"></tspan>
                                </text>
                            </g>
                        </g>
                    </g>
                    <rect id="Rectangle-Copy-12" fill="#9CDD7B" x="1226" y="23" width="254" height="325"></rect>
                    <rect id="Rectangle-Copy-13" fill="#DEE67B" x="1227" y="372" width="254" height="150"></rect>
                    <rect id="Rectangle-Copy-6" fill="#FADD82" x="0" y="0" width="417" height="221"></rect>
                    <rect id="Rectangle-Copy-7" fill="#DAA6BA" x="21" y="245" width="396" height="277"></rect>
                </g>
                <g id="-copy" transform="translate(1743, 37.5)" fill="#FFFFFF" fill-rule="nonzero" opacity="0.25">
                    <path d="M11.7734247,7.24764118 C15.2343624,4.55232868 19.6718627,2.49998579 24.9999874,2.49998579 C31.3124865,2.49998579 36.3671749,5.3781105 40.0468605,8.79686127 C43.7031143,12.1874858 46.1484259,16.1796738 47.3046749,19.0390481 C47.5624865,19.6562363 47.5624865,20.3437353 47.3046749,20.9609223 C46.257798,23.4843613 44.1562384,27.0390488 41.0624855,30.2109242 L49.2812365,36.6484238 C50.0937384,37.2890473 50.242173,38.4687353 49.6015518,39.2812348 C48.9609259,40.0937367 47.7812355,40.2421714 46.9687384,39.6015478 L0.71842368,3.35076818 C-0.0965768545,2.71170387 -0.239467069,1.53357992 0.399361208,0.718424416 C1.03826697,-0.0965761184 2.21639211,-0.239467525 3.03201731,0.399360752 L11.7734235,7.24764118 L11.7734247,7.24764118 Z M14.8281115,9.64842329 L18.4218615,12.4609233 C20.1796728,10.9296728 22.4843603,9.99998579 24.9999862,9.99998579 C30.5234247,9.99998579 34.9999862,14.4765473 34.9999862,19.9999858 C34.9999862,21.6562367 34.6015483,23.2109238 33.8906103,24.5859242 L38.0937367,27.8827978 C40.7109218,25.2187348 42.6484257,22.1171738 43.6406093,19.9999858 C42.5077968,17.5859238 40.4999882,14.3359233 37.4921733,11.5390492 C34.2812353,8.56248627 30.0937372,6.17967377 24.9999862,6.17967377 C21.0546737,6.17967377 17.5859242,7.6351429 14.8281115,9.64842329 Z M30.8515483,22.2031117 C31.1093622,21.5156103 31.2499862,20.7734228 31.2499862,19.9296738 C31.2499862,16.546861 28.4531122,13.6796738 24.9999862,13.6796738 C24.9452978,13.6796738 24.8984247,13.7499858 24.7734242,13.7499858 C24.9452978,14.1484238 24.9999862,14.5702983 24.9999862,14.9296738 C24.9999862,15.7968606 24.8124867,16.546861 24.4843608,17.2109235 L30.8515483,22.2031117 Z M30.7499867,36.6718603 L4.26951702,15.9140469 C4.89061053,14.8515476 5.63123639,13.7343586 6.49139221,12.6171721 L34.8593622,34.9609221 C33.5781103,35.6562341 32.2109228,36.2343586 30.7499867,36.6718603 L30.7499867,36.6718603 Z M2.69217308,20.9609211 C2.47967298,20.4531086 2.44295414,19.8827971 2.5843602,19.3593598 L8.85154779,24.2656101 C9.85154803,25.6796731 11.0702985,27.1249856 12.5077992,28.4609211 C14.5781117,30.3827966 17.0624858,31.9609226 19.9296742,32.9531086 L25.7187372,37.4843586 C25.4765492,37.4921716 25.2421742,37.4999846 24.9999862,37.4999846 C18.687486,37.4999846 13.6327987,34.6249856 9.95311077,31.2031091 C6.29842336,27.7421726 3.85467346,23.7499846 2.69217308,20.9609211 Z" id="Shape"></path>
                </g>
                <g id="-copy" transform="translate(1843.5004, 0)" fill="#FFFFFF" fill-rule="nonzero" opacity="0.25">
                    <path d="M28.99183,30 L10.86683,30 C10.349408,30 9.99964201,30.4199219 9.99964201,30.9375 L9.99964201,34.0625 C9.99964201,34.5800781 10.4195639,35 10.86683,35 L28.921518,35 C29.4390961,35 29.7887059,34.5800781 29.7887059,34.0625 L29.7887059,30.9375 C29.991829,30.4218745 29.5777675,30 28.99183,30 Z M10.86683,27.5 L13.921518,27.5 C14.4390961,27.5 14.7887059,27.0800781 14.7887059,26.5625 L14.7887059,23.4375 C14.7887059,22.9199219 14.3683931,22.5 13.8512059,22.5 L10.796518,22.5 C10.279096,22.5 9.85979878,22.9199219 9.85979878,23.4375 L9.85979878,26.5625 C9.92932879,27.0781255 10.4215165,27.5 10.86683,27.5 Z M6.55979835,22.5 L3.43479835,22.5 C2.91722023,22.5 2.49886119,22.9199219 2.49886119,23.4375 L2.49886119,26.5625 C2.49886119,27.0800781 2.9186269,27.5 3.36604916,27.5 L6.42073714,27.5 C6.9381591,27.5 7.28792512,27.0800781 7.28792512,26.5625 L7.28792512,23.4375 C7.49808156,22.9218745 7.07698666,22.5 6.55979955,22.5 L6.55979835,22.5 Z M6.56058156,30 L3.43636238,30 C2.91878425,30 2.5691744,30.4199219 2.5691744,30.9375 L2.5691744,34.0625 C2.5691744,34.5800781 2.98894011,35 3.43636238,35 L6.49105036,35 C7.00847232,35 7.35823833,34.5800781 7.35823833,34.0625 L7.35823833,30.9375 C7.49808275,30.4218745 7.07855069,30 6.56058156,30 Z M21.4918312,27.5 C22.0092519,27.5 22.3590192,27.0800781 22.3590192,26.5625 L22.3590192,23.4375 C22.3590192,22.9199219 21.9390973,22.5 21.4918312,22.5 L18.4371432,22.5 C17.9195651,22.5 17.5699552,22.9199219 17.5699552,23.4375 L17.5699552,26.5625 C17.5699552,27.0800781 17.9897209,27.5 18.4371432,27.5 L21.4918312,27.5 Z M36.4918312,22.5 L33.4371432,22.5 C32.9195651,22.5 32.4988612,22.9199219 32.4988612,23.4375 L32.4988612,26.5625 C32.4988612,27.0800781 32.9186257,27.5 33.3660492,27.5 L36.4207371,27.5 C36.9381579,27.5 37.2879251,27.0800781 37.2879251,26.5625 L37.2879251,23.4375 C37.4918302,22.9218745 37.0777687,22.5 36.4918312,22.5 Z M36.5543302,30 L33.4293302,30 C32.9117521,30 32.5621422,30.4199219 32.5621422,30.9375 L32.5621422,34.0625 C32.5621422,34.5800781 32.9819068,35 33.4293302,35 L36.4840182,35 C37.001439,35 37.3512062,34.5800781 37.3512062,34.0625 L37.3512062,30.9375 C37.4918302,30.4218745 37.0777687,30 36.5543302,30 Z M28.9918312,22.5 L25.9371432,22.5 C25.4197224,22.5 24.9996432,22.9199219 24.9996432,23.4375 L24.9996432,26.5625 C24.9996432,27.0800781 25.4195651,27.5 25.8668312,27.5 L28.9215192,27.5 C29.4390973,27.5 29.7887071,27.0800781 29.7887071,26.5625 L29.7887071,23.4375 C29.9918302,22.9218745 29.5777687,22.5 28.9918312,22.5 Z M38.9449557,7.8515625 C33.8980802,2.7906251 27.1637067,0 19.9996432,0 C12.8355797,0 6.10511147,2.78828144 1.05198585,7.8515625 C-0.133170254,9.03828144 -0.339420206,10.859375 0.547844999,12.2781253 L3.53222095,17.0609379 C4.44393956,18.5281253 6.27831542,19.1312504 7.900972,18.4937501 L13.8790973,16.0984373 C15.3447219,15.5076563 16.2580033,13.9937496 16.1009725,12.421875 L15.8746442,10.1874995 C18.574644,9.51609373 21.423082,9.51609373 24.1246434,10.1874995 L23.9037057,12.4046874 C23.7327691,13.991406 24.6506592,15.5124998 26.1302682,16.100781 L32.103705,18.4960938 C32.5358149,18.6670303 32.9849549,18.75 33.4271427,18.75 C34.6318313,18.75 35.7927676,18.1396866 36.4615174,17.0656252 L39.446673,12.2804689 C40.3355809,10.859375 40.1324578,9.03906345 38.9449569,7.8515625 L38.9449557,7.8515625 Z M33.4996434,15.0156248 L27.6387068,12.7937496 L28.0146452,9.01718616 C28.1012865,8.15078259 27.580113,7.3398447 26.7560502,7.05703259 C22.4013635,5.56797028 17.6076122,5.56797028 13.25605,7.05703259 C12.431831,7.34023571 11.9107374,8.15078259 11.9974562,9.01718616 L12.4831589,12.6234376 L6.71370708,15.078125 L3.70511257,10.4999995 C8.05433118,6.14843845 13.8355824,3.75 19.9996444,3.75 C26.118395,3.75 31.8668314,6.11328125 36.2027689,10.4101562 L33.4996434,15.0156248 Z" id="Shape"></path>
                </g>
                <g id="" transform="translate(1843.5, 173.5)" fill="#FFFFFF" fill-rule="nonzero" opacity="0.25">
                    <path d="M1.20704385,29.9609375 C1.45501229,30.2610946 1.73180911,30.5298448 2.03204366,30.7640624 C2.05386373,31.9476557 2.47134062,33.0953121 3.23829385,34.0234375 C3.48626229,34.3235946 3.76305911,34.5922661 4.06329366,34.8265624 C4.08511373,36.0101557 4.50259062,37.1578121 5.26954385,38.0859375 C6.27501222,39.304688 7.75782558,40 9.33595034,40 L22.4687633,40 C27.0718894,40 31.0468898,37.2492194 32.8281388,33.3046865 L36.4687643,29.7093749 C38.7265763,27.5546885 39.9531374,24.695313 40.0000128,21.5937495 L40.0000128,14.3882799 C39.9617943,11.5124989 37.573224,9.17265415 34.6419749,9.17265415 C34.5225224,9.17342186 34.4040832,9.17830467 34.2867407,9.18699741 L32.7914271,4.45262432 C32.0739278,2.17996836 30.1062712,0.71199894 27.7781472,0.71199894 C27.2642407,0.71199894 26.7586169,0.785396099 26.2758026,0.925045013 C25.4297003,0.332655907 24.3984494,0 23.2890758,0 C21.5789208,0 19.9609503,0.813281536 18.963295,2.17499971 C18.6718878,2.57265568 18.4453258,3.00156116 18.2812628,3.45156193 C17.257044,3.80117178 16.3500127,4.453125 15.702357,5.33671856 C15.4114971,5.73374987 15.1831386,6.16250038 15.0192318,6.61250114 C14.0000126,6.96171761 13.0859503,7.61406183 12.4453256,8.5 C11.4609501,9.77343798 11.1875126,11.546874 11.7109499,13.187499 L12.6812622,16.2585938 C12.5781378,16.4687502 12.4921999,16.6953123 12.3515758,16.9218755 C12.3828253,17.039063 12.3515758,17.1484375 12.3281381,17.195313 L7.36173126,17.195313 C4.80391833,17.195313 2.6023564,18.9882815 2.19766828,21.4585948 C2.06876132,21.8359375 2.03672978,22.1484375 2.03204247,22.4531245 C1.05079266,23.210938 0.342511861,24.312501 0.0966522378,25.5937505 C-0.203035148,27.1484375 0.201652972,28.742187 1.20704385,29.9609375 Z M18.9062628,13.4140635 C18.3672008,13.28125 17.9531381,13.132813 17.4609503,13.132813 C16.8589971,13.132813 16.2812624,13.2411718 15.737513,13.4282041 L15.2812633,12.0546865 C14.9104819,10.8812499 15.8394668,10.0718737 16.7664191,10.0718737 C17.3614976,10.0718737 17.9554817,10.4059362 18.2039187,11.1914063 L18.9062628,13.4140635 Z M21.4687619,8.03124905 L23.5921988,14.7867203 C23.6028776,14.8202896 23.6337075,14.8373842 23.6501822,14.8669529 L20.0853381,13.7669516 L18.5468874,8.89062405 C18.1762621,7.7171874 19.1051683,6.90781355 20.0320444,6.90781355 C20.6250128,6.91093683 21.2187633,7.24531174 21.4687619,8.03124905 Z M25.8515749,15.546875 L24.2882929,15.0643754 C24.5039186,14.9531269 24.6323547,14.7190619 24.5568857,14.4799232 L21.8037615,5.80023527 C21.4331374,4.62679625 22.3620424,3.81742239 23.2889185,3.81742239 C23.8839969,3.81742239 24.4779811,4.15148497 24.726418,4.93695259 L27.7686057,14.5697665 C27.8369651,14.7863293 28.0370435,14.9248457 28.2525906,14.9248457 C28.3032474,14.9248457 28.3548555,14.9170637 28.4057936,14.9010396 C28.6732945,14.8165083 28.8215742,14.5312738 28.7370429,14.263773 L26.2893877,6.51611805 C25.9189186,5.34267902 26.8479809,4.53330517 27.7745447,4.53330517 C28.3696232,4.53330517 28.9636073,4.86736774 29.2120442,5.65283775 L33.0190763,17.7075243 L33.1513414,14.5309615 C33.1456933,13.6903381 33.8234505,13.0036163 34.6661839,12.9973674 C35.502902,12.9973674 36.2357149,13.6687732 36.2466535,14.5122099 L36.2466535,21.5937495 C36.212779,23.7156248 35.3279028,25.632031 33.9732155,27.0398426 L33.9732155,26.5976548 C33.9062628,21.5937495 30.6328258,17.1640623 25.8515749,15.546875 Z M3.77891871,26.2968755 C3.91790363,25.5734372 4.59376308,25.0757813 5.33048126,25.0757813 L15.432044,25.0757813 C15.7125125,25.0757813 15.9398565,24.8484373 15.9398565,24.5679688 C15.9398565,24.2875004 15.7125125,24.0601563 15.432044,24.0601563 L7.30470034,24.0601563 C6.36485669,24.0601563 5.62345001,23.2078123 5.8101699,22.2343755 C5.94915482,21.5109372 6.62501427,21.0132813 7.36173364,21.0132813 L20.0023577,21.0132813 L17.0078263,19.929688 C16.2109515,19.617188 15.7578263,18.828125 16.0078261,18.0234373 C16.2114975,17.3698437 16.8125138,16.9507813 17.4664197,16.9507813 C17.6144669,16.9507813 17.7650139,16.9722974 17.9143879,17.017312 L24.7518871,19.1282499 C27.9987619,20.2110624 30.1596996,23.2087183 30.1596996,26.5969992 L30.1596996,28.6305928 C30.1596996,32.8376245 26.7495439,36.2477803 22.5425121,36.2477803 L9.33595154,36.2477803 C8.39610788,36.2477803 7.6547012,35.3954363 7.8414211,34.4219995 C7.98040601,33.6985612 8.65626547,33.2009053 9.39298484,33.2009053 L15.4297039,33.2009053 C15.7101724,33.2009053 15.9375164,32.9735613 15.9375164,32.6930928 C15.9375164,32.4126244 15.7101724,32.1852803 15.4297039,32.1852803 L7.30470392,32.1852803 C6.36486026,32.1852803 5.62345359,31.3329363 5.81017348,30.3594995 C5.9491584,29.6360612 6.62501785,29.1384053 7.36173722,29.1384053 L15.43205,29.1384053 C15.7125184,29.1384053 15.9398625,28.9110613 15.9398625,28.6305928 C15.9398625,28.3501244 15.7125184,28.1227803 15.43205,28.1227803 L5.2734563,28.1227803 C4.33361265,28.054688 3.59220597,27.273438 3.77892467,26.2968755 L3.77891871,26.2968755 Z" id="Shape"></path>
                </g>
                <g id="-copy" transform="translate(1748, 125.5)" fill="#FFFFFF" fill-rule="nonzero" opacity="0.25">
                    <path d="M18.75,4.92968798 C11.101563,4.92968798 5,11.3515615 5,19.148438 C5,20.1835942 5.83984375,21.023438 6.875,21.023438 C7.91015625,21.023438 8.75,20.1835942 8.75,19.148438 C8.75,13.4140635 13.2343745,8.75 18.75,8.75 C24.2656255,8.75 28.75,13.4156251 28.75,19.148438 C28.75,22.8179693 27.3812509,26.2726569 24.8976564,28.8750005 L24.4582033,29.3364072 L24.3910623,29.9711728 C24.0156245,33.5546875 21.1249995,36.25 17.6718748,36.25 C16.6367185,36.25 15.7968748,37.0898438 15.7968748,38.125 C15.7968748,39.1601562 16.6367185,40 17.6718748,40 C22.8367186,40 27.1875,36.178906 28.031249,31.007812 C30.921874,27.7656245 32.5,23.578124 32.5,19.148438 C32.5,11.3515615 26.328125,4.92968798 18.75,4.92968798 Z M13.125,25 C12.6452339,25 12.1656251,25.1831245 11.7992187,25.5492973 L0.549218655,36.7992973 C0.183124542,37.1640635 0,37.648437 0,38.125 C0,39.1953135 0.875781775,40 1.875,40 C2.35476613,40 2.8343761,39.8168755 3.20078254,39.4507027 L14.4507825,28.2007027 C14.8203135,27.8359365 15,27.351563 15,26.875 C15,25.8046865 14.1250014,25 13.1250012,25 L13.125,25 Z M40.0000012,1.875 C40.0000012,0.803906918 39.1250002,0 38.1250012,0 C37.6452363,0 37.1656263,0.183124542 36.7992198,0.549297333 L31.7992198,5.54929733 C31.4296877,5.9156251 31.2500012,6.39531136 31.2500012,6.875 C31.2500012,7.94609308 32.1257818,8.75 33.1250012,8.75 C33.6047661,8.75 34.0843761,8.56687546 34.4507825,8.20070267 L39.4507825,3.20070267 C39.8203146,2.8343749 40.0000012,2.35468864 40.0000012,1.875 Z M18.7500012,15.625 C20.4734385,15.625 21.8750012,17.0265627 21.8750012,18.75 C21.8750012,19.7851562 22.7148449,20.625 23.7500012,20.625 C24.7851574,20.625 25.6250012,19.7851562 25.6250012,18.75 C25.6250012,14.9585938 22.5414073,11.875 18.7500012,11.875 C14.958595,11.875 11.8750012,14.9609375 11.8750012,18.75 C11.8750012,19.7851562 12.7148449,20.625 13.7500012,20.625 C14.7851574,20.625 15.6250012,19.7890627 15.6250012,18.75 C15.6250012,17.023437 17.0234382,15.625 18.7500012,15.625 Z" id="Shape"></path>
                </g>
                <g id="" transform="translate(1745.5, 218.5)" fill="#FFFFFF" fill-rule="nonzero" opacity="0.25">
                    <path d="M40,0 L5,0 C2.23828077,0 0,2.23828077 0,5 L0,25 C0,27.7617192 2.23828077,30 5,30 L40,30 C42.7617168,30 45,27.7617192 45,25 L45,5 C45,2.23828077 42.7578115,0 40,0 Z M41.2499988,25 C41.2499988,25.689218 40.6892204,26.25 40,26.25 L5,26.25 C4.31078076,26.25 3.74999881,25.689218 3.74999881,25 L3.74999881,5 C3.74999881,4.31078196 4.31078076,3.75 5,3.75 L40,3.75 C40.6892204,3.75 41.2499988,4.31078196 41.2499988,5 L41.2499988,25 Z M10.9375,6.875 L9.0625,6.875 C8.54249954,6.875 8.12499881,7.29249954 8.12499881,7.8125 L8.12499881,9.6875 C8.12499881,10.2075005 8.54249954,10.625 9.0625,10.625 L10.9375,10.625 C11.4575005,10.625 11.875,10.2075005 11.875,9.6875 L11.875,7.8125 C11.875,7.28906155 11.4609373,6.875 10.9375,6.875 Z M15.3125,10.625 L17.1875,10.625 C17.7075005,10.625 18.125,10.2075005 18.125,9.6875 L18.125,7.8125 C18.125,7.29249954 17.7075005,6.875 17.1875,6.875 L15.3125,6.875 C14.7924995,6.875 14.375,7.29249954 14.375,7.8125 L14.375,9.6875 C14.375,10.2109373 14.7890627,10.625 15.3125,10.625 Z M21.5625,10.625 L23.4375,10.625 C23.9575005,10.625 24.375,10.2075005 24.375,9.6875 L24.375,7.8125 C24.375,7.29249954 23.9575005,6.875 23.4375,6.875 L21.5625,6.875 C21.0424995,6.875 20.625,7.29249954 20.625,7.8125 L20.625,9.6875 C20.625,10.2109373 21.0390615,10.625 21.5625,10.625 Z M27.8125,10.625 L29.6875,10.625 C30.2075005,10.625 30.625,10.2075005 30.625,9.6875 L30.625,7.8125 C30.625,7.29249954 30.2075005,6.875 29.6875,6.875 L27.8125,6.875 C27.2924995,6.875 26.875,7.29249954 26.875,7.8125 L26.875,9.6875 C26.875,10.2109373 27.2890615,10.625 27.8125,10.625 Z M35.9375,6.875 L34.0625,6.875 C33.5424995,6.875 33.125,7.29249954 33.125,7.8125 L33.125,9.6875 C33.125,10.2075005 33.5424995,10.625 34.0625,10.625 L35.9375,10.625 C36.4575005,10.625 36.875,10.2075005 36.875,9.6875 L36.875,7.8125 C36.875,7.28906155 36.4609385,6.875 35.9375,6.875 Z M10.9375,13.125 L9.0625,13.125 C8.54249954,13.125 8.12499881,13.5424995 8.12499881,14.0625 L8.12499881,15.9375 C8.12499881,16.4575005 8.54249954,16.875 9.0625,16.875 L10.9375,16.875 C11.4575005,16.875 11.875,16.4575005 11.875,15.9375 L11.875,14.0625 C11.875,13.5390627 11.4609373,13.125 10.9375,13.125 Z M15.3125,16.875 L17.1875,16.875 C17.7075005,16.875 18.125,16.4575005 18.125,15.9375 L18.125,14.0625 C18.125,13.5424995 17.7075005,13.125 17.1875,13.125 L15.3125,13.125 C14.7924995,13.125 14.375,13.5424995 14.375,14.0625 L14.375,15.9375 C14.375,16.4609385 14.7890627,16.875 15.3125,16.875 Z M21.5625,16.875 L23.4375,16.875 C23.9575005,16.875 24.375,16.4575005 24.375,15.9375 L24.375,14.0625 C24.375,13.5424995 23.9575005,13.125 23.4375,13.125 L21.5625,13.125 C21.0424995,13.125 20.625,13.5424995 20.625,14.0625 L20.625,15.9375 C20.625,16.4609385 21.0390615,16.875 21.5625,16.875 Z M27.8125,16.875 L29.6875,16.875 C30.2075005,16.875 30.625,16.4575005 30.625,15.9375 L30.625,14.0625 C30.625,13.5424995 30.2075005,13.125 29.6875,13.125 L27.8125,13.125 C27.2924995,13.125 26.875,13.5424995 26.875,14.0625 L26.875,15.9375 C26.875,16.4609385 27.2890615,16.875 27.8125,16.875 Z M35.9375,13.125 L34.0625,13.125 C33.5424995,13.125 33.125,13.5424995 33.125,14.0625 L33.125,15.9375 C33.125,16.4575005 33.5424995,16.875 34.0625,16.875 L35.9375,16.875 C36.4575005,16.875 36.875,16.4575005 36.875,15.9375 L36.875,14.0625 C36.875,13.5390627 36.4609385,13.125 35.9375,13.125 Z M31.25,20 L13.75,20 C13.054688,20 12.5,20.554688 12.5,21.25 L12.5,22.5 C12.5,23.1933594 13.0566406,23.75 13.75,23.75 L31.25,23.75 C31.9433594,23.75 32.5,23.1933594 32.5,22.5 L32.5,21.25 C32.5,20.554688 31.945312,20 31.25,20 Z" id="Shape"></path>
                </g>
                <g id="-copy" transform="translate(1841, 88)" fill="#FFFFFF" fill-rule="nonzero" opacity="0.25">
                    <path d="M40,0 L5,0 C2.23828077,0 0,2.23828077 0,5 L0,30 C0,32.7617192 2.23828077,35 5,35 L40,35 C42.7617168,35 45,32.7617192 45,30 L45,5 C45,2.23828077 42.7578115,0 40,0 Z M41.2499988,30 C41.2499988,30.689218 40.6892204,31.25 40,31.25 L5,31.25 C4.31078076,31.25 3.74999881,30.689218 3.74999881,30 L3.74999881,5 C3.74999881,4.31078196 4.31078076,3.75 5,3.75 L40,3.75 C40.6892204,3.75 41.2499988,4.31078196 41.2499988,5 L41.2499988,30 Z M16.6796875,11.0390615 C16.0449219,9.7695303 13.9601564,9.7695303 13.3249998,11.0390615 L7.69999981,22.2890615 C7.23609328,23.2156229 7.61210918,24.3414044 8.53984356,24.8046875 C9.46796894,25.2710152 10.5929697,24.8925781 11.0546887,23.9664054 L11.7812514,22.5 L18.218751,22.5 L18.9505482,23.9632821 C19.2812514,24.617188 19.937501,25 20.6250012,25 C20.905782,25 21.1914074,24.9365234 21.4601576,24.8022652 C22.388283,24.3383598 22.7640641,23.213203 22.3000014,22.2866392 L16.6796887,11.0390615 L16.6796875,11.0390615 Z M13.3437514,19.375 L15.0000012,16.0703123 L16.656251,19.375 L13.3437514,19.375 Z M30.0000012,10 L25.6250012,10 C24.5898449,10 23.7500012,10.8398438 23.7500012,11.875 L23.7500012,23.125 C23.7500012,24.1601562 24.5898449,25 25.6250012,25 L30.0000012,25 C34.1359389,25 37.5000012,21.6359377 37.5000012,17.5 C37.5000012,13.3640623 34.1328132,10 30.0000012,10 Z M30.0000012,21.25 L27.5000012,21.25 L27.5000012,13.75 L30.0000012,13.75 C32.06797,13.75 33.7500012,15.4320312 33.7500012,17.5 C33.7500012,19.5679688 32.0703137,21.25 30.0000012,21.25 Z" id="Shape"></path>
                </g>
            </g>
        </g>
    </g>
</svg>