<?xml version="1.0" encoding="UTF-8"?>
<svg width="701.000441px" height="256.000393px" viewBox="0 0 701.000441 256.000393" version="1.1" xmlns="http://www.w3.org/2000/svg" xmlns:xlink="http://www.w3.org/1999/xlink">
    <title>icon grid</title>
    <g id="Page-1" stroke="none" stroke-width="1" fill="none" fill-rule="evenodd">
        <g id="icon-grid" fill="#000000" fill-rule="nonzero">
            <g id="-copy-2" transform="translate(0.000000, 39.999953)">
                <path d="M3.03168893,0.398877452 C2.21918941,-0.241748502 1.03950143,-0.0933114783 0.398876669,0.719190429 C-0.241748092,1.53168995 -0.0933110691,2.71137793 0.719188454,3.3520015 L46.9691885,39.6020015 C47.7816904,40.2426251 48.961376,40.0941904 49.6020019,39.2816885 C50.2426279,38.4691866 50.0941885,37.289501 49.2816913,36.6488751 L41.0629356,30.2113779 C44.1566837,27.0395025 46.2504375,23.484815 47.305125,20.9613784 C47.5629365,20.3441914 47.5629365,19.6566911 47.305125,19.0395029 C46.1410606,16.2504407 43.695749,12.1879395 40.0395,8.79731495 C36.367625,5.37543852 31.3129365,2.50043948 25.0004375,2.50043948 C19.6723127,2.50043948 15.2348125,4.55512602 11.7738748,7.25043852 L3.03168774,0.398877452 L3.03168893,0.398877452 Z M14.8285627,9.641064 C17.6566875,7.63325293 21.055125,6.25043948 25.0004375,6.25043948 C30.0941885,6.25043948 34.2816865,8.56293995 37.4926245,11.5395029 C40.5004394,14.336377 42.5785625,17.6566895 43.6410606,20.0004395 C42.6566875,22.1879395 40.7816875,25.2191885 38.1019986,27.8832515 L33.8988745,24.5863755 C34.6098125,23.2113751 35.0082505,21.656688 35.0082505,20.0004383 C35.0082505,14.477001 30.5316889,10.0004395 25.0082505,10.0004395 C22.4926245,10.0004395 20.187937,10.9301241 18.4301257,12.461377 L14.8285627,9.641064 L14.8285627,9.641064 Z M30.8519995,22.2035654 L24.484812,17.2113784 C24.812938,16.5473159 25.0004375,15.7895036 25.0004375,15.0004407 C25.0004375,14.570752 24.945749,14.1488798 24.8441875,13.7504395 C24.898876,13.7504395 24.945749,13.7504395 25.0004375,13.7504395 C28.4535635,13.7504395 31.2504375,16.5473159 31.2504375,20.0004395 C31.2504375,20.7738765 31.1098135,21.516064 30.8519995,22.2035654 Z M34.8598111,34.961377 L6.49262548,12.617627 C5.63325048,13.7426265 4.89106298,14.8598154 4.27387476,15.9145017 L30.7582498,36.6723152 C32.2191882,36.2426277 33.5863757,35.6566902 34.8676252,34.9691911 L34.8598111,34.961377 Z M2.69574881,20.9613748 C3.85981202,23.7504383 6.30512476,27.8129383 9.961375,31.2035628 C13.63325,34.6254392 18.6879373,37.5004383 25.0004375,37.5004383 C25.2426255,37.5004383 25.4770005,37.4926253 25.7191885,37.4848123 L19.9379385,32.9535623 C17.0707512,32.0316883 14.586376,30.3832503 12.5160635,28.4613748 C11.0863757,27.1332498 9.85981345,25.6801244 8.85981322,24.2738744 L2.58637429,19.3598135 C2.44574905,19.8910638 2.48481155,20.4535623 2.69574881,20.9613748 Z" id="Shape"></path>
            </g>
            <g id="-copy-2" transform="translate(191.000439, 40.001271)">
                <path d="M25.703125,22.3975601 C26.5859365,21.319436 28.0703115,20.9522476 29.3515635,21.5069355 L38.1015635,25.2569355 C39.4765639,25.842873 40.2421904,27.327248 39.929688,28.7803735 L38.054688,37.5303735 C37.742188,38.967873 36.4687514,39.9991216 35,39.9991216 C34.523437,39.9991216 34.046874,39.9913086 33.578124,39.9678721 L33.5703111,39.9678721 C32.7890611,39.9366226 32.023437,39.8819341 31.2578106,39.7959961 C13.6874998,37.9366221 0,23.0616226 0,4.9991216 C0,3.52255958 1.03124976,2.24912065 2.46875048,1.94443363 L11.2187517,0.069433627 C12.6796889,-0.243066373 14.1562521,0.522560058 14.7421896,1.89755815 L18.4921896,10.6475582 C19.0390646,11.9288101 18.6796892,13.4131851 17.6015651,14.2959966 L14.4296896,16.8897464 C16.5156269,20.4834976 19.5156276,23.4834971 23.1093776,25.5694332 L25.7031262,22.3975601 L25.703125,22.3975601 Z M36.1562502,28.499123 L28.3125007,25.139748 L26.0156262,27.9366221 C24.8515642,29.358498 22.8281271,29.7256841 21.2343752,28.8038101 C17.0703125,26.389748 13.601563,22.9209985 11.1874998,18.7569346 C10.2656245,17.1631851 10.6328118,15.1397468 12.0546877,13.975686 L14.8593748,11.6788091 L11.4999998,3.83505958 L3.75781298,5.5069341 C4.02343869,22.3584976 17.6406264,35.9756841 34.4921887,36.2491216 L36.1562502,28.4991207 L36.1562502,28.499123 Z M23.7500012,4.9991216 L26.2500012,4.9991216 C26.9375002,4.9991216 27.5000012,5.56162256 27.5000012,6.2491216 L27.5000012,8.7491216 C27.5000012,9.43662065 26.9375002,9.9991216 26.2500012,9.9991216 L23.7500012,9.9991216 C23.0625021,9.9991216 22.5000012,9.43662065 22.5000012,8.7491216 L22.5000012,6.2491216 C22.5000012,5.56162256 23.0625021,4.9991216 23.7500012,4.9991216 Z M22.5000012,13.7491216 C22.5000012,13.0616226 23.0625021,12.4991216 23.7500012,12.4991216 L26.2500012,12.4991216 C26.9375002,12.4991216 27.5000012,13.0616226 27.5000012,13.7491216 L27.5000012,16.2491216 C27.5000012,16.9366218 26.9375002,17.4991216 26.2500012,17.4991216 L23.7500012,17.4991216 C23.0625021,17.4991216 22.5000012,16.9366218 22.5000012,16.2491216 L22.5000012,13.7491216 Z M31.2500012,4.9991216 L33.7500012,4.9991216 C34.4375002,4.9991216 35.0000012,5.56162256 35.0000012,6.2491216 L35.0000012,8.7491216 C35.0000012,9.43662065 34.4375002,9.9991216 33.7500012,9.9991216 L31.2500012,9.9991216 C30.5625021,9.9991216 30.0000012,9.43662065 30.0000012,8.7491216 L30.0000012,6.2491216 C30.0000012,5.56162256 30.5625021,4.9991216 31.2500012,4.9991216 Z M37.5000012,6.2491216 C37.5000012,5.56162256 38.0625021,4.9991216 38.7500012,4.9991216 L41.2500012,4.9991216 C41.9375002,4.9991216 42.5000012,5.56162256 42.5000012,6.2491216 L42.5000012,8.7491216 C42.5000012,9.43662065 41.9375002,9.9991216 41.2500012,9.9991216 L38.7500012,9.9991216 C38.0625021,9.9991216 37.5000012,9.43662065 37.5000012,8.7491216 L37.5000012,6.2491216 Z M46.2500012,4.9991216 L48.7500012,4.9991216 C49.4375002,4.9991216 50.0000012,5.56162256 50.0000012,6.2491216 L50.0000012,8.7491216 C50.0000012,9.43662065 49.4375002,9.9991216 48.7500012,9.9991216 L46.2500012,9.9991216 C45.5625021,9.9991216 45.0000012,9.43662065 45.0000012,8.7491216 L45.0000012,6.2491216 C45.0000012,5.56162256 45.5625021,4.9991216 46.2500012,4.9991216 Z M45.0000012,13.7491216 C45.0000012,13.0616226 45.5625021,12.4991216 46.2500012,12.4991216 L48.7500012,12.4991216 C49.4375002,12.4991216 50.0000012,13.0616226 50.0000012,13.7491216 L50.0000012,16.2491216 C50.0000012,16.9366218 49.4375002,17.4991216 48.7500012,17.4991216 L46.2500012,17.4991216 C45.5625021,17.4991216 45.0000012,16.9366218 45.0000012,16.2491216 L45.0000012,13.7491216 Z M31.2500012,12.4991216 L41.2500012,12.4991216 C41.9375002,12.4991216 42.5000012,13.0616226 42.5000012,13.7491216 L42.5000012,16.2491216 C42.5000012,16.9366218 41.9375002,17.4991216 41.2500012,17.4991216 L31.2500012,17.4991216 C30.5625021,17.4991216 30.0000012,16.9366218 30.0000012,16.2491216 L30.0000012,13.7491216 C30.0000012,13.0616226 30.5625021,12.4991216 31.2500012,12.4991216 Z" id="Shape"></path>
            </g>
            <g id="-copy-2" transform="translate(100.521753, 2.500393)">
                <path d="M28.8849352,12.25 L28.8849352,14.2734373 L34.8693107,15.5937493 L36.1036848,11.4218736 C36.3614963,10.546875 36.0802482,10.062499 35.9083723,9.90624905 C32.8693102,7.14062452 27.2755598,3.75 19.9786852,3.75 C12.6818107,3.75 7.08806025,7.14062452 4.04899823,9.89062548 C3.87712346,10.0468755 3.59587299,10.531249 3.85368573,11.40625 L5.08806096,15.5781245 L11.0724352,14.2656255 L11.0724352,12.25 C11.0724352,10.7265615 11.9943105,9.35156345 13.4083723,8.77343655 C17.6193093,7.06249952 22.3302458,7.06249952 26.5411852,8.77343655 C27.9552482,9.35156345 28.8771223,10.718751 28.8771223,12.25 L28.8849352,12.25 Z M25.1349352,14.2734373 L25.1349352,12.249999 C21.8302487,10.9062505 18.127123,10.9062505 14.8224352,12.249999 L14.8224352,14.2734373 C14.8224352,16.0312498 13.595873,17.5546885 11.877123,17.9375005 L5.89274751,19.2499995 C3.97087203,19.671874 2.04899656,18.5390615 1.4864968,16.6484368 L0.252121557,12.4765635 C-0.310378204,10.562501 0.0489972725,8.46093655 1.5255593,7.11718798 C5.04899727,3.92187595 11.5099357,0 19.9786852,0 C28.4474348,0 34.9083732,3.92187595 38.4318112,7.11718798 C39.9083732,8.46093655 40.2677487,10.562501 39.7052477,12.4765635 L38.4708737,16.648438 C37.9161857,18.5390639 35.9864997,19.6718764 34.0646242,19.2499995 L28.0802487,17.9296875 C26.3614987,17.5546885 25.1349352,16.0312498 25.1349352,14.2656255 L25.1349352,14.2734373 Z M2.47868525,23.75 C2.47868525,23.062501 3.04118501,22.5 3.72868525,22.5 L6.22868525,22.5 C6.91618549,22.5 7.47868525,23.062501 7.47868525,23.75 L7.47868525,26.25 C7.47868525,26.937499 6.91618549,27.5 6.22868525,27.5 L3.72868525,27.5 C3.04118501,27.5 2.47868525,26.937499 2.47868525,26.25 L2.47868525,23.75 Z M2.47868525,31.25 C2.47868525,30.562501 3.04118501,30 3.72868525,30 L6.22868525,30 C6.91618549,30 7.47868525,30.562501 7.47868525,31.25 L7.47868525,33.75 C7.47868525,34.437499 6.91618549,35 6.22868525,35 L3.72868525,35 C3.04118501,35 2.47868525,34.437499 2.47868525,33.75 L2.47868525,31.25 Z M11.2286852,22.5 L13.7286852,22.5 C14.4161855,22.5 14.9786852,23.062501 14.9786852,23.75 L14.9786852,26.25 C14.9786852,26.937499 14.4161855,27.5 13.7286852,27.5 L11.2286852,27.5 C10.541185,27.5 9.97868525,26.937499 9.97868525,26.25 L9.97868525,23.75 C9.97868525,23.062501 10.541185,22.5 11.2286852,22.5 Z M17.4786852,23.75 C17.4786852,23.062501 18.041185,22.5 18.7286852,22.5 L21.2286852,22.5 C21.9161843,22.5 22.4786852,23.062501 22.4786852,23.75 L22.4786852,26.25 C22.4786852,26.937499 21.9161843,27.5 21.2286852,27.5 L18.7286852,27.5 C18.041185,27.5 17.4786852,26.937499 17.4786852,26.25 L17.4786852,23.75 Z M26.2286852,22.5 L28.7286852,22.5 C29.4161843,22.5 29.9786852,23.062501 29.9786852,23.75 L29.9786852,26.25 C29.9786852,26.937499 29.4161843,27.5 28.7286852,27.5 L26.2286852,27.5 C25.5411862,27.5 24.9786852,26.937499 24.9786852,26.25 L24.9786852,23.75 C24.9786852,23.062501 25.5411862,22.5 26.2286852,22.5 Z M32.4786852,23.75 C32.4786852,23.062501 33.0411862,22.5 33.7286852,22.5 L36.2286852,22.5 C36.9161843,22.5 37.4786852,23.062501 37.4786852,23.75 L37.4786852,26.25 C37.4786852,26.937499 36.9161843,27.5 36.2286852,27.5 L33.7286852,27.5 C33.0411862,27.5 32.4786852,26.937499 32.4786852,26.25 L32.4786852,23.75 Z M33.7286852,30 L36.2286852,30 C36.9161843,30 37.4786852,30.562501 37.4786852,31.25 L37.4786852,33.75 C37.4786852,34.437499 36.9161843,35 36.2286852,35 L33.7286852,35 C33.0411862,35 32.4786852,34.437499 32.4786852,33.75 L32.4786852,31.25 C32.4786852,30.562501 33.0411862,30 33.7286852,30 Z M9.97868525,31.25 C9.97868525,30.562501 10.541185,30 11.2286852,30 L28.7286852,30 C29.4161843,30 29.9786852,30.562501 29.9786852,31.25 L29.9786852,33.75 C29.9786852,34.437499 29.4161843,35 28.7286852,35 L11.2286852,35 C10.541185,35 9.97868525,34.437499 9.97868525,33.75 L9.97868525,31.25 Z" id="Shape"></path>
            </g>
            <g id="-copy" transform="translate(100.500438, 176.000346)">
                <path d="M41.2500012,11.2344202 C41.2500012,10.5469211 40.6875002,9.98442018 40.0000012,9.98442018 C39.3125021,9.98442018 38.7500012,10.5469211 38.7500012,11.2344202 L38.7500012,14.1562971 C38.7500012,15.0078591 38.1796896,15.7500466 37.3593771,15.9687969 C36.5390646,16.1875471 35.6718767,15.8281716 35.2500021,15.0937971 L28.8828146,4.06254614 C28.7109387,3.76567209 28.3281267,3.66410816 28.0312526,3.83598411 C27.7343786,4.00785768 27.6328146,4.39067209 27.8046906,4.68754614 L27.8046906,4.69535911 L31.5546906,11.1875471 C32.0390666,12.0234832 31.8046916,13.0859836 31.0312521,13.6406692 C29.8515642,12.5234827 28.5078156,11.5703567 27.0078146,10.8203586 L24.5546877,6.56254614 L23.9296877,5.47660911 L23.9296877,5.46879614 L23.3046877,4.39067209 C23.1328118,4.09379566 22.7499998,3.99223411 22.4531257,4.16410768 C22.1562517,4.33598364 22.0546877,4.71879566 22.2265637,5.01567209 L22.8515637,6.10160911 L23.4765637,7.18754614 L23.4765637,7.19535911 L25.0546896,9.92973411 L20.9140646,8.09379661 C19.1328144,7.30473364 17.1953142,7.32817018 15.5234396,8.01567161 C15.8437526,7.03129614 16.5234396,6.14848459 17.4921894,5.59379661 C17.7890646,5.42192066 18.0937517,5.28910959 18.4062517,5.19535864 C18.2265639,3.52348411 19.0156269,1.82035768 20.5703151,0.929733159 C22.1250021,0.0391086359 23.9921892,0.195358636 25.3437531,1.18754709 C25.5859411,0.960982682 25.8515656,0.765670182 26.1484396,0.593796613 C28.2500017,-0.624953864 30.9218752,0.0937970896 32.1328127,2.18754614 L35.7968748,8.53129709 C36.6874993,7.14848364 38.2421863,6.23442018 40.0078118,6.23442018 C42.7656233,6.23442018 45.0078118,8.47660864 45.0078118,11.2344202 L45.0078118,17.8437957 C45.0078118,23.2656702 42.1406233,28.2812961 37.4687493,31.0312971 C36.6562498,31.5078601 35.8281243,31.8984851 34.9765623,32.2109851 C35.6015623,30.7109841 36.0156238,29.093798 36.1796868,27.4141105 C39.3437493,25.273486 41.2578118,21.6953596 41.2578118,17.851611 L41.2578118,11.2344202 L41.2500012,11.2344202 Z M13.6015642,12.2500452 C14.7812521,9.75004518 17.7578139,8.67973411 20.2578127,9.85160911 L24.6640623,11.9219216 C27.4765623,13.2422336 29.7734368,15.3359839 31.3593733,17.8672346 C32.8906238,20.1641091 33.7578118,22.8984841 33.7578118,25.7734855 C33.7578118,25.8516105 33.7578118,25.9297355 33.7578118,26.0078605 C33.7578118,26.0859855 33.7578118,26.1719235 33.7578118,26.2500485 C33.7578118,26.3437995 33.7499988,26.4297351 33.7421858,26.515673 C33.3515608,34.023486 27.1406233,40.0000461 19.5390606,40.0000461 L9.37500119,40.0000461 C6.96093798,40.0000461 5,38.0391082 5,35.6250461 C5,35.2812966 5.0390625,34.9531707 5.1171875,34.6328577 C3.57812524,33.9531716 2.5,32.4141082 2.5,30.6250461 C2.5,30.2812966 2.5390625,29.9531707 2.6171875,29.6328577 C1.07812524,28.9531716 0,27.4141082 0,25.6250461 C0,23.8359841 1.07812524,22.2969207 2.6171875,21.6172346 C2.54687428,21.2969216 2.5,20.968798 2.5,20.6250461 C2.5,18.2109841 4.46093678,16.2500461 6.875,16.2500461 L13.4921873,16.2500461 C12.9921877,15.0000461 12.9843748,13.5547336 13.6015618,12.2422346 L13.6015642,12.2500452 Z M5.625,25.0000461 L5.60937524,25.0000461 L4.375,25.0000461 C4.03124928,25.0000461 3.74999881,25.2812966 3.74999881,25.6250461 C3.74999881,25.9687957 4.03124928,26.2500461 4.375,26.2500461 L6.875,26.2500461 L6.89062476,26.2500461 L14.375,26.2500461 C15.4140627,26.2500461 16.2499988,27.0859846 16.2499988,28.1250461 C16.2499988,29.1641077 15.4140627,30.0000461 14.375,30.0000461 L6.86718702,30.0000461 C6.52343631,30.0000461 6.24999881,30.2812966 6.24999881,30.6250461 C6.24999881,30.9687957 6.53124928,31.2500461 6.875,31.2500461 L9.36718822,31.2500461 L9.38281298,31.2500461 L14.3750012,31.2500461 C15.4140639,31.2500461 16.2499988,32.0859846 16.2499988,33.1250461 C16.2499988,34.1641077 15.4140639,35.0000461 14.3750012,35.0000461 L9.36718822,35.0000461 C9.0234375,35.0078591 8.74999881,35.2812966 8.74999881,35.6250461 C8.74999881,35.9687957 9.03125048,36.2500461 9.37500119,36.2500461 L19.5234382,36.2500461 C25.1718771,36.2500461 29.7812521,31.7734846 29.9921882,26.1797341 C29.9921882,26.1484846 29.9921882,26.1094221 30.0000012,26.0781726 L30.0000012,26.0391101 L30.0000012,25.9922346 L30.0000012,25.968798 C30.0000012,25.906299 30.0000012,25.8359846 30.0000012,25.7734855 C30.0000012,23.6484846 29.3593752,21.6250476 28.2187521,19.9297353 C28.2031262,19.9141105 28.1953156,19.8906728 28.1796896,19.875048 C26.9687521,17.929736 25.2109396,16.3281735 23.0625021,15.3125485 L18.6562526,13.242236 C18.0312526,12.9453596 17.2890651,13.2187971 16.9921899,13.8437971 C16.6953146,14.4687971 16.9687521,15.2109858 17.5937521,15.507861 L19.5546901,16.4297363 C20.3515661,16.8047365 20.7812536,17.6797363 20.5859411,18.5391113 C20.3906286,19.3984863 19.6328163,20.0078615 18.7578166,20.0078615 L6.87500119,20.0078615 C6.53125048,20.0078615 6.24999881,20.289112 6.24999881,20.6328615 C6.24999881,20.976611 6.53125048,21.2578615 6.87500119,21.2578615 L6.89062595,21.2578615 L14.3750012,21.2578615 C15.4140639,21.2578615 16.2499988,22.0938 16.2499988,23.1328615 C16.2499988,24.171923 15.4140639,25.0078615 14.3750012,25.0078615 L5.62500119,25.0078615 L5.625,25.0000461 Z" id="Shape"></path>
            </g>
            <g id="-copy-2" transform="translate(291.502228, 0.000393)">
                <path d="M11.2482111,7.5 C12.5879566,7.5 13.8259331,6.78525448 14.4958059,5.625 C15.1656799,4.46474552 15.1656799,3.03525448 14.4958059,1.875 C13.8259331,0.714745522 12.5879566,0 11.2482111,0 C9.90846435,0 8.6704878,0.714745522 8.00061385,1.875 C7.33074109,3.03525448 7.33074109,4.46474552 8.00061385,5.625 C8.6704878,6.78525448 9.90846435,7.5 11.2482111,7.5 Z M10.1232115,10 C7.4044613,10 4.9435238,11.6015625 3.84196083,14.0859365 L0.162272851,22.3671865 C-0.259601672,23.3124995 0.170085828,24.4218731 1.1153988,24.84375 C2.06071178,25.2656269 3.17008654,24.835937 3.59196226,23.890624 L6.87321226,16.492188 L6.87321226,21.859374 C6.87321226,23.2499981 7.53727476,24.5624995 8.66227547,25.390625 L16.2482135,30.953126 L16.2482135,38.125 C16.2482135,39.1640615 17.0841507,40 18.1232135,40 C19.1622762,40 19.9982135,39.1640615 19.9982135,38.125 L19.9982135,30.632813 C19.9982135,29.6406245 19.5216505,28.7031245 18.7247757,28.1093764 L16.2482135,26.2968755 L16.2482135,16.1953127 L21.5607135,24.1640615 C22.138838,25.0234365 23.3029,25.2578115 24.162275,24.6875 C25.02165,24.1171885 25.256025,22.9453135 24.6857135,22.0859385 L18.6700885,13.062501 C17.3966507,11.1484385 15.2482132,10 12.9513387,10 L10.1232139,10 L10.1232115,10 Z M10.6232135,21.859374 L10.6232135,13.75 L12.4982135,13.75 L12.4982135,23.5468745 L10.8810262,22.3593736 C10.7169632,22.2421861 10.6232135,22.0546865 10.6232135,21.8515611 L10.6232135,21.859374 Z M24.326338,27.335937 L32.7169625,39.460938 C33.1075875,40.0312519 33.8888375,40.171876 34.459149,39.773438 C35.0294606,39.375 35.170087,38.601563 34.771649,38.0312514 L26.435713,25.9843755 C26.185712,26.2734389 25.888838,26.5390635 25.5529014,26.7656255 C25.1622764,27.023437 24.7482149,27.2109389 24.326338,27.335937 Z M5.05290071,37.6874995 C4.81071274,38.6953115 5.42790095,39.7031236 6.43571297,39.9453115 C7.443525,40.1875019 8.45133821,39.5703125 8.69352619,38.5624981 L10.7482139,30.0156236 L7.46696393,27.6093745 L5.04508893,37.6874995 L5.05290071,37.6874995 Z" id="Shape"></path>
            </g>
            <g id="-copy" transform="translate(289.000439, 176.000393)">
                <path d="M36.25,20 C36.25,14.1944337 33.1527686,8.82987022 28.125,5.92708588 C23.0972314,3.02430391 16.9027674,3.02430391 11.875,5.92708588 C6.84723258,8.82987022 3.75,14.1944337 3.75,20 C3.75,25.8055663 6.84723258,31.1701298 11.875,34.0729117 C16.9027674,36.9756961 23.0972314,36.9756961 28.125,34.0729117 C33.1527686,31.1701298 36.25,25.8055663 36.25,20 Z M0,20 C0,12.8546882 3.8119781,6.25214815 10,2.67949104 C16.1880219,-0.893163681 23.8119793,-0.893163681 30,2.67949104 C36.1880207,6.25214815 40,12.8546882 40,20 C40,27.1453118 36.1880207,33.7478518 30,37.320509 C23.8119793,40.8931637 16.1880219,40.8931637 10,37.320509 C3.8119781,33.7478518 0,27.1453118 0,20 Z M13.2656252,12.9140615 C13.8828123,11.171875 15.5390632,10 17.3906255,10 L21.945312,10 C24.671874,10 26.875,12.2109365 26.875,14.929688 C26.875,16.6953135 25.929687,18.3281255 24.3984365,19.2109382 L21.875,20.6562495 C21.859374,21.6718745 21.023438,22.5 20,22.5 C18.9609373,22.5 18.125,21.6640615 18.125,20.625 L18.125,19.5703125 C18.125,18.898437 18.4843755,18.28125 19.070313,17.9453123 L22.5312495,15.9609377 C22.898438,15.7500005 23.125,15.3593755 23.125,14.937501 C23.125,14.281249 22.593751,13.7578106 21.945312,13.7578106 L17.3906255,13.7578106 C17.125001,13.7578106 16.890626,13.921876 16.804688,14.1718745 L16.7734385,14.2656231 C16.4296889,15.2421868 15.3515637,15.7499993 14.382813,15.4062498 C13.4140623,15.0625002 12.898438,13.984375 13.2421875,13.0156231 L13.273437,12.9218745 L13.2656252,12.9140615 Z M17.5,27.5 C17.5,26.119287 18.6192882,25 20,25 C21.380713,25 22.5,26.119287 22.5,27.5 C22.5,28.880713 21.380713,30 20,30 C18.6192882,30 17.5,28.880713 17.5,27.5 Z" id="Shape"></path>
            </g>
            <g id="-copy-2" transform="translate(5.007271, 127.996487)">
                <path d="M39.446293,3.20703089 L34.446293,8.20703089 C33.7119185,8.94140542 32.5244175,8.94140542 31.797856,8.20703089 C31.0712944,7.47265637 31.0634815,6.28515542 31.797856,5.55859387 L36.790043,0.550780892 C37.5244175,-0.183593631 38.7119185,-0.183593631 39.43848,0.550780892 C40.1650392,1.28515542 40.1728546,2.47265637 39.43848,3.19921792 L39.446293,3.20703089 Z M14.446293,28.2070309 L3.19629301,39.4570309 C2.46191849,40.1914078 1.27441873,40.1914078 0.547855987,39.4570309 C-0.178706751,38.722654 -0.186519728,37.5351554 0.547854795,36.8085939 L11.7900418,25.5507809 C12.5244163,24.8164064 13.7119173,24.8164064 14.4384788,25.5507809 C15.1650404,26.2851554 15.1728534,27.4726564 14.4384788,28.1992179 L14.446293,28.2070309 Z M18.7431668,8.75390589 C13.2197296,8.75390589 8.74316682,13.2304674 8.74316682,18.7539059 C8.74316682,19.7929686 7.90722956,20.6289059 6.86816682,20.6289059 C5.82910408,20.6289059 4.99316682,19.7929686 4.99316682,18.7539059 C4.99316682,11.1601549 11.1494171,5.00390589 18.7431668,5.00390589 C26.3369178,5.00390589 32.4931668,11.1601549 32.4931668,18.7539059 C32.4931668,22.4648434 31.0244178,25.8320314 28.6337923,28.3007818 C28.2587932,28.6835939 28.1181668,29.0742189 28.1181668,29.3789059 C28.1181668,35.2460939 23.3603548,40.0039059 17.4931668,40.0039059 C16.4541041,40.0039059 15.6181668,39.1679674 15.6181668,38.1289059 C15.6181668,37.0898443 16.4541041,36.2539059 17.4931668,36.2539059 C21.2900423,36.2539059 24.3681668,33.1757814 24.3681668,29.3789059 C24.3681668,27.8867179 25.0634788,26.6054684 25.9384798,25.6992179 C27.6806663,23.9023429 28.7431668,21.4492184 28.7431668,18.7539059 C28.7431668,13.2304674 24.2666053,8.75390589 18.7431668,8.75390589 Z M18.7431668,15.6289059 C17.0166038,15.6289059 15.6181668,17.0273429 15.6181668,18.7539059 C15.6181668,19.7929686 14.7822296,20.6289059 13.7431668,20.6289059 C12.7041041,20.6289059 11.8681668,19.7929686 11.8681668,18.7539059 C11.8681668,14.9570304 14.9462913,11.8789059 18.7431668,11.8789059 C22.5400423,11.8789059 25.6181668,14.9570304 25.6181668,18.7539059 C25.6181668,19.7929686 24.7822284,20.6289059 23.7431668,20.6289059 C22.7041053,20.6289059 21.8681668,19.7929686 21.8681668,18.7539059 C21.8681668,17.0273429 20.4697298,15.6289059 18.7431668,15.6289059 Z" id="Shape"></path>
            </g>
            <g id="-copy-2" transform="translate(2.500439, 221.000393)">
                <path d="M5,3.75 C4.31249976,3.75 3.75,4.31250095 3.75,5 L3.75,25 C3.75,25.687499 4.31249976,26.25 5,26.25 L40,26.25 C40.687499,26.25 41.25,25.687499 41.25,25 L41.25,5 C41.25,4.31250095 40.687499,3.75 40,3.75 L5,3.75 Z M0,5 C0,2.24218845 2.24218726,0 5,0 L40,0 C42.7578115,0 45,2.24218845 45,5 L45,25 C45,27.7578115 42.7578115,30 40,30 L5,30 C2.24218726,30 0,27.7578115 0,25 L0,5 Z M13.75,20 L31.25,20 C31.937499,20 32.5,20.562501 32.5,21.25 L32.5,22.5 C32.5,23.187499 31.937499,23.75 31.25,23.75 L13.75,23.75 C13.0624998,23.75 12.5,23.187499 12.5,22.5 L12.5,21.25 C12.5,20.562501 13.0624998,20 13.75,20 Z M8.125,14.375 C8.125,13.6874998 8.68749976,13.125 9.375,13.125 L10.625,13.125 C11.3125002,13.125 11.875,13.6874998 11.875,14.375 L11.875,15.625 C11.875,16.312499 11.3125002,16.875 10.625,16.875 L9.375,16.875 C8.68749976,16.875 8.125,16.312499 8.125,15.625 L8.125,14.375 Z M9.375,6.875 L10.625,6.875 C11.3125002,6.875 11.875,7.43750095 11.875,8.125 L11.875,9.375 C11.875,10.0625002 11.3125002,10.625 10.625,10.625 L9.375,10.625 C8.68749976,10.625 8.125,10.0625002 8.125,9.375 L8.125,8.125 C8.125,7.43750095 8.68749976,6.875 9.375,6.875 Z M14.375,14.375 C14.375,13.6874998 14.9374998,13.125 15.625,13.125 L16.875,13.125 C17.5625002,13.125 18.125,13.6874998 18.125,14.375 L18.125,15.625 C18.125,16.312499 17.5625002,16.875 16.875,16.875 L15.625,16.875 C14.9374998,16.875 14.375,16.312499 14.375,15.625 L14.375,14.375 Z M15.625,6.875 L16.875,6.875 C17.5625002,6.875 18.125,7.43750095 18.125,8.125 L18.125,9.375 C18.125,10.0625002 17.5625002,10.625 16.875,10.625 L15.625,10.625 C14.9374998,10.625 14.375,10.0625002 14.375,9.375 L14.375,8.125 C14.375,7.43750095 14.9374998,6.875 15.625,6.875 Z M20.625,14.375 C20.625,13.6874998 21.187501,13.125 21.875,13.125 L23.125,13.125 C23.812499,13.125 24.375,13.6874998 24.375,14.375 L24.375,15.625 C24.375,16.312499 23.812499,16.875 23.125,16.875 L21.875,16.875 C21.187501,16.875 20.625,16.312499 20.625,15.625 L20.625,14.375 Z M21.875,6.875 L23.125,6.875 C23.812499,6.875 24.375,7.43750095 24.375,8.125 L24.375,9.375 C24.375,10.0625002 23.812499,10.625 23.125,10.625 L21.875,10.625 C21.187501,10.625 20.625,10.0625002 20.625,9.375 L20.625,8.125 C20.625,7.43750095 21.187501,6.875 21.875,6.875 Z M26.875,14.375 C26.875,13.6874998 27.437501,13.125 28.125,13.125 L29.375,13.125 C30.062499,13.125 30.625,13.6874998 30.625,14.375 L30.625,15.625 C30.625,16.312499 30.062499,16.875 29.375,16.875 L28.125,16.875 C27.437501,16.875 26.875,16.312499 26.875,15.625 L26.875,14.375 Z M28.125,6.875 L29.375,6.875 C30.062499,6.875 30.625,7.43750095 30.625,8.125 L30.625,9.375 C30.625,10.0625002 30.062499,10.625 29.375,10.625 L28.125,10.625 C27.437501,10.625 26.875,10.0625002 26.875,9.375 L26.875,8.125 C26.875,7.43750095 27.437501,6.875 28.125,6.875 Z M33.125,14.375 C33.125,13.6874998 33.687501,13.125 34.375,13.125 L35.625,13.125 C36.312499,13.125 36.875,13.6874998 36.875,14.375 L36.875,15.625 C36.875,16.312499 36.312499,16.875 35.625,16.875 L34.375,16.875 C33.687501,16.875 33.125,16.312499 33.125,15.625 L33.125,14.375 Z M34.375,6.875 L35.625,6.875 C36.312499,6.875 36.875,7.43750095 36.875,8.125 L36.875,9.375 C36.875,10.0625002 36.312499,10.625 35.625,10.625 L34.375,10.625 C33.687501,10.625 33.125,10.0625002 33.125,9.375 L33.125,8.125 C33.125,7.43750095 33.687501,6.875 34.375,6.875 Z" id="Shape"></path>
            </g>
            <g id="-copy-2" transform="translate(201.001322, 128.000393)">
                <path d="M11.2491168,3.7499994 C11.2491168,2.41025388 11.9638623,1.17227733 13.1241168,0.502404571 C14.2843713,-0.16746819 15.7138623,-0.16746819 16.8741168,0.502404571 C18.0343713,1.17227733 18.7491168,2.41025388 18.7491168,3.7499994 C18.7491168,5.08974493 18.0343713,6.32772148 16.8741168,6.99759424 C15.7138623,7.667467 14.2843713,7.667467 13.1241168,6.99759424 C11.9638623,6.32772148 11.2491168,5.08974493 11.2491168,3.7499994 Z M7.49911678,16.3671869 L3.5069288,23.4218735 C2.9991163,24.320311 1.85067904,24.6406239 0.952241537,24.1328114 C0.0538040375,23.6249989 -0.266508939,22.4765629 0.241303561,21.5781254 L4.81942904,13.4921879 C6.03817951,11.335935 8.32724225,9.9999994 10.8038045,9.9999994 L13.5381795,9.9999994 C15.5694295,9.9999994 17.4913038,10.8984369 18.7959923,12.4531239 L25.1788033,20.0468725 C25.8428658,20.8359355 25.7413043,22.023434 24.9522413,22.6874965 C24.1631783,23.351559 22.9756798,23.2499975 22.3116173,22.4609345 L17.4991168,16.7343742 L17.4991168,38.1249982 C17.4991168,39.1640598 16.6631795,39.9999994 15.6241168,39.9999994 C14.585054,39.9999994 13.7491168,39.1640598 13.7491168,38.1249982 L13.7491168,27.4999994 L11.2491168,27.4999994 L11.2491168,38.1249982 C11.2491168,39.1640598 10.4131795,39.9999994 9.37411678,39.9999994 C8.33505404,39.9999994 7.49911678,39.1640598 7.49911678,38.1249982 L7.49911678,16.3671857 L7.49911678,16.3671869 Z M13.7491168,13.7578112 C13.6788048,13.7499982 13.6084915,13.7499982 13.5381795,13.7499982 L11.2491168,13.7499982 L11.2491168,23.7499982 L13.7491168,23.7499982 L13.7491168,13.7578112 Z M24.9991168,29.3749982 L24.9991168,29.9999982 C24.9991168,31.0390598 24.1631783,31.8749982 23.1241168,31.8749982 C22.0850552,31.8749982 21.2491168,31.0390598 21.2491168,29.9999982 L21.2491168,29.3749982 C21.2491168,26.9609362 23.2100548,24.9999982 25.6241168,24.9999982 C28.0381788,24.9999982 29.9991168,26.9609362 29.9991168,29.3749982 L29.9991168,38.1249982 C29.9991168,39.1640598 29.1631783,39.9999982 28.1241168,39.9999982 C27.0850552,39.9999982 26.2491168,39.1640598 26.2491168,38.1249982 L26.2491168,29.3749982 C26.2491168,29.0312487 25.9678663,28.7499982 25.6241168,28.7499982 C25.2803673,28.7499982 24.9991168,29.0312487 24.9991168,29.3749982 Z" id="Shape"></path>
            </g>
            <g id="-copy-2" transform="translate(196.000439, 226.000393)">
                <path d="M20,5 C21.380713,5 22.5,3.8807106 22.5,2.5 C22.5,1.1192894 21.380713,0 20,0 C18.6192882,0 17.5,1.1192894 17.5,2.5 C17.5,3.8807106 18.6192882,5 20,5 Z M7.5,10 C8.88071179,10 10,8.88071179 10,7.5 C10,6.11928821 8.88071179,5 7.5,5 C6.11928821,5 5,6.11928821 5,7.5 C5,8.88071179 6.11928821,10 7.5,10 Z M35,7.5 C35,6.11928821 33.880713,5 32.5,5 C31.119287,5 30,6.11928821 30,7.5 C30,8.88071179 31.119287,10 32.5,10 C33.880713,10 35,8.88071179 35,7.5 Z M37.5,22.5 C38.880713,22.5 40,21.380713 40,20 C40,18.619287 38.880713,17.5 37.5,17.5 C36.119287,17.5 35,18.619287 35,20 C35,21.380713 36.119287,22.5 37.5,22.5 Z M5,20 C5,18.619287 3.88071179,17.5 2.5,17.5 C1.11928821,17.5 0,18.619287 0,20 C0,21.380713 1.11928821,22.5 2.5,22.5 C3.88071179,22.5 5,21.380713 5,20 Z M11.875,18.75 C10.8359373,18.75 10,19.5859385 10,20.625 C10,21.6640615 10.8359373,22.5 11.875,22.5 L28.125,22.5 C29.1640615,22.5 30,21.6640615 30,20.625 C30,19.5859385 29.1640615,18.75 28.125,18.75 L11.875,18.75 Z" id="Shape"></path>
            </g>
            <g id="-copy-2" transform="translate(98.000439, 90.500393)">
                <path d="M5,3.75 C4.31249976,3.75 3.75,4.31250095 3.75,5 L3.75,30 C3.75,30.687499 4.31249976,31.25 5,31.25 L40,31.25 C40.687499,31.25 41.25,30.687499 41.25,30 L41.25,5 C41.25,4.31250095 40.687499,3.75 40,3.75 L5,3.75 Z M0,5 C0,2.24218845 2.24218726,0 5,0 L40,0 C42.7578115,0 45,2.24218845 45,5 L45,30 C45,32.7578115 42.7578115,35 40,35 L5,35 C2.24218726,35 0,32.7578115 0,30 L0,5 Z M16.6796875,11.0390615 L22.3046875,22.2890615 C22.7656245,23.2187486 22.3906255,24.3437481 21.468749,24.8046875 C20.5468726,25.2656269 19.4140613,24.8906255 18.9531243,23.968749 L18.2187498,22.492187 L11.789062,22.492187 L11.0546875,23.968749 C10.5937505,24.8984361 9.46874976,25.2734375 8.53906274,24.8046875 C7.60937572,24.3359375 7.23437548,23.218751 7.70312548,22.2890615 L13.3281255,11.0390615 C13.6484385,10.4062486 14.296875,10 15.007813,10 C15.718751,10 16.3671875,10.3984356 16.6875005,11.0390615 L16.6796875,11.0390615 Z M16.648438,19.367187 L15,16.0703123 L13.351562,19.367187 L16.648438,19.367187 L16.648438,19.367187 Z M23.75,11.875 C23.75,10.8359385 24.5859385,10 25.625,10 L30,10 C34.140625,10 37.5,13.359375 37.5,17.5 C37.5,21.640625 34.140625,25 30,25 L25.625,25 C24.5859385,25 23.75,24.1640615 23.75,23.125 L23.75,11.875 Z M27.5,13.75 L27.5,21.25 L30,21.25 C32.0703125,21.25 33.75,19.5703125 33.75,17.5 C33.75,15.4296875 32.0703125,13.75 30,13.75 L27.5,13.75 Z" id="Shape"></path>
            </g>
            <g id="-copy-2" transform="translate(289.000439, 88.000393)">
                <path d="M16.25,32.5 C16.25,30.4296875 14.5703125,28.75 12.5,28.75 L5,28.75 C4.31249976,28.75 3.75,28.187499 3.75,27.5 L3.75,5 C3.75,4.31250095 4.31249976,3.75 5,3.75 L35,3.75 C35.687499,3.75 36.25,4.31250095 36.25,5 L36.25,27.5 C36.25,28.187499 35.687499,28.75 35,28.75 L24.1640615,28.75 C23.351562,28.75 22.562499,29.0156245 21.9140625,29.5000005 L16.25,33.75 L16.25,32.5 Z M16.2343752,38.453126 L16.25,38.4375 L24.1640615,32.5 L35,32.5 C37.7578115,32.5 40,30.2578115 40,27.5 L40,5 C40,2.24218845 37.7578115,0 35,0 L5,0 C2.24218726,0 0,2.24218845 0,5 L0,27.5 C0,30.2578115 2.24218726,32.5 5,32.5 L8.75,32.5 L12.5,32.5 L12.5,36.25 L12.5,36.5625 L12.5,36.5859365 L12.5,37.0859361 L12.5,38.75 C12.5,39.226563 12.7656245,39.6562505 13.1875002,39.8671865 C13.609376,40.078125 14.1171873,40.0312471 14.5,39.749999 L15.8359373,38.75 L16.2343752,38.453126 Z M9.375,15 C8.33593726,15 7.5,15.8359373 7.5,16.875 C7.5,17.9140627 8.33593726,18.75 9.375,18.75 L20.625,18.75 C21.6640615,18.75 22.5,17.9140627 22.5,16.875 C22.5,15.8359373 21.6640615,15 20.625,15 L9.375,15 Z M26.875,15 C25.8359385,15 25,15.8359373 25,16.875 C25,17.9140627 25.8359385,18.75 26.875,18.75 L30.625,18.75 C31.6640615,18.75 32.5,17.9140627 32.5,16.875 C32.5,15.8359373 31.6640615,15 30.625,15 L26.875,15 Z M9.375,21.25 C8.33593726,21.25 7.5,22.0859385 7.5,23.125 C7.5,24.1640615 8.33593726,25 9.375,25 L13.125,25 C14.1640627,25 15,24.1640615 15,23.125 C15,22.0859385 14.1640627,21.25 13.125,21.25 L9.375,21.25 Z M19.375,21.25 C18.3359373,21.25 17.5,22.0859385 17.5,23.125 C17.5,24.1640615 18.3359373,25 19.375,25 L30.625,25 C31.6640615,25 32.5,24.1640615 32.5,23.125 C32.5,22.0859385 31.6640615,21.25 30.625,21.25 L19.375,21.25 Z" id="Shape"></path>
            </g>
            <g id="-copy-2" transform="translate(377.000438, 40.000393)">
                <path d="M15.0000012,0 C16.3397467,0 17.5777233,0.714745522 18.247596,1.875 C18.91747,3.03525448 18.91747,4.46474552 18.247596,5.625 C17.5777233,6.78525448 16.3397467,7.5 15.0000012,7.5 C13.6602557,7.5 12.4222791,6.78525448 11.7524064,5.625 C11.0825324,4.46474552 11.0825324,3.03525448 11.7524064,1.875 C12.4222791,0.714745522 13.6602557,0 15.0000012,0 Z M9.41406369,19.3124998 C6.10156298,20.562501 3.75,23.757813 3.75,27.5 C3.75,32.335937 7.66406298,36.25 12.5,36.25 C15.8437514,36.25 18.7500012,34.375 20.2265632,31.6171885 C20.7109392,30.703125 21.8515623,30.3593755 22.7656257,30.8437514 C23.6796892,31.3281274 24.0234387,32.4687505 23.5390627,33.3828139 C21.4296877,37.3203135 17.281251,40 12.5,40 C5.59375048,40 0,34.4062495 0,27.5 C0,22.1484375 3.36718798,17.585938 8.08593869,15.8046877 C9.05468941,15.4375005 10.1328146,15.9296882 10.5,16.8984377 C10.8671892,17.8671873 10.3750014,18.9453125 9.40625191,19.3124998 L9.41406369,19.3124998 Z M14.6640646,10.0312495 C15.6796896,9.84375 16.6562521,10.5234385 16.8437517,11.5390635 L17.2421896,13.75 L26.8750024,13.75 C27.9140639,13.75 28.7500024,14.5859385 28.7500024,15.625 C28.7500024,16.6640627 27.9140639,17.5 26.8750024,17.5 L17.9296899,17.5 L18.9765644,23.2343745 C19.0312517,23.5312486 19.2890644,23.75 19.5937514,23.75 L29.1796899,23.75 C30.4218769,23.75 31.5468764,24.4843745 32.0390654,25.625 L35.3984404,33.3046865 L37.5234413,32.5937486 C38.5078168,32.2656226 39.5703173,32.796874 39.8984408,33.7812495 C40.2265668,34.765625 39.6953154,35.8281255 38.7109399,36.156249 L34.9609399,37.406249 C34.0390658,37.7109361 33.0390644,37.265625 32.6484394,36.3828111 L28.7734389,27.5 L19.5859396,27.5 C17.4687517,27.5 15.6562519,25.9843755 15.2812529,23.90625 L13.1562519,12.2109365 C12.9687524,11.1953115 13.6484396,10.218749 14.6640646,10.0312519 L14.6640646,10.0312495 Z" id="Shape"></path>
            </g>
            <g id="-copy-2" transform="translate(558.000439, 39.993725)">
                <path d="M12.257812,2.79573114 C12.7656245,1.88948067 12.4453115,0.748855189 11.5390623,0.241042689 C10.632813,-0.266769811 9.4921875,0.0535431654 8.984375,0.959793642 L1.31250024,14.6707311 C0.453125238,16.2097922 0,17.9441682 0,19.7019807 C0,25.3972927 4.609375,30.0066677 10.304687,30.0066677 L15.453124,30.0066677 C17.7499986,30.0066677 19.8984361,28.8582292 21.171875,26.9441667 L22.1875,25.4207292 C22.7656245,24.5613542 22.5312495,23.3972922 21.6640615,22.8191677 C20.7968736,22.2410432 19.6406245,22.4754182 19.0624988,23.3426061 L18.0468738,24.8660436 C17.5078118,25.6707302 16.6406238,26.1785427 15.687499,26.2488571 C15.6015611,26.2176076 15.5078113,26.186358 15.4140615,26.1629191 C13.742187,25.7879177 12.5,24.2879167 12.5,22.5066677 C12.5,20.4363552 14.1796875,18.7566677 16.25,18.7566677 L19.1250002,20.5066672 L19.1250002,20.5066672 L19.1328132,20.5144802 C19.7578132,21.3347927 20.9296894,21.4988557 21.7500019,20.8816686 C22.5781274,20.2566686 22.750001,19.0847936 22.125001,18.2566682 L20.625,19.3816677 C22.125001,18.2566682 22.125001,18.2566682 22.125001,18.2566682 L22.125001,18.2566682 L22.125001,18.2488552 L22.117188,18.2332304 L22.0859385,18.1941679 C22.0625019,18.1629184 22.03125,18.1238559 21.9921875,18.0847934 C21.9140625,17.9910436 21.812501,17.8660432 21.6796875,17.7254179 C21.414063,17.4363557 21.031251,17.0535425 20.554688,16.6707304 C19.625001,15.9285429 18.125,15.0066677 16.257813,15.0066677 C12.117188,15.0066677 8.75781298,18.3660427 8.75781298,22.5066677 C8.75781298,23.8660422 9.11718845,25.1394811 9.75000143,26.2332311 C6.38281345,25.9519807 3.75000119,23.1316677 3.75000119,19.7019807 C3.75000119,18.5847929 4.03906345,17.4754182 4.58593845,16.4988557 L12.2578132,2.79573114 L12.257812,2.79573114 Z M19.1250002,20.5066696 L16.2500012,18.7566677 C16.8828142,18.7566677 17.5703132,19.0847925 18.2031262,19.592605 C18.5000014,19.8347929 18.7421882,20.0769797 18.9140642,20.2566677 C19.0000021,20.3426066 19.0546894,20.4207316 19.0937519,20.4597941 C19.1093767,20.4832307 19.1250014,20.4988566 19.1328144,20.5066696 L19.1250002,20.5066696 Z M21.9531262,3.20979269 C22.6875007,2.47541817 22.6875007,1.28791721 21.9531262,0.561355665 C21.2187517,-0.165208265 20.0312507,-0.173018858 19.3046892,0.561355665 L9.92187619,9.92854269 C9.18750048,10.6629172 9.18750048,11.8504182 9.92187619,12.5769797 C10.6562507,13.3035413 11.8437517,13.3113542 12.5703132,12.5769797 L21.9531262,3.20979269 Z M25.0156271,11.1472932 C25.9921896,10.7957307 26.4921892,9.71760423 26.1406267,8.74104173 C25.7890642,7.76447923 24.7109401,7.26447971 23.7343776,7.61604221 L16.8593776,10.1160422 C15.8828151,10.4676047 15.3828156,11.5457311 15.7343781,12.5222936 C16.0859406,13.4988561 17.1640658,13.9988533 18.1406283,13.6472908 L25.0156271,11.1472908 L25.0156271,11.1472932 Z M37.7421892,37.2176042 C37.2343767,38.1238547 37.5546896,39.2644802 38.4609401,39.7722927 C39.3671906,40.2801052 40.5078137,39.9597922 41.0156262,39.0535417 L48.6875021,25.3504172 C49.5468771,23.8113538 50.0000012,22.0769802 50.0000012,20.3191677 C50.0000012,14.6160427 45.3906262,10.0066677 39.7031271,10.0066677 L34.5546877,10.0066677 C32.2578132,10.0066677 30.1093757,11.1551061 28.8359368,13.0691686 L27.8203118,14.5926061 C27.2421873,15.45198 27.4765623,16.616042 28.3437502,17.1941677 C29.2109382,17.7722934 30.3671873,17.5379172 30.9453118,16.6707304 L31.9609368,15.1472929 C32.4999988,14.3426052 33.3671868,13.8347927 34.3203127,13.7644807 C34.4062507,13.7957302 34.4999993,13.8269821 34.5937502,13.8504186 C36.2656248,14.2254177 37.5078118,15.7254186 37.5078118,17.5066677 C37.5078118,19.5769814 35.8281243,21.2566677 33.7578118,21.2566677 L30.8828127,19.5066677 L30.8828127,19.5066677 L30.8749998,19.4988552 C30.2499998,18.6785427 29.0781248,18.5144797 28.2578123,19.1316679 C27.4296868,19.7566679 27.2578132,20.9285417 27.8828132,21.7566672 L29.3750012,20.6316677 C27.8750002,21.7566672 27.8750002,21.7566672 27.8750002,21.7566672 L27.8750002,21.7566672 L27.8750002,21.7644802 L27.8828132,21.7801061 L27.9140627,21.8191686 C27.9374993,21.8504182 27.9687512,21.8894807 28.0078137,21.9285432 C28.0859387,22.0222941 28.1875002,22.1472922 28.3203137,22.2879186 C28.5859382,22.5769821 28.9687502,22.9597941 29.4531262,23.3426061 C30.3828132,24.0847936 31.8828142,25.0066677 33.7500012,25.0066677 C37.8906262,25.0066677 41.2500012,21.6472927 41.2500012,17.5066677 C41.2500012,16.1472932 40.8906281,14.8816672 40.2578127,13.7801042 C43.6171877,14.0691677 46.2500012,16.8816677 46.2500012,20.3113547 C46.2500012,21.4285413 45.9609377,22.5379172 45.4140627,23.5144797 L37.7421892,37.2176042 Z M30.8750021,19.5066658 L33.7500012,21.2566677 C33.1171882,21.2566677 32.4296892,20.9285417 31.7968762,20.4207292 C31.5000021,20.1785413 31.2578142,19.9363545 31.0937512,19.7566667 C31.0078132,19.6707288 30.9531271,19.5926038 30.9140646,19.5535413 C30.8984387,19.5301035 30.8828151,19.5144788 30.8750021,19.5066658 L30.8750021,19.5066658 Z M28.0468762,36.8035427 C27.3125017,37.5379172 27.3125017,38.7254182 28.0468762,39.4519797 C28.7812507,40.1785389 29.9687517,40.1863542 30.6953132,39.4519797 L40.0781262,30.0847927 C40.8125031,29.3504182 40.8125031,28.1629172 40.0781262,27.4363557 C39.3437493,26.7097941 38.1562507,26.7019811 37.4296892,27.4363557 L28.0468762,36.8035427 Z M24.9843752,28.8660422 C24.0078127,29.2176047 23.5078132,30.2957288 23.8593757,31.2722913 C24.2109382,32.2488538 25.2890623,32.7488533 26.2656248,32.3972908 L33.1406248,29.8972908 C34.1171873,29.5457283 34.6171868,28.4676042 34.2656243,27.4910417 C33.9140618,26.5144792 32.8359377,26.0144797 31.8593752,26.3660422 L24.9843752,28.8660422 Z" id="Shape"></path>
            </g>
            <g id="-copy-2" transform="translate(465.000439, 2.500393)">
                <path d="M40,3.75 C40.687499,3.75 41.25,4.31250095 41.25,5 L41.25,30 C41.25,30.687499 40.687499,31.25 40,31.25 L5,31.25 C4.31249976,31.25 3.75,30.687499 3.75,30 L3.75,5 C3.75,4.31250095 4.31249976,3.75 5,3.75 L40,3.75 Z M5,0 C2.24218726,0 0,2.24218845 0,5 L0,30 C0,32.7578115 2.24218726,35 5,35 L40,35 C42.7578115,35 45,32.7578115 45,30 L45,5 C45,2.24218845 42.7578115,0 40,0 L5,0 Z M15.625,13.75 C16.7343748,13.75 17.734375,14.226563 18.4218752,15 C19.1093755,15.773437 20.296874,15.8359373 21.0703135,15.148437 C21.8437529,14.4609368 21.9062519,13.273437 21.2187505,12.5 C19.851563,10.9687495 17.8515625,10 15.632813,10 C11.492188,10 8.13281298,13.359375 8.13281298,17.5 C8.13281298,21.640625 11.492188,25 15.632813,25 C17.8515625,25 19.851563,24.0312505 21.2187505,22.5 C21.9062495,21.726563 21.8437505,20.546875 21.0703135,19.851563 C20.2968764,19.156251 19.1171885,19.226563 18.4218764,20 C17.7343762,20.773437 16.734376,21.25 15.6250012,21.25 C13.5546887,21.25 11.8750012,19.5703125 11.8750012,17.5 C11.8750012,15.4296875 13.5546887,13.75 15.6250012,13.75 L15.625,13.75 Z M26.875,17.5 C26.875,15.4296875 28.5546875,13.75 30.625,13.75 C31.734376,13.75 32.734375,14.226563 33.421874,15 C34.1093731,15.773437 35.296874,15.8359373 36.0703111,15.148437 C36.8437481,14.4609368 36.9062495,13.273437 36.2187481,12.5 C34.8515606,10.9687495 32.8515601,10 30.6328106,10 C26.4921856,10 23.1328106,13.359375 23.1328106,17.5 C23.1328106,21.640625 26.4921856,25 30.6328106,25 C32.8515601,25 34.8515606,24.0312505 36.2187481,22.5 C36.9062471,21.726563 36.8437481,20.546875 36.0703111,19.851563 C35.296874,19.156251 34.1171861,19.226563 33.421874,20 C32.734375,20.773437 31.7343736,21.25 30.625,21.25 C28.5546875,21.25 26.875,19.5703125 26.875,17.5 Z" id="Shape"></path>
            </g>
            <g id="-copy" transform="translate(472.500436, 176.000393)">
                <path d="M22.6328158,0 C24.1250038,0 25.2031279,1.42968655 24.7890663,2.85937548 L20.6093764,17.5 L27.2656274,17.5 C28.7734389,17.5 29.9921894,18.7187505 29.9921894,20.226562 C29.9921894,21.0312486 29.6406269,21.789062 29.0312529,22.3046875 L8.82031441,39.468751 C8.41406465,39.8125005 7.89843917,40 7.36718893,40 C5.87500095,40 4.79687572,38.5703135 5.21093845,37.1406245 L9.39062595,22.5 L2.63281345,22.5 C1.17968798,22.5 0,21.320312 0,19.8671877 C0,19.0937507 0.335937738,18.367188 0.921875238,17.8671873 L21.1796892,0.539062023 C21.5859377,0.187499523 22.1015632,0 22.6328146,0 L22.6328158,0 Z M19.8125017,6.640625 L5.65625072,18.75 L11.8750012,18.75 C12.4609387,18.75 13.0156267,19.0234375 13.375001,19.4921875 C13.7343752,19.9609375 13.843751,20.5703115 13.679688,21.1328125 L10.1796889,33.3984375 L24.4921887,21.25 L18.1250012,21.25 C17.5390637,21.25 16.9843757,20.9765625 16.6250014,20.5078125 C16.2656271,20.0390625 16.1562507,19.4296873 16.3203144,18.8671875 L19.8125017,6.640625 Z" id="Shape"></path>
            </g>
            <g id="-copy-2" transform="translate(655.999073, 0.000000)">
                <path d="M5.43886598,0.672268041 C6.10292848,-0.124607913 7.29042943,-0.226169459 8.07949241,0.437893041 L22.8607434,12.8519551 L24.4935554,3.07070411 L24.5013684,3.03945459 L24.5716804,2.60195411 L24.8138684,1.16445459 C24.9232429,0.49257911 25.5013674,-2.13162821e-14 26.1810559,-2.13162821e-14 C26.6185563,-2.13162821e-14 27.0326179,0.203518041 27.2982424,0.555080541 L28.1732434,1.71914256 L28.4388679,2.07851804 L28.4544938,2.10195459 L28.7513679,2.50039256 L34.6966809,2.50039256 C35.6888693,2.50039256 36.6419929,2.89883054 37.3451179,3.60195554 L38.7513679,5.00039256 L41.2513679,5.00039256 C43.3216804,5.00039256 45.0013679,6.68008006 45.0013679,8.75039256 L45.0013679,11.2503926 C45.0013679,15.3910176 41.6419929,18.7503926 37.5013679,18.7503926 L33.9623063,18.7503926 L33.7513679,20.0003926 L33.7513679,35.0003926 C33.7513679,37.7582041 31.5091794,40.0003926 28.7513679,40.0003926 L27.5013679,40.0003926 C24.7435563,40.0003926 22.5013679,37.7582041 22.5013679,35.0003926 L22.5013679,33.484768 L22.5013679,29.656643 C21.6888684,29.8363296 20.8529299,29.9457065 20.0013679,29.984769 C19.7904306,29.992582 19.5873051,30.0003949 19.3763679,30.0003949 C19.1654306,30.0003949 18.9623051,29.992582 18.7513679,29.984769 C17.8998059,29.9457065 17.0638674,29.836332 16.2513679,29.656643 L16.2513679,33.4769551 L16.2513679,35.0003926 C16.2513679,37.7582041 14.0091806,40.0003926 11.2513679,40.0003926 L10.0013679,40.0003926 C7.24355515,40.0003926 5.00136789,37.7582041 5.00136789,35.0003926 L5.00136789,17.5003926 C5.00136789,17.3988298 5.00918086,17.2972671 5.01699384,17.2035173 C4.93105586,17.1800796 4.84511789,17.1488301 4.75917991,17.1175793 C2.61855539,16.3675789 0.93105491,14.5863286 0.352929195,12.2894541 L0.0560539565,11.0785166 C-0.193945805,10.070707 0.415429433,9.05507959 1.42324265,8.80508102 C2.43105586,8.55508006 3.44668086,9.16445411 3.69668182,10.1722685 L4.00137003,11.383206 C4.34511956,12.7738301 5.59511956,13.7503926 7.03262027,13.7503926 L11.2513703,13.7503926 L18.0951207,13.7503926 L5.67324575,3.31289209 C4.87637099,2.64882959 4.77480825,1.46133102 5.43887075,0.672268041 L5.43886598,0.672268041 Z M24.8451203,26.7347685 C25.7357448,27.4457065 26.2513703,28.5238305 26.2513703,29.656643 L26.2513703,35.0003926 C26.2513703,35.6878916 26.8138712,36.2503926 27.5013703,36.2503926 L28.7513703,36.2503926 C29.4388693,36.2503926 30.0013703,35.6878916 30.0013703,35.0003926 L30.0013703,21.4691416 L22.5013703,17.7191416 L22.5013703,25.906643 C23.3451193,25.906643 24.1732448,26.1957065 24.8451203,26.7347685 Z M18.7513691,26.234769 L18.7513691,17.5003926 L11.2513691,17.5003926 L8.75918206,17.5003926 L8.75136908,17.5628928 L8.75136908,35.0003926 C8.75136908,35.6878916 9.31386884,36.2503926 10.0013691,36.2503926 L11.2513691,36.2503926 C11.9388693,36.2503926 12.5013691,35.6878916 12.5013691,35.0003926 L12.5013691,29.656643 C12.5013691,28.5160176 13.0169946,27.4457065 13.9076191,26.7347685 C14.7982436,26.0238305 15.9544938,25.750393 17.0638686,26.0003926 C17.6107436,26.1175815 18.1732434,26.2035195 18.7513691,26.234769 L18.7513691,26.234769 Z M26.110745,15.3363315 L30.4310566,17.492582 C30.954495,16.0238317 32.3529321,15.0003949 33.9623075,15.0003949 L37.5013691,15.0003949 C39.5716816,15.0003949 41.2513691,13.3207074 41.2513691,11.2503949 L41.2513691,8.75039256 L38.7513691,8.75039256 C37.7591806,8.75039256 36.8060571,8.35195459 36.1029321,7.64882959 L34.6966821,6.25039256 L28.7513691,6.25039256 C28.4232431,6.25039256 28.0951196,6.20351709 27.7826196,6.12539209 L26.4076191,14.3675796 C26.3529306,14.7113291 26.2513691,15.0316421 26.110745,15.3363291 L26.110745,15.3363315 Z M32.5013691,8.75039256 C32.5013691,8.06003726 33.0610138,7.50039256 33.7513691,7.50039256 C34.4417244,7.50039256 35.0013691,8.06003726 35.0013691,8.75039256 C35.0013691,9.44074786 34.4417244,10.0003926 33.7513691,10.0003926 C33.0610138,10.0003926 32.5013691,9.44074786 32.5013691,8.75039256 Z" id="Shape"></path>
            </g>
            <g id="-copy" transform="translate(658.500439, 176.000393)">
                <path d="M15,3.75 C16.726563,3.75 18.125,5.14843702 18.125,6.875 L18.125,10 L16.6171873,10 C16.1328125,8.89843702 15.0312495,8.125 13.7499988,8.125 C12.023437,8.125 10.625,9.52343702 10.625,11.25 C10.625,12.976563 12.023437,14.375 13.7499988,14.375 C15.0312495,14.375 16.1328125,13.601563 16.6171873,12.5 L18.125,12.5 L18.125,20 L15,20 C12.9296875,20 11.2499988,21.6796875 11.2499988,23.75 L11.2499988,24.6328115 C10.148437,25.1171875 9.375,26.2187481 9.375,27.5 C9.375,29.226563 10.773437,30.625 12.5,30.625 C14.226563,30.625 15.625,29.226563 15.625,27.5 C15.625,26.2187505 14.851563,25.1171875 13.7499988,24.6328115 L13.7499988,23.75 C13.7499988,23.062501 14.3124998,22.5 15,22.5 L18.125,22.5 L18.125,32.8125 C18.125,34.7109365 16.5859377,36.25 14.6875,36.25 C13.2968748,36.25 12.0937502,35.4218745 11.554687,34.226563 C11.2578118,33.5703135 10.617187,33.140626 9.89843726,33.125 C7.87499905,33.0703115 6.24999881,31.414063 6.24999881,29.375 C6.24999881,29.1718745 6.26562357,28.968749 6.29687428,28.7812495 C6.40625,28.117187 6.14062428,27.4453115 5.61718702,27.023437 C4.47656155,26.101563 3.74999881,24.703126 3.74999881,23.125 C3.74999881,21.6171885 4.41406131,20.2656245 5.47656178,19.3515623 C6.10156178,18.8125002 6.29687428,17.9218745 5.95312357,17.1640623 C5.74218631,16.6953123 5.62499881,16.1796868 5.62499881,15.625 C5.62499881,14.156251 6.46874905,12.882812 7.71093607,12.265625 C8.34374905,11.953125 8.74999881,11.3046885 8.74999881,10.6015635 C8.75781298,9.09374952 9.66406345,7.78906345 10.9609389,7.20312595 C11.4609385,6.97656155 11.8437517,6.53906345 11.9921887,6.00781202 C12.3671889,4.70312595 13.5781264,3.75 15.0000012,3.75 L15,3.75 Z M14.6875012,40 C16.7890632,40 18.687501,39.0937495 20,37.65625 C21.3125002,39.1015625 23.2109392,40 25.3125012,40 C27.8281271,40 30.0390637,38.7109375 31.3203132,36.7578125 C34.8359382,36.1328125 37.5,33.062501 37.5,29.375 C37.5,29.3359375 37.5,29.289062 37.5,29.2499995 C39.0468752,27.6718736 40,25.5078125 40,23.125 C40,20.953126 39.2109382,18.9687502 37.9062521,17.4453127 C38.0468762,16.8593752 38.1250012,16.25 38.1250012,15.625 C38.1250012,13.0781245 36.8515646,10.8203125 34.9140632,9.46875095 C34.5625007,7.21093655 33.2109392,5.28906345 31.3281262,4.17187452 C30.2734387,1.71875 27.8359377,0 25,0 C23.0312502,0 21.2500012,0.828125477 20,2.15625048 C18.7500012,0.828125477 16.968751,0 15,0 C12.1640635,0 9.72656369,1.71875 8.67968798,4.17187452 C6.78906322,5.28906345 5.43750048,7.21093655 5.08593798,9.46875095 C3.14843774,10.8203125 1.875,13.0781245 1.875,15.625 C1.875,16.25 1.953125,16.8593752 2.09375024,17.4453127 C0.789062977,18.9687502 0,20.953126 0,23.125 C0,25.5078125 0.953124762,27.671876 2.5,29.2499995 C2.5,29.289062 2.5,29.3359375 2.5,29.375 C2.5,33.0703115 5.16406298,36.1328125 8.67968798,36.7578125 C9.96093869,38.7109375 12.1718764,40 14.6875012,40 Z M25.3125012,36.25 C23.4140646,36.25 21.8750012,34.7109365 21.8750012,32.8125 L21.8750012,27.5 L25.8828127,27.5 C26.3671887,28.601563 27.4687493,29.375 28.7500012,29.375 C30.4765642,29.375 31.8750012,27.976563 31.8750012,26.25 C31.8750012,24.523437 30.4765642,23.125 28.7500012,23.125 C27.4687517,23.125 26.3671887,23.898437 25.8828127,25 L21.8750012,25 L21.8750012,12.5 L25.0000012,12.5 C25.6875002,12.5 26.2500012,13.062501 26.2500012,13.75 L26.2500012,14.6328115 C25.1484382,15.1171875 24.3750012,16.2187505 24.3750012,17.5 C24.3750012,19.226563 25.7734382,20.625 27.5000012,20.625 C29.2265642,20.625 30.6250012,19.226563 30.6250012,17.5 C30.6250012,16.2187505 29.8515642,15.1171875 28.7500012,14.6328115 L28.7500012,13.75 C28.7500012,11.6796875 27.0703137,10 25.0000012,10 L21.8750012,10 L21.8750012,6.875 C21.8750012,5.14843702 23.2734382,3.75 25.0000012,3.75 C26.4218771,3.75 27.6328146,4.70312595 28.0078137,6.00781202 C28.1562507,6.53906345 28.5390627,6.97656155 29.0390646,7.20312595 C30.3359401,7.78906345 31.2421906,9.08593655 31.2500012,10.6015635 C31.2578142,11.3125014 31.6562521,11.953125 32.2890627,12.265625 C33.5312498,12.8828144 34.3750012,14.156251 34.3750012,15.6250012 C34.3750012,16.1796892 34.2578137,16.6953135 34.0468752,17.1640635 C33.7031257,17.9218757 33.8984382,18.8046885 34.5234382,19.3515635 C35.5781257,20.2734375 36.2500012,21.6171885 36.2500012,23.125 C36.2500012,24.703126 35.5234396,26.101563 34.3828142,27.023437 C33.8593757,27.4453115 33.6015642,28.117187 33.7031257,28.7812495 C33.7343752,28.976562 33.7500012,29.1718745 33.7500012,29.375 C33.7500012,31.414063 32.1250021,33.0703115 30.1015627,33.125 C29.3828118,33.1484365 28.7421882,33.5703135 28.4453118,34.226563 C27.9062521,35.4218745 26.7031252,36.25 25.3125012,36.25 Z M13.7500012,10 C14.4403577,10 15.0000012,10.5596447 15.0000012,11.25 C15.0000012,11.9403553 14.4403577,12.5 13.7500012,12.5 C13.0596447,12.5 12.5000012,11.9403553 12.5000012,11.25 C12.5000012,10.5596447 13.0596447,10 13.7500012,10 Z M12.5000012,26.25 C13.1903577,26.25 13.7500012,26.8096447 13.7500012,27.5 C13.7500012,28.1903553 13.1903577,28.75 12.5000012,28.75 C11.8096447,28.75 11.2500012,28.1903553 11.2500012,27.5 C11.2500012,26.8096447 11.8096447,26.25 12.5000012,26.25 Z M26.2500012,17.5 C26.2500012,16.8096435 26.8096459,16.25 27.5000012,16.25 C28.1903565,16.25 28.7500012,16.8096435 28.7500012,17.5 C28.7500012,18.1903565 28.1903565,18.75 27.5000012,18.75 C26.8096459,18.75 26.2500012,18.1903565 26.2500012,17.5 Z M28.7500012,25 C29.4403565,25 30.0000012,25.5596447 30.0000012,26.25 C30.0000012,26.9403553 29.4403565,27.5 28.7500012,27.5 C28.0596459,27.5 27.5000012,26.9403553 27.5000012,26.25 C27.5000012,25.5596447 28.0596459,25 28.7500012,25 Z" id="Shape"></path>
            </g>
            <g id="-copy-2" transform="translate(467.553298, 88.000393)">
                <path d="M35.4471406,7.265625 C36.0174522,7.95312405 35.9237036,8.95312548 35.2908906,9.58593845 C34.4627652,10.4140615 33.0877647,10.2578115 32.3221406,9.375 C29.3377671,5.92968702 24.9393281,3.75 20.0252661,3.75 C11.0487041,3.75 3.77526611,11.023438 3.77526611,20 L3.77526611,21.945312 C3.77526611,22.421875 3.75964135,22.898438 3.72839182,23.3749986 C3.67370456,24.312501 2.88464158,25 1.94714158,25 C0.814329083,25 -0.0450459165,23.984375 0.00182956032,22.8515625 C0.0174543219,22.5468755 0.0252672987,22.249999 0.0252672987,21.945312 L0.0252672987,20 C0.0252672987,8.95312548 8.97839278,0 20.0252673,0 C26.2283918,0 31.7752668,2.82812595 35.4471418,7.265625 L35.4471406,7.265625 Z M36.9549534,14.2656255 C37.9783913,13.757813 39.2205784,14.2500019 39.4862029,15.3671885 C39.8377654,16.8593764 40.0252673,18.4140635 40.0252673,20.007813 L40.0252673,21.953125 C40.0252673,22.3749995 40.0174567,22.804687 40.0096413,23.2265615 C39.9940154,24.21875 39.1658923,25 38.1658933,25 C37.0955798,25 36.2440178,24.1015625 36.2596437,23.0234385 C36.2674567,22.664063 36.2674567,22.3046875 36.2674567,21.9453144 L36.2674567,20 C36.2674567,18.820312 36.1424562,17.6718748 35.9080812,16.570313 C35.7127687,15.6484377 36.1033937,14.6796894 36.9471428,14.2578125 L36.9549534,14.2656255 Z M20.0252673,6.25 C27.6190183,6.25 33.7752673,12.406249 33.7752673,20 L33.7752673,21.945312 C33.7752673,24.1093755 33.6424538,26.2656236 33.3846423,28.4062481 C33.2752678,29.3203115 32.4862048,29.9921846 31.5643308,29.9921846 C30.4158923,29.9921846 29.5408937,28.9609337 29.6737048,27.8203106 C29.9080798,25.8749986 30.0174543,23.9062476 30.0174543,21.937499 L30.0174543,20 C30.0174543,14.4765615 25.5408928,10 20.0174543,10 C19.1112038,10 18.2362041,10.1171875 17.4080798,10.3437495 C16.5799543,10.5703115 15.6658921,10.374999 15.1112053,9.7265625 C14.2987058,8.78124952 14.5721433,7.31249809 15.759643,6.92187309 C17.1033928,6.484375 18.5408923,6.25 20.0252673,6.25 Z M11.7987046,11.6171885 C12.4393293,12.3671865 12.3846421,13.4765625 11.8143293,14.289062 C10.6893298,15.9062505 10.0252673,17.8750002 10.0252673,20 L10.0252673,21.945312 C10.0252673,24.203124 9.76745456,26.4531255 9.26745504,28.6484385 C9.07995432,29.453125 8.35339158,30 7.53307908,30 C6.29089087,30 5.40026635,28.7812495 5.66589087,27.570312 C6.07214063,25.7265615 6.27526611,23.8437486 6.27526611,21.953125 L6.27526611,20 C6.27526611,16.8281245 7.34557837,13.90625 9.15026635,11.5859365 C9.81432885,10.7265615 11.0877666,10.789063 11.7987046,11.6171885 Z M20.0252661,12.5 C24.1658911,12.5 27.5252661,15.859375 27.5252661,20 L27.5252661,21.945312 C27.5252661,25.0468755 27.2205791,28.140626 26.6190156,31.171875 C26.4627656,31.953125 25.7752666,32.5 24.9783906,32.5 C23.8690147,32.5 23.0643281,31.4609385 23.2752666,30.374999 C23.8143286,27.6015615 24.0877661,24.7812486 24.0877661,21.945312 L24.0877661,20 C24.0877661,17.7578127 22.2674546,15.9375 20.0252661,15.9375 C17.7830777,15.9375 15.9627661,17.7578127 15.9627661,20 L15.9627661,21.945312 C15.9627661,25.1093745 15.5487034,28.2499981 14.7205791,31.2968731 C14.5252666,32.015624 13.8690171,32.5 13.1268296,32.5 C11.9705793,32.5 11.1502668,31.3593721 11.4471421,30.2343726 C12.15808,27.5312471 12.5252673,24.749999 12.5252673,21.9453096 L12.5252673,20 C12.5252673,15.859375 15.8846423,12.5 20.0252661,12.5 Z M21.9002661,20 L21.9002661,21.945312 C21.9002661,27.0859385 20.9549531,32.179687 19.1112038,36.9765615 L18.6502668,38.1718731 C18.2752666,39.1406226 17.1971413,39.6171856 16.2283918,39.2499971 C15.2596423,38.8828087 14.7830793,37.7968717 15.1502666,36.8281221 L15.6112036,35.6328106 C17.2908911,31.265626 18.1502661,26.625 18.1502661,21.945312 L18.1502661,20 C18.1502661,18.9609373 18.9862034,18.125 20.0252661,18.125 C21.0643277,18.125 21.9002661,18.9609373 21.9002661,20 Z" id="Shape"></path>
            </g>
            <g id="-copy-2" transform="translate(658.500439, 88.000393)">
                <path d="M36.25,20 C36.25,14.1944337 33.1527686,8.82987022 28.125,5.92708588 C23.0972314,3.02430391 16.9027674,3.02430391 11.875,5.92708588 C6.84723258,8.82987022 3.75,14.1944337 3.75,20 C3.75,25.8055663 6.84723258,31.1701298 11.875,34.0729117 C16.9027674,36.9756961 23.0972314,36.9756961 28.125,34.0729117 C33.1527686,31.1701298 36.25,25.8055663 36.25,20 Z M0,20 C0,12.8546882 3.8119781,6.25214815 10,2.67949104 C16.1880219,-0.893163681 23.8119793,-0.893163681 30,2.67949104 C36.1880207,6.25214815 40,12.8546882 40,20 C40,27.1453118 36.1880207,33.7478518 30,37.320509 C23.8119793,40.8931637 16.1880219,40.8931637 10,37.320509 C3.8119781,33.7478518 0,27.1453118 0,20 Z M12.6171875,13.273437 L13.5468745,13.671875 C15.5859375,14.546876 17.7812493,15 20.0078106,15 C22.2343731,15 24.4218731,14.546876 26.468749,13.671875 L27.3984361,13.273437 C28.351562,12.8671885 29.4531226,13.3046865 29.8593736,14.2578125 C30.2656245,15.2109385 29.828124,16.3125002 28.8749981,16.71875 L27.9453111,17.117188 C26.5937495,17.6953125 25.1953101,18.125 23.7578106,18.3906257 L23.7578106,22.3046875 C23.7578106,22.640624 23.812499,22.976563 23.9218736,23.289063 L26.164062,30.015626 C26.492188,31.0000014 25.9609365,32.0625019 24.9765611,32.3906255 C23.9921856,32.718749 22.9296851,32.1875 22.6015615,31.2031245 L20.695312,25.484376 C20.5937505,25.1875019 20.320313,24.9843764 20.007813,24.9843764 C19.695313,24.9843764 19.4140625,25.1875019 19.3203127,25.484376 L17.4140632,31.2031269 C17.0859385,32.1875024 16.023438,32.7187514 15.0390637,32.3906279 C14.0546894,32.0625043 13.5234392,31.0000038 13.8515639,30.0156283 L16.0937512,23.2890654 C16.2031257,22.9687524 16.2578142,22.6406288 16.2578142,22.3046899 L16.2578142,18.3984375 C14.8203146,18.125 13.4218764,17.7031255 12.0703149,17.1249998 L11.1406279,16.7265618 C10.1875031,16.320312 9.75000262,15.218749 10.1562524,14.2656231 C10.5625021,13.3124995 11.6640651,12.874999 12.6171899,13.28125 L12.6171875,13.273437 Z M20,6.25 C21.1164546,6.25 22.1481013,6.84562206 22.7063298,7.8125 C23.2645559,8.77937794 23.2645559,9.97062206 22.7063298,10.9375 C22.1481013,11.9043779 21.1164546,12.5 20,12.5 C18.8835454,12.5 17.8518987,11.9043779 17.2936702,10.9375 C16.7354429,9.97062206 16.7354429,8.77937794 17.2936702,7.8125 C17.8518987,6.84562206 18.8835454,6.25 20,6.25 Z" id="Shape"></path>
            </g>
            <g id="-copy-2" transform="translate(377.000435, 128.000393)">
                <path d="M11.9921911,6.00781202 C11.8437541,6.53906345 11.4609408,6.97656155 10.9609413,7.20312595 C9.66406584,7.78906345 8.75781536,9.08593655 8.75000119,10.6015635 C8.74218941,11.3125014 8.34375143,11.953125 7.71093845,12.265625 C6.46875143,12.882812 5.62500119,14.156251 5.62500119,15.625 C5.62500119,16.179688 5.74218869,16.6953123 5.95312595,17.1640623 C6.29687667,17.9218745 6.10156417,18.8046873 5.47656417,19.3515623 C4.41406369,20.2656245 3.75000119,21.6171885 3.75000119,23.125 C3.75000119,24.703126 4.47656393,26.101563 5.61718941,27.023437 C6.14062667,27.4453115 6.39843941,28.117187 6.29687667,28.7812495 C6.26562595,28.976562 6.25000119,29.1718745 6.25000119,29.375 C6.25000119,31.414063 7.87500143,33.0703115 9.89843845,33.125 C10.6171882,33.1484365 11.257813,33.5703135 11.5546882,34.226563 C12.0937502,35.4218745 13.296876,36.25 14.6875012,36.25 C16.5859389,36.25 18.1250012,34.7109365 18.1250012,32.8125 L18.1250012,6.875 C18.1250012,5.14843702 16.7265642,3.75 15.0000012,3.75 C13.5781264,3.75 12.3671889,4.70312595 11.9921887,6.00781202 L11.9921911,6.00781202 Z M20,37.65625 C18.687501,39.1015625 16.7890632,40 14.6875012,40 C12.1718764,40 9.96093869,38.7109375 8.67968798,36.7578125 C5.16406298,36.1328125 2.5,33.062501 2.5,29.375 C2.5,29.3359375 2.5,29.289062 2.5,29.2499995 C0.953124762,27.671876 0,25.5078125 0,23.125 C0,20.953126 0.789062977,18.9687502 2.09375024,17.4453127 C1.953125,16.8593752 1.875,16.25 1.875,15.625 C1.875,13.0781245 3.14843774,10.8203125 5.08593798,9.46875095 C5.43750048,7.21093655 6.78906322,5.28906345 8.67187619,4.17187452 C9.72656369,1.71875 12.1640635,0 15,0 C16.968751,0 18.7500012,0.828125477 20,2.15625048 C21.2500012,0.828125477 23.0312502,0 25,0 C27.8359377,0 30.2734387,1.71875 31.3203132,4.17187452 C33.2031262,5.28906345 34.5625007,7.21093655 34.9062502,9.46875095 C36.8515646,10.8203125 38.1250012,13.0781245 38.1250012,15.625 C38.1250012,16.25 38.0468762,16.8593752 37.9062521,17.4453127 C39.2109406,18.9765632 40,20.9609365 40,23.125 C40,25.5078125 39.0468752,27.671876 37.5,29.2499995 C37.5,29.289062 37.5,29.3359375 37.5,29.375 C37.5,33.0703115 34.8359382,36.1328125 31.3203132,36.7578125 C30.0390637,38.7109375 27.8281248,40 25.3125012,40 C23.2109392,40 21.3125002,39.0937495 20,37.65625 Z M21.8750012,32.8125 C21.8750012,34.7109365 23.4140646,36.25 25.3125012,36.25 C26.7031252,36.25 27.9062521,35.4218745 28.4453142,34.226563 C28.7421882,33.5703135 29.3828142,33.140626 30.1015651,33.125 C32.1250021,33.0703115 33.7500036,31.414063 33.7500036,29.375 C33.7500036,29.1718745 33.7343776,28.968749 33.7031281,28.7812495 C33.5937536,28.117187 33.8593781,27.4453115 34.3828166,27.023437 C35.5234396,26.101563 36.2500012,24.703126 36.2500012,23.125 C36.2500012,21.6171885 35.5859387,20.2656245 34.5234382,19.3515623 C33.8984382,18.8125002 33.7031257,17.9218745 34.0468752,17.1640623 C34.2578137,16.6953123 34.3750012,16.1796868 34.3750012,15.625 C34.3750012,14.156251 33.5312521,12.882812 32.2890627,12.265625 C31.6562498,11.953125 31.2500012,11.3046885 31.2500012,10.6015635 C31.2421882,9.09374952 30.3359377,7.78906345 29.0390646,7.20312595 C28.5390651,6.97656155 28.1562531,6.53906345 28.0078137,6.00781202 C27.6328146,4.70312595 26.4218771,3.75 25.0000012,3.75 C23.2734382,3.75 21.8750012,5.14843702 21.8750012,6.875 L21.8750012,32.8125 Z" id="Shape"></path>
            </g>
            <g id="-copy-2" transform="translate(374.500439, 216.000393)">
                <path d="M5,3.75 C4.31249976,3.75 3.75,4.31250095 3.75,5 L3.75,27.5 C3.75,28.187499 4.31249976,28.75 5,28.75 L18.7109375,28.75 C18.7343752,28.75 18.757813,28.75 18.7734377,28.75 L26.2109375,28.75 C26.234374,28.75 26.257813,28.75 26.2734365,28.75 L40,28.75 C40.687499,28.75 41.25,28.187499 41.25,27.5 L41.25,5 C41.25,4.31250095 40.687499,3.75 40,3.75 L5,3.75 Z M16.5390623,32.5 L5,32.5 C2.24218726,32.5 0,30.2578115 0,27.5 L0,5 C0,2.24218845 2.24218726,0 5,0 L40,0 C42.7578115,0 45,2.24218845 45,5 L45,27.5 C45,30.2578115 42.7578115,32.5 40,32.5 L28.4609365,32.5 L29.0859365,36.25 L33.125,36.25 C34.1640615,36.25 35,37.0859385 35,38.125 C35,39.1640615 34.1640615,40 33.125,40 L27.5,40 L17.5,40 L11.875,40 C10.8359373,40 10,39.1640615 10,38.125 C10,37.0859385 10.8359373,36.25 11.875,36.25 L15.9140623,36.25 L16.5390623,32.5 Z M20.3437495,32.5 L19.7187495,36.25 L25.2890635,36.25 L24.6640635,32.5 L20.3359365,32.5 L20.3437495,32.5 Z" id="Shape"></path>
            </g>
            <g id="-copy-2" transform="translate(558.000438, 130.500393)">
                <path d="M10,5 C10,7.75781155 7.76171923,10 5,10 C2.23828077,10 0,7.75781155 0,5 C0,2.23828077 2.23828077,0 5,0 C7.76171923,0 10,2.23828077 10,5 Z M12.5000012,17.5 C12.5000012,14.7421873 14.7421885,12.5 17.5000012,12.5 C20.2578127,12.5 22.5000012,14.7421873 22.5000012,17.5 C22.5000012,20.2578115 20.2578127,22.5 17.5000012,22.5 C14.7421885,22.5 12.5000012,20.2578115 12.5000012,17.5 Z M17.5000012,19.375 C18.5390639,19.375 19.3750012,18.5390615 19.3750012,17.5 C19.3750012,16.4609373 18.5390639,15.625 17.5000012,15.625 C16.4609385,15.625 15.6250012,16.4609373 15.6250012,17.5 C15.6250012,18.5390615 16.4609385,19.375 17.5000012,19.375 Z M10,30 C10,32.7578115 7.76171923,35 5,35 C2.23828077,35 0,32.7578115 0,30 C0,27.2421885 2.23828077,25 5,25 C7.76171923,25 10,27.2421885 10,30 Z M5.00000119,28.125 C3.96484494,28.125 3.12500119,28.9609385 3.12500119,30 C3.12500119,31.0390615 3.96484494,31.875 5.00000119,31.875 C6.03515744,31.875 6.87500119,31.0390615 6.87500119,30 C6.87500119,28.9609385 6.03515744,28.125 5.00000119,28.125 Z M22.5000012,30 C22.5000012,32.7578115 20.2578127,35 17.5000012,35 C14.7421885,35 12.5000012,32.7578115 12.5000012,30 C12.5000012,27.2421885 14.7421885,25 17.5000012,25 C20.2578127,25 22.5000012,27.2421885 22.5000012,30 Z M17.5000012,28.125 C16.4609385,28.125 15.6250012,28.9609385 15.6250012,30 C15.6250012,31.0390615 16.4609385,31.875 17.5000012,31.875 C18.5390639,31.875 19.3750012,31.0390615 19.3750012,30 C19.3750012,28.9609385 18.5390639,28.125 17.5000012,28.125 Z M1.1920929e-06,17.5 C1.1920929e-06,14.7421873 2.23828197,12.5 5.00000119,12.5 C7.76172042,12.5 10.0000012,14.7421873 10.0000012,17.5 C10.0000012,20.2578115 7.76172042,22.5 5.00000119,22.5 C2.23828197,22.5 1.1920929e-06,20.2578115 1.1920929e-06,17.5 Z M12.5000012,5 C12.5000012,2.23828077 14.7421885,0 17.5000012,0 C20.2578127,0 22.5000012,2.23828077 22.5000012,5 C22.5000012,7.75781155 20.2578127,10 17.5000012,10 C14.7421885,10 12.5000012,7.75781155 12.5000012,5 Z M37.5000012,5 C37.5000012,7.75781155 35.2578127,10 32.5000012,10 C29.7421896,10 27.5000012,7.75781155 27.5000012,5 C27.5000012,2.23828077 29.7421896,0 32.5000012,0 C35.2578127,0 37.5000012,2.23828077 37.5000012,5 Z M50.0000012,5 C50.0000012,7.75781155 47.7578127,10 45.0000012,10 C42.2421896,10 40.0000012,7.75781155 40.0000012,5 C40.0000012,2.23828077 42.2421896,0 45.0000012,0 C47.7578127,0 50.0000012,2.23828077 50.0000012,5 Z M45.0000012,3.125 C43.9609396,3.125 43.1250012,3.96484375 43.1250012,5 C43.1250012,6.03906155 43.9609396,6.875 45.0000012,6.875 C46.0390627,6.875 46.8750012,6.03906155 46.8750012,5 C46.8750012,3.96484375 46.0390627,3.125 45.0000012,3.125 Z M40.0000012,17.5 C40.0000012,14.7421873 42.2421896,12.5 45.0000012,12.5 C47.7578127,12.5 50.0000012,14.7421873 50.0000012,17.5 C50.0000012,20.2578115 47.7578127,22.5 45.0000012,22.5 C42.2421896,22.5 40.0000012,20.2578115 40.0000012,17.5 Z M45.0000012,19.375 C46.0390627,19.375 46.8750012,18.5390615 46.8750012,17.5 C46.8750012,16.4609373 46.0390627,15.625 45.0000012,15.625 C43.9609396,15.625 43.1250012,16.4609373 43.1250012,17.5 C43.1250012,18.5390615 43.9609396,19.375 45.0000012,19.375 Z M50.0000012,30 C50.0000012,32.7578115 47.7578127,35 45.0000012,35 C42.2421896,35 40.0000012,32.7578115 40.0000012,30 C40.0000012,27.2421885 42.2421896,25 45.0000012,25 C47.7578127,25 50.0000012,27.2421885 50.0000012,30 Z M45.0000012,28.125 C43.9609396,28.125 43.1250012,28.9609385 43.1250012,30 C43.1250012,31.0390615 43.9609396,31.875 45.0000012,31.875 C46.0390627,31.875 46.8750012,31.0390615 46.8750012,30 C46.8750012,28.9609385 46.0390627,28.125 45.0000012,28.125 Z M27.5000012,17.5 C27.5000012,14.7421873 29.7421896,12.5 32.5000012,12.5 C35.2578127,12.5 37.5000012,14.7421873 37.5000012,17.5 C37.5000012,20.2578115 35.2578127,22.5 32.5000012,22.5 C29.7421896,22.5 27.5000012,20.2578115 27.5000012,17.5 Z M32.5000012,19.375 C33.5390627,19.375 34.3750012,18.5390615 34.3750012,17.5 C34.3750012,16.4609373 33.5390627,15.625 32.5000012,15.625 C31.4609396,15.625 30.6250012,16.4609373 30.6250012,17.5 C30.6250012,18.5390615 31.4609396,19.375 32.5000012,19.375 Z M37.5000012,30 C37.5000012,32.7578115 35.2578127,35 32.5000012,35 C29.7421896,35 27.5000012,32.7578115 27.5000012,30 C27.5000012,27.2421885 29.7421896,25 32.5000012,25 C35.2578127,25 37.5000012,27.2421885 37.5000012,30 Z M32.5000012,28.125 C31.4609396,28.125 30.6250012,28.9609385 30.6250012,30 C30.6250012,31.0390615 31.4609396,31.875 32.5000012,31.875 C33.5390627,31.875 34.3750012,31.0390615 34.3750012,30 C34.3750012,28.9609385 33.5390627,28.125 32.5000012,28.125 Z" id="Shape"></path>
            </g>
            <g id="-copy-2" transform="translate(560.502389, 218.500393)">
                <path d="M22.4980494,3.75 C17.4042997,3.75 13.2167992,6.06250048 10.0058624,9.03906345 C6.99804872,11.8359375 4.91992325,15.15625 3.85742277,17.5 C4.91992325,19.84375 6.99804872,23.1640625 9.99804825,25.9609365 C13.216798,28.9374995 17.4042985,31.25 22.4980482,31.25 C27.5917992,31.25 31.7792973,28.9374995 34.9902353,25.9609365 C37.9980478,23.1640625 40.0761732,19.84375 41.1386713,17.5 C40.0761732,15.15625 37.9980454,11.8359375 34.9980459,9.03906345 C31.7792973,6.06250048 27.5917992,3.75 22.4980482,3.75 L22.4980494,3.75 Z M7.45117277,6.29687548 C11.1308607,2.87499905 16.185548,0 22.4980482,0 C28.8105473,0 33.8652357,2.87499905 37.5449237,6.29687548 C41.2011752,9.69531298 43.6464867,13.75 44.8105463,16.5390635 C45.0683579,17.1562505 45.0683579,17.8437519 44.8105463,18.4609389 C43.6464819,21.2500024 41.2011704,25.3125 37.5449213,28.7031269 C33.8652357,32.125001 28.8105473,35 22.4980482,35 C16.1855492,35 11.1308607,32.125001 7.45117277,28.7031245 C3.79492253,25.3125 1.34960979,21.25 0.193359554,18.4609365 C-0.0644531846,17.8437495 -0.0644531846,17.1562493 0.193359554,16.5390611 C1.34960979,13.75 3.79492253,9.6875 7.45117277,6.29687548 Z M22.4980482,23.75 C25.9511742,23.75 28.7480482,20.953126 28.7480482,17.5 C28.7480482,14.046874 25.9511742,11.25 22.4980482,11.25 C22.4433598,11.25 22.3964867,11.25 22.3417982,11.25 C22.4433598,11.648438 22.4980482,12.0703125 22.4980482,12.5 C22.4980482,15.2578127 20.2558598,17.5 17.4980482,17.5 C17.0683607,17.5 16.6464862,17.4453127 16.2480482,17.34375 C16.2480482,17.3984373 16.2480482,17.4453127 16.2480482,17.5 C16.2480482,20.953126 19.0449235,23.75 22.4980482,23.75 Z M22.4980482,7.5 C26.070703,7.5 29.3719754,9.40598965 31.1583027,12.5 C32.9446301,15.5940104 32.9446301,19.4059896 31.1583027,22.5 C29.3719754,25.5940104 26.070703,27.5 22.4980482,27.5 C18.9253923,27.5 15.6241223,25.5940104 13.8377938,22.5 C12.0514664,19.4059896 12.0514664,15.5940104 13.8377938,12.5 C15.6241223,9.40598965 18.9253923,7.5 22.4980482,7.5 Z" id="Shape"></path>
            </g>
        </g>
    </g>
</svg>